<svg id="Layer_1" data-name="Layer 1" xmlns="http://www.w3.org/2000/svg" viewBox="0 0 498.75 498.74"><defs><style>.cls-1{fill:#fff;}.cls-2{fill:#010101;}.cls-3{fill:#c91430;}.cls-4{fill:#232f5d;}</style></defs><g id="layer2"><circle id="path4878" class="cls-1" cx="249.37" cy="249.37" r="249.37"/><path id="path4520" class="cls-2" d="M206.85,22.54c-.29.11-.92.43-1.72.84l1.81-.79-.09-.05Zm-74.68,83.31-1.32,1.57c-1.47,1.75-8.81,5.56-12.18,6.31a9.86,9.86,0,0,0-2.46.78,44.47,44.47,0,0,0-2,4.4c-.95,2.27-3.78,8.64-6.3,14.17-8,17.41-10.21,23-12.91,32-1.45,4.79-2.8,9.61-3,10.71a4.88,4.88,0,0,1-.84,2.27,1.6,1.6,0,0,0-.46,1.21c0,.95,1,1.57,11.85,7.72,6.19,3.49,6.32,3.53,7.13,2.48.46-.58,3.09-2.05,5.85-3.25l5.62-2.45c.58-.25.73.3,1.53,5.49.26,1.72.58,2.24,1.34,2.24a2.19,2.19,0,0,1,1.61,1.19,5.42,5.42,0,0,0,1.13,1.52c.28.18,2.56-.21,5.08-.85s5.46-1.35,6.55-1.54c2.35-.43,2.42-.12,1.17,4.69a12,12,0,0,0-.57,3.74c.13.35,2.93,1.76,6.23,3.15,7.13,3,11.14,5,13.65,6.8,1,.73,2.21,1.19,2.64,1a39.45,39.45,0,0,1,10.31-2.51c3.19-.47,6.76-1.14,7.92-1.48a17.22,17.22,0,0,1,2.91-.64c.64,0,.86-1.22,1.13-6.1.19-3.35.72-10.24,1.18-15.33s1.08-14.6,1.39-21.14c.83-17.47,1.88-30.29,2.61-31.65.56-1.05.44-1.4-1.12-3a22.74,22.74,0,0,0-8.36-5.43c-1.6-.67-3.91-1.67-5.12-2.22-3.09-1.38-4.19-1.28-4.8.46-.45,1.25-1.24,1.7-5.62,3.17a45.69,45.69,0,0,0-7.19,3c-2.79,1.76-3.17,1.68-3.17-.73,0-4.35-3.09-14-5.73-18a4.77,4.77,0,0,0-2.8-1,75,75,0,0,1-7.58-1.51Zm1.65,3.71c.43,0,.64.24.46.53a1.44,1.44,0,0,1-1.12.53c-.43,0-.64-.24-.46-.53a1.44,1.44,0,0,1,1.12-.53Zm3.77,1c.83,0,.5.61-1.53,1.53-1.27.58-4.13,1.91-6.36,3-4.45,2.09-4.48,2.1-4.86,1.48s4.78-3.56,8.95-5.08A11.79,11.79,0,0,1,137.59,110.56Zm4.16.74a1.51,1.51,0,0,1,.44.06c1.7.42,1.37,1.13-.73,1.54a51.79,51.79,0,0,0-6.69,2.72c-4.94,2.31-7.09,2.9-7.09,1.94,0-.24,2.95-1.82,6.56-3.5C138.59,112,140.61,111.28,141.75,111.3Zm4.75,2.7c.24,0,.4.23.62.63.44.78-.52,1.4-6.92,4.52-7.34,3.58-8.82,4.1-8.82,3.12s3.36-3,8.19-5.07c2.62-1.13,5.27-2.37,5.9-2.76a2,2,0,0,1,1-.44Zm1.09,3a.69.69,0,0,1,.69.47,4.28,4.28,0,0,1,.54,1.55c0,.62-4,2.75-11.17,5.88-2.6,1.15-4.82,2.09-4.92,2.09s-.82-1.53-.82-2.16c0-.27,3.56-2.26,7.92-4.43,5.07-2.52,6.93-3.4,7.76-3.4Zm-29.08.8a17.74,17.74,0,0,1,4.87,1.29c3.77,1.32,4.8,1.9,5,2.85.16.66.79,6.52,1.4,13,1.71,18.33,1.66,18.23,7.15,13.39,14.78-13,17.15-14.81,18.53-14a40.18,40.18,0,0,0,4.08,1.68c3.77,1.36,4.85,2.38,5.66,5.33.67,2.45.71,1.92-1.85,24.47-3.5,30.83-4,35.57-4,37.92,0,2.89-.34,3-3.44,1.14a62.12,62.12,0,0,0-6.91-3.14c-7.14-2.78-7.1-2.75-6.27-6.44.37-1.68,1.18-7.87,1.79-13.76a106.47,106.47,0,0,1,1.92-13.11c1-3,.83-4.72-.54-4.72-.76,0-1.28.68-1.95,2.55a43.8,43.8,0,0,1-4,7.16c-4.12,6.1-12.79,16.54-13.54,16.3-.58-.19-1-1.9-4.81-21-2.67-13.26-2.64-13.21-5.52-11.16-1.13.8-1.4,1.36-1.23,2.52a9,9,0,0,1-.56,3.59l-2.13,5.88a76.23,76.23,0,0,0-2.45,9.76,32.61,32.61,0,0,1-1.56,6.46c-.3.3-1.17.08-2.24-.56s-3.66-2.07-6-3.31c-6.07-3.23-5.84-2.84-4.49-7.73,4-14.47,10.09-29.91,19.74-50a47.33,47.33,0,0,0,2.46-5.65c0-.52.23-.8.87-.81Zm124.13,1.07c-9.11.08-20.08.93-22.51,2.13-3,1.5-11.09,7.54-15,11.24-3.33,3.12-3.71,3.68-3.77,5.58-.23,7.32-1.33,26.78-1.77,31.45-.29,3.05-.91,11.25-1.37,18.23-.9,13.61-1.17,17.45-1.63,23.27-.21,2.77-.1,3.88.43,4.32.78.64,12.51,2.41,22.11,3.33,8.44.8,17.87,2.1,19.31,2.64a3.8,3.8,0,0,1,1.58,1.06c.64,1,2.69.11,7.77-3.54,8.3-6,10.45-8,10.45-10a3.19,3.19,0,0,0-.45-2c-.24-.15-.6-2.25-.78-4.67a41.93,41.93,0,0,0-1.54-8l-1.19-3.66-6.87-.17c-3.78-.1-8.66-.35-10.84-.56-3.72-.35-4-.45-4-1.64a2.28,2.28,0,0,1,1-1.85c.58-.32,3.86-2.49,7.3-4.81s6.71-4.47,7.27-4.75c1.25-.64,1.26-1,.16-4.22-.64-1.89-.72-2.79-.31-3.46s.41-2.09.1-4.54a65.64,65.64,0,0,1-.49-6.55l0-2.91H234.17L234,153c-.15-1.51,0-1.72,1.11-1.72a11.42,11.42,0,0,1,3,.59c2.06.72,3.55.09,6.37-2.71,2.26-2.22,12.32-9.51,13.14-9.51s1.67-1.71,1.67-3a3.37,3.37,0,0,0-.86-1.86c-.68-.76-.87-2.31-.94-7.65l-.09-6.71-2.62-.84c-1.87-.59-6.66-.82-12.12-.78ZM149,120.79c.06,0,.1,0,.11,0a6.91,6.91,0,0,1,.51,1.76c.29,1.5.18,1.59-3.56,3.07-2.13.84-5.36,2.32-7.19,3.3s-3.91,2.16-4.62,2.63c-1.15.75-1.33.76-1.6,0a5.62,5.62,0,0,1-.14-2.21c.15-1.22.79-1.66,4.93-3.4,2.61-1.09,6.26-2.76,8.11-3.69a20,20,0,0,1,3.45-1.5Zm97.8.92a5.3,5.3,0,0,1,2.41.29c0,.94-1.86,2.89-2.51,2.64-.48-.18-2.58,1.32-5.49,3.9l-4.73,4.18-3.46.18a12.76,12.76,0,0,1-3.64-.1c-.28-.46,3.66-3.54,9.49-7.41,4.81-3.2,5.83-3.68,7.93-3.68Zm-6.36.05c.53,0,.84.09.84.38s-1.8,1.59-4,3a60.11,60.11,0,0,0-7,5.3c-2.71,2.5-3.29,2.79-6,3.07-1.71.17-3,.09-3-.18,0-.77,5.3-4.72,10.67-8,3.38-2,7-3.5,8.57-3.59Zm-8.67.48c1.16,0,2.11.18,2.11.4s-2.16,1.7-4.81,3.3a53.42,53.42,0,0,0-7.36,5.35,9.78,9.78,0,0,1-4.17,2.69c-2.14.31-2.05-.19.36-2,1.09-.83,4.18-3.35,6.87-5.61,4.31-3.62,5.14-4.11,7-4.11Zm57.64,0-2.79,1.5c-6.26,3.33-9.61,5.47-13.11,8.35-3.68,3-4.1,3.57-3.23,4.11.26.16.27,1.33,0,2.71s-.69,7.83-1,14.41-.76,14.24-1.06,17-.79,8.95-1.08,13.74-.8,13.19-1.13,18.65-.43,10.09-.22,10.3,6.24.27,13.41.12c20.72-.41,24.8-.35,25.54.4h0a2.21,2.21,0,0,0,1.08.66c.64,0,8.37-6.94,11.09-10,2.29-2.54,2.41-2.83,2-4.69-.24-1.1-.59-3.54-.79-5.43a42.63,42.63,0,0,0-1.11-6.11l-.76-2.68-8.05.18c-4.42.09-8.37,0-8.78-.31-1-.64-.36-3,.86-3.36a52.12,52.12,0,0,0,6.56-4.62l5.63-4.38-.76-2.57a6.56,6.56,0,0,1-.33-3.49c.24-.51.19-3.31-.11-6.21l-.55-5.29-2.37.15a30.68,30.68,0,0,1-5.29-.27c-2.5-.36-2.93-.59-3.08-1.66-.28-2,.56-2.34,3-1.36l2.19.88,1.86-1.51c5.25-4.27,11.16-8.62,11.73-8.63,1,0,1.43-2.54.61-3.52-.48-.58-.73-2.7-.79-6.66l-.08-5.81-2.28-1c-3.42-1.53-5.62-1.9-16.72-2.79Zm-63.91.52c.83,0,1.51.11,1.51.23s-3.06,2.72-6.79,5.75c-6.75,5.46-6.83,5.51-10,5.74-1.79.13-3.25.09-3.25-.09,0-.8,9.81-8.46,10.82-8.46.21,0-1.49,1.58-3.77,3.51a42.83,42.83,0,0,0-4.32,4c-.38,1,.72.35,3.53-2,6.72-5.75,10.79-8.59,12.31-8.59Zm28.07.53c.47,0,.27,4.08-.22,4.45a107.34,107.34,0,0,1-9.43,5.79c0-.57,9.11-10.24,9.65-10.24Zm123,.33h-3.39c-3.77,0-13.56.59-21.75,1.23L336.51,126l-1.13-1.14c-1.6-1.59-2.37-.77-3.93,4.18-2,6.38-2.58,10.34-2.58,18,0,5.77.18,7.49.93,8.94,2.12,4.09,9.81,10.59,11.69,9.87a1.59,1.59,0,0,1,1.55.4c.41.41,2.56.88,5,1.1,3.31.28,4.24.54,4,1.09-1.51,3.92-1.64,5.88-1.54,22.11l.11,16.83,1.22,1.14a12.31,12.31,0,0,0,2.53,1.74,28.78,28.78,0,0,1,4.74,4h0a46.62,46.62,0,0,0,3.7,3.49c.14,0,2.6-.53,5.46-1.26a92.37,92.37,0,0,1,10.3-1.89c2.81-.32,6.3-.73,7.76-.92l2.64-.35.33-4.49c.19-2.47.43-13.44.53-24.37l.2-19.88,6.09-.36a56.15,56.15,0,0,1,8.21,0c2.77.44,3.72-.5,2.79-2.73-.37-.9-.64-4.28-.65-8.22,0-5.62.12-6.87.88-7.71,1.51-1.67,1.09-3.11-1.6-5.52-7.15-6.41-12.39-11.88-12.66-13.22a4.07,4.07,0,0,0-1-2c-.76-.63-7.78-1.16-15.6-1.22Zm-203,1.34h.27c.8.12-.53,1-4.4,2.91a43.57,43.57,0,0,0-7,4.09,8.46,8.46,0,0,1-1.59,1.32,15.69,15.69,0,0,1-3.59-1.8c0-.46,3.93-2.23,7.67-3.45a52,52,0,0,0,5.72-2.21,8.14,8.14,0,0,1,2.9-.87Zm119.42.44c1.79,0,1.6.19-4.43,4.49l-6.29,4.5-3.44,0-3.43,0,2.1-1.8c2-1.72,9-5.92,8.51-5.11a39,39,0,0,1-4,3c-3.46,2.43-4.4,3.41-3.28,3.41a10,10,0,0,0,2.51-1.66c4.79-3.87,9.84-6.8,11.72-6.8Zm-143,.07a.31.31,0,0,1,.19,0c.28.28.3,3.79,0,6.44-.11,1.11-.86,2.11-2.69,3.58-1.4,1.12-4.86,4.06-7.69,6.52a61.38,61.38,0,0,1-5.47,4.48c-.18,0-.33-.79-.33-1.76,0-1.32.3-1.91,1.19-2.31a21.7,21.7,0,0,0,3.42-2.41,59,59,0,0,1,6.6-4.39c2.41-1.38,4.09-2.61,3.74-2.73-.92-.31-6.94,3.18-10.75,6.23a16.81,16.81,0,0,1-3.94,2.62c-.37,0-.77-.73-.9-1.62-.19-1.24,0-1.74.86-2.19.61-.32,3-1.94,5.33-3.61,4.51-3.24,8.17-5.27,9.49-5.27.45,0,.82-.24.82-.53,0-1.63-4.09.15-10.33,4.49-6.42,4.48-6.59,4.54-6.59,2.28,0-1.68.28-2,4.14-4.3s11.5-5.6,12.88-5.57Zm147.23.12a5.21,5.21,0,0,1,1.32.1l2.11.36L296,128.5a40.5,40.5,0,0,0-6.77,4.43c-1.44,1.33-2.66,2-3.66,2-.82,0-1.48-.18-1.46-.4a54.21,54.21,0,0,1,6.16-4.79c4.38-3.15,5.69-4,6.91-4.14ZM304,126c2.44,0,2.3.89-.37,2.34a60.07,60.07,0,0,0-6.12,4.06c-3.08,2.33-3.67,2.57-6.16,2.55l-2.74,0,1.95-1.72c2.27-2,12-7.22,13.44-7.21Zm-127.57.32a4.07,4.07,0,0,1,1.42.26c.9.32,1.63.75,1.63,1,0,.51-10.64,5.83-11.67,5.83a6.51,6.51,0,0,0-2.13.73c-1.38.71-3.11.31-3.11-.73,0-.68,6.53-4.48,10.4-6A10.65,10.65,0,0,1,176.42,126.27Zm68.86.3c.1.11-.59,1-2.06,2.69-1.85,2.12-3.52,3.55-4.14,3.55-.78,0-.27-.7,2-2.77,2.68-2.45,4.09-3.61,4.21-3.47Zm64.61.21a4.43,4.43,0,0,1,.51.06c2.52.41,2.11,2.36-.54,2.56a7.62,7.62,0,0,0-2.92,1.92c-1.08,1-2.64,2.36-3.48,3-1.53,1.15-2.93,1.31-5.85.68l-1.57-.33,2.09-1.64a66.48,66.48,0,0,1,6.32-4.06c3-1.68,4.24-2.22,5.44-2.18Zm79.32,1.12,1.36,1.62,1.37,1.62-1.47,1a65,65,0,0,1-11.77,5.68A29.43,29.43,0,0,0,374,140c-.92.72-11.63,1.5-11.63.84s11.54-6.3,17.7-8.82c4.76-1.94,6-2.64,5.48-3.14-.65-.65-16.53,6.59-23.63,10.77-2.43,1.44-3.25,1.64-6.71,1.64-2.16,0-3.94-.22-3.94-.49,0-.46,12.68-7.7,19.34-11,3.1-1.56,3.49-1.62,10.93-1.73Zm-19.93.27c.94,0,.79.2.17.7a34.47,34.47,0,0,1-4.22,2.47c-1.75.89-6.2,3.37-9.9,5.51-6.65,3.85-8.58,4.49-9.81,3.25s-.7-1.68,3.33-4.56c5.78-4.13,12.19-6.77,17.43-7.19,1.48-.11,2.44-.18,3-.18Zm-188.09.25a2.54,2.54,0,0,1,1.44.42c2.41,1.25,2.28,1.62-.94,2.62-1.66.51-5.12,1.74-7.69,2.73-4.63,1.77-7.41,2.23-8,1.32-.16-.26.95-.87,2.48-1.36a62.29,62.29,0,0,0,7.68-3.5C179.14,129.08,180.34,128.47,181.19,128.42Zm173.92.2,3.78,0-3.44,1.58a46.34,46.34,0,0,0-7.19,4.45,26.59,26.59,0,0,1-4.24,2.88c-.6,0-3.17-4.12-2.89-4.64a33,33,0,0,1,5.21-2.36c4.2-1.67,5.59-2,8.77-1.95Zm-20,.15c.22,0,.44.2.6.65a27.28,27.28,0,0,0,2.85,5.88l1.13,1.69-3.27,2.4c-3.66,2.7-4.47,2.94-4,1.22a11.19,11.19,0,0,0,.33-2.3c0-.78.63-1.39,2.12-2.06,1.16-.53,2.11-1.16,2.11-1.4,0-.62-.91-.57-2.19.12-.59.31-1.17.47-1.3.34-.33-.34.88-5.85,1.42-6.42a.38.38,0,0,1,.21-.12Zm10.13.14a5.42,5.42,0,0,1,1.2.05,11.33,11.33,0,0,1-2.79,1.47c-3.92,1.73-4.56,1.68-4.56-.3,0-.77.6-1,3.57-1.12,1,0,1.89-.09,2.58-.1Zm-29.84.2c.24,0,.43.78.43,1.73,0,1.56-.29,1.89-3.15,3.46a18.45,18.45,0,0,0-3.47,2.24,1.14,1.14,0,0,1-.84.5c-.3,0,1.07-1.78,3-4a26.66,26.66,0,0,1,4-4Zm-62,.33c.09,0,.14,0,.17,0a3.55,3.55,0,0,1,.42,2.06c0,1.7-.31,2-5.59,5.52-3.07,2-5.69,3.72-5.81,3.72a4.26,4.26,0,0,1-.22-1.88,4,4,0,0,1,1.45-3.24c1.91-1.8,8.37-5.93,9.58-6.18ZM309.07,131c.07.07-.47.73-1.69,2-1.59,1.66-3,3-3,3-.59,0,.12-1.09,1.57-2.42C307.88,131.75,309,130.86,309.07,131Zm84.13,1.23,1.5,1.68,1.5,1.68-3.74,1.79c-2,1-3.88,2.16-4,2.6-.25.67-1.43.8-6.72.77-5.08,0-6.15-.15-5.1-.6.73-.32,4.76-2.23,9-4.25Zm-208.47,1.5c.36,0,.55.14.55.43s-1.06,1.34-2.35,2.09a66.73,66.73,0,0,0-6.21,4.49c-2.12,1.71-4.75,3.87-5.84,4.79a9.72,9.72,0,0,1-2,1.51c0-.1-.11-1.08-.18-2.2-.12-2,0-2.1,3.63-4.53,6.14-4.13,10.88-6.6,12.44-6.58Zm130.84.19c.14,0,.24.8.24,1.78,0,1.64-.31,2-4.22,4.46l-4.23,2.69v-1.73a3.78,3.78,0,0,1,1.19-2.83c1.11-1,6.49-4.37,7-4.37ZM254,134.93c.95,0,.52,1.92-.68,3-3.16,2.8-10.34,8-10.63,7.74-.86-.86-.18-2.82,1.48-4.28C246.32,139.48,253.27,134.93,254,134.93Zm-15.08,1.32.15,5.54c.09,3.05.39,5.77.67,6.05,1,1,.46,1.23-1.74.72a40.74,40.74,0,0,0-8.85-.1c-3.64.23-7.44.44-8.46.46-3.75.1-3.82.27-3.82,9,0,9.65-.3,9.31,8.39,9.69a32.12,32.12,0,0,1,6.24.61,70.81,70.81,0,0,1,.34,7.17l.12,6.83-5-.13c-2.74-.07-6-.26-7.15-.42-1.82-.25-2.21-.14-2.43.7-.5,1.89.42,17.13,1.05,17.52a101.36,101.36,0,0,0,10.8,1.31c5.6.52,10.41,1.15,10.68,1.42.52.52.51,4.59,0,11-.36,4.3-.09,4.13-5.22,3.25-1.45-.24-7.39-.82-13.21-1.29-12.14-1-21.41-2.16-22.09-2.84-.27-.27-.24-1.64.08-3.3s.81-8.42,1.14-15.25.92-16.34,1.33-21.14,1-14.05,1.31-20.58c.62-13.09.77-14.14,2-14.51s17.94-1.3,26.51-1.48Zm158.3.13,2.6,2.43c2.5,2.34,2.77,3,1.08,2.62-.44-.1-3.29-.37-6.34-.6L389,140.4l4.1-2Zm-212.71.21c.55-.05.66.43.51,1.37s-.37,3.48-.55,6l-.32,4.5-5.21,2.79a84.31,84.31,0,0,0-8.5,5.19l-3.28,2.41.28-2.47c.36-3.17,1.44-4.29,10.09-10.44,3.75-2.67,6.56-4.94,6.23-5.05-.49-.16-8,5-13.94,9.44l-1.45,1.11,0-1.24c0-1.31,4.18-5.17,11.51-10.71,2.48-1.88,3.9-2.8,4.6-2.86Zm91.66.5c1.37,0,3.43.08,6.56.2,12,.49,20.69,1.13,21.41,1.57.35.22.58,2.28.58,5.3,0,3.46.2,5,.66,5.23s-.41.11-1.72-.09c-2.73-.42-17.75-.51-18.15-.1a58.62,58.62,0,0,0-.39,7.56c-.15,8.93-.32,8.73,7.58,9.25l5.41.36.15,6.34.15,6.34-6.12,0c-3.43,0-6.25.18-6.43.46-.38.61-.31,5.69.16,12.13l.34,4.63h9.44c7.19,0,9.45.16,9.48.66.08,1.7-.11,10.82-.25,11.76s-.57,1.06-3.54,1.07c-1.86,0-10.13.23-18.39.48l-15,.46.34-3.12c.19-1.72.7-9.18,1.13-16.6s1.14-17.63,1.58-22.72,1-13.79,1.32-19.34.68-10.5.87-11,.57-.76,2.84-.77Zm-101.93.11c.52,0,.06.5-1.5,1.53-3.62,2.39-4.37,2.68-4.37,1.73,0-.5,1.17-1.37,2.94-2.18a11.93,11.93,0,0,1,2.93-1.08Zm166.16,1.15a.21.21,0,0,1,.15,0c.2.22.07.51-.29.64-.94.33-.82,1.2.16,1.2.62,0,.74.3.46,1.19-.44,1.4-.15,1.15-4.4,4a23.71,23.71,0,0,1-3.84,2.24c-.24,0-.44-1-.44-2.29,0-2.27,0-2.3,4-4.81a16.66,16.66,0,0,1,4.21-2.16Zm-24.41.36c.31,0,.35.33.35.91s-1.21,1.89-3,3.25c-1.67,1.24-3.69,2.85-4.49,3.59l-1.45,1.35v-1.59c0-1.84,1.55-3.49,5.61-5.95,1.78-1.08,2.62-1.57,3-1.56Zm25.53,4.67a4.54,4.54,0,0,1,.19,1.84h0c0,1.72-.29,2-4.76,5l-4.75,3.2v-2.36c0-1.81.22-2.42.95-2.66a35.19,35.19,0,0,0,4.57-2.67c2-1.31,3.7-2.38,3.8-2.38Zm31.19.83c15.93,0,28.17.26,29.25.56l1.85.51-.27,2.88c-.14,1.59-.22,5.05-.17,7.7l.09,4.81-7.73.38c-4.25.2-7.9.47-8.1.6s-.4,4.92-.44,10.66c-.09,13.3-.92,37.66-1.29,38a29,29,0,0,1-5.19.77c-2.7.27-7.21,1-10,1.52s-5.38,1-5.73,1-.58-1.72-.49-6.21c.2-10.17,2.62-38.86,3.44-41,.51-1.31-.93-1.63-6.7-1.46-7.18.21-15.62-.84-16.1-2-.64-1.56-.94-17.42-.35-18.13.44-.53,6.39-.67,27.95-.64ZM341,149.58c.37.08.46.8.27,2.2a11.6,11.6,0,0,1-2.93,2.38,34.93,34.93,0,0,1-3.59,2.18,1.83,1.83,0,0,1-2-1.41c0-.44,7.11-5.16,8.07-5.35a.37.37,0,0,1,.18,0ZM183.65,150a.27.27,0,0,1,.22.08,34,34,0,0,1-.11,5.37l-.33,5-3.17,1.63a68.71,68.71,0,0,0-11,7.28,13.1,13.1,0,0,1-3.07,2c-.32,0-.37-1-.14-2.51a5.68,5.68,0,0,1,1.75-3.71c1.27-1.12,10.74-7.58,13-8.88.63-.36.78-.69.41-.92-.56-.35-8.4,4.5-12.44,7.68l-2,1.56v-1.79c0-1.37.45-2.23,2-3.69,3.17-3,13.2-9.1,14.88-9.09Zm46.5.7c.37,0,.58.15.58.46s-2.61,2.66-7.45,6.32a21.7,21.7,0,0,1-3.3,2.24c-.84,0-.24-2.56.84-3.55C224,153.26,228.57,150.72,230.15,150.74Zm66.5,0c.9-.05.94.64-.52,1.95-.65.59-2.8,2.31-4.76,3.81-3.44,2.63-3.56,2.68-3.56,1.4,0-1.43,1.67-3.17,5.44-5.67a8.07,8.07,0,0,1,3.4-1.49Zm-5.76.56,1.41,0-1.83,1.57c-2.22,1.89-2.66,1.94-2.66.29,0-1.37.88-1.91,3.08-1.88Zm-67.16.35c.41,0,.66,0,.66.12a6.86,6.86,0,0,1-1.72,1.65c-3,2.36-3.13,2.38-2.94.42.16-1.65.32-1.79,2.41-2.07A13.12,13.12,0,0,1,223.73,151.68Zm73.59,1.68v1.35c0,1.42-2.49,3.59-6.45,5.63-2.23,1.14-2.54,1.21-2.54.52s3-3.23,6.55-5.75Zm43.82.59c.36,0,.57,1.65.57,4.49a28.17,28.17,0,0,1-.18,4.49,17.63,17.63,0,0,1-2.25-1.51c-2.64-1.94-4.82-4.3-4-4.3a10.08,10.08,0,0,0,3-1.58,10.86,10.86,0,0,1,2.87-1.59ZM230.2,154c.29,0,.39.19.45.58.23,1.43-2.18,3.72-6.72,6.38-3.57,2.09-3.77,2.17-3.77,1.46,0-.9,1.88-2.7,6.08-5.83,2.42-1.8,3.47-2.54,4-2.59Zm72.33,4c.09,0,.15,0,.18.05.31.3-.81,1.22-2.95,2.42A20.54,20.54,0,0,0,296,163c-.41.65-1.84.67-1.84,0s7.05-4.87,8.38-4.94Zm-65.73.15c1.64,0,.67.88-3.94,3.57-4.15,2.43-6.36,3.31-6.36,2.54C226.5,163.83,236,158.18,236.8,158.18Zm69.38,0c.73,0-3,2.82-6.12,4.62-1.13.65-3.2.94-2.62.37.93-.93,8-5,8.74-5Zm-64.72,0c.25,0,.37.16.37.43,0,.5-5.72,4.18-8.12,5.23-1.54.67-3,.87-3,.41a8.32,8.32,0,0,1,2.25-1.39c1.23-.63,3.46-1.94,4.94-2.92,1.85-1.22,3-1.8,3.54-1.76Zm68,2.09c.31,0,.48.74.39,1.66-.13,1.38-.92,2.25-4.52,5.07l-4.36,3.4v-1.8c0-1.63.35-2,4-4.56,2.18-1.52,4-3,4-3.27A.54.54,0,0,1,309.51,160.29Zm-64.16.52c.38,0,.71.68.71,1.82,0,1.63-.37,2.07-3.83,4.58-2.11,1.52-4.61,3.35-5.55,4.07L235,172.57v-2.06c0-2,.11-2.13,4.71-5.11,2.59-1.68,4.84-3.4,5-3.82S245.12,160.81,245.35,160.81Zm-62.45,1,.16,4.87a36.68,36.68,0,0,1-.09,5.5c-.14.35-2.82,2-6,3.68s-7.06,3.84-8.7,4.82a21.37,21.37,0,0,1-3.35,1.78c-.84,0,.41-4.54,1.49-5.42a104,104,0,0,1,12.1-7.07c3-1.44,4.19-2.75,1.87-2a128.7,128.7,0,0,0-13.26,7.22c-1.76,1.25-2.35.91-1.53-.88s9.64-8.51,13.95-10.75Zm-64.82.83.57,1.49a8.22,8.22,0,0,1,.57,2.23c0,.41-.71,1.11-1.58,1.56-1.87,1-1.9.82-.58-2.64Zm191.69,2.51c.19,0,.23.25.23.6s-2,2.72-4.36,5.05c-5.21,5-4.76,5.73.54.82a36.35,36.35,0,0,1,4-3.43c.18,0,.32.58.32,1.28,0,1-1,2.08-3.83,4.4-5.74,4.66-5.68,4.66-5.68.41V171.6l4-3.14c3.15-2.47,4.32-3.35,4.75-3.28Zm-64.15,1.24c.38,0,.43.28.42.86,0,.86-1.43,2.39-5,5.41-4.59,3.86-5.68,5.05-4.61,5a38.59,38.59,0,0,0,4.71-3.7,32.26,32.26,0,0,1,4.83-3.7c.28,0,.63.46.78,1,.31,1.18-.94,2.45-5.95,6.1-5.17,3.76-5.19,3.76-5.57,1.7-.79-4.18-.33-5.07,4.5-8.71,3.73-2.81,5.28-3.94,5.91-4Zm-126.26,1.9c.32,0,.37.45.53,1.27.23,1.2,0,1.51-1.92,2.37a11.35,11.35,0,0,1-3.1,1c-1.56,0,0-2.57,2.32-3.73,1.25-.63,1.84-.95,2.17-.91Zm238.19.09a7.32,7.32,0,0,1,1.17.18l1.94.42-3.13,1.7c-3.4,1.85-4.16,1.39-1.95-1.16.66-.76,1.05-1.09,1.67-1.14Zm5.95.53c.36,0,.41.41.41,1,0,2.58-1,3.83-5.21,6.7-3.92,2.66-5,3.69-3.88,3.69a23.92,23.92,0,0,0,3.83-2.27c1.88-1.25,3.7-2.45,4.07-2.67s.66.08.66,1.31-.5,2.17-2.32,3.86a56.8,56.8,0,0,1-4.7,3.86L354,186.17l-.19-2.08a54.58,54.58,0,0,1,0-6.05l.2-4,4-2.36c3.14-1.84,4.61-2.67,5.3-2.76Zm-243.6,3.51c.27,0,.38.11.38.32,0,.4,0,.88,0,1.07a17.43,17.43,0,0,1-3.78,2.43l-3.82,2.11.35-1.74a9.72,9.72,0,0,1,.48-1.85c.07-.06,1.61-.7,3.43-1.43a10.31,10.31,0,0,1,2.92-.91Zm62.46,2.11a5.2,5.2,0,0,1,.28,2.37v2.38l-5.15,2.4c-5.84,2.71-11.76,6.51-11.76,7.54,0,.39,1.08-.14,2.51-1.24,2.79-2.14,13.11-7.32,13.77-6.91.23.15.29,1.37.13,2.72l-.29,2.47-5.55,2.48c-5.45,2.44-11.17,5.76-11.87,6.89-.6,1-1.35.62-1.31-.62,0-.66.33-3.27.69-5.81.73-5.15.61-5,6.15-8.27,3.42-2,11.88-6.4,12.4-6.4Zm-62,1.1a.17.17,0,0,1,.11,0,3.65,3.65,0,0,1,.42,1.47c.12,1-.34,1.39-3.29,2.51a21.43,21.43,0,0,0-3.94,1.8,1.65,1.65,0,0,1-.92.51c-.68,0-.49-1.94.23-2.5a37.5,37.5,0,0,1,7.39-3.8Zm21.5.75,0,1.71c0,1.47-.28,1.85-2.1,2.78-1.16.59-2.11.9-2.11.67a13.59,13.59,0,0,1,2.09-2.78Zm-20.56,3v1.09c0,.78-.24,1-.86.75a1.67,1.67,0,0,0-1.5.2c-1.17,1-6.58,3.16-6.83,2.76-.39-.63,2.88-2.63,6.16-3.76Zm322.82.41a11.7,11.7,0,0,0,.35,1.15,13.75,13.75,0,0,0,1,2.27C445.06,182.06,444.62,180.92,444.16,179.78ZM362.64,181c.27,0,.24.68,0,2.52-.21,1.63-.71,3.09-1.14,3.33a44.11,44.11,0,0,0-3.74,3,18.55,18.55,0,0,1-3.44,2.62c-.24,0-.44-1.05-.44-2.32,0-2.42.38-2.83,8.4-9a.75.75,0,0,1,.37-.19Zm-221.46.51c.22,0,.24.32.15.92-.13.88-1,1.53-3.57,2.59-1.86.78-3.49,1.71-3.61,2.09s.88.18,2.79-.66c3.53-1.56,4.73-1.7,4.27-.5a4.63,4.63,0,0,0-.32,1.23c0,.41-2.17,1.17-6.24,2.18-1.26.31-2.62.7-3,.86-1.37.52-.81-.61,1.86-3.77a14.77,14.77,0,0,1,4.36-3.74c1-.34,2.18-.81,2.71-1a1.47,1.47,0,0,1,.64-.16Zm149,.43c2.24,0,2.31.42.37,2.28s-2.22,1.79-2.22-.43c0-1.76.09-1.85,1.85-1.85Zm4.6.09H295c1.12.15.89.51-2.43,3.92-2,2.06-3.8,3.63-3.95,3.48-1.24-1.24,3.89-7.28,6.17-7.41Zm1,2c.22.06.47.65.74,1.76s.18,1.47-1.14,1.79a9.85,9.85,0,0,0-3.24,1.88c-2.72,2.36-2.57,1.78.47-1.8,1.54-1.82,2.87-3.4,3-3.52s.13-.14.21-.11Zm-73.51,1.12c2.57,0,2.66.58.34,2.35a9.32,9.32,0,0,1-2.11,1.35c-.19,0-.35-.83-.35-1.85,0-1.81.05-1.85,2.12-1.85Zm5.49.09c1.35.17,1.23.36-2.76,4.32s-4.19,4.08-4.43,2.81C220.21,190.41,225.7,185,227.77,185.22Zm-46.62,2.55c.6,0,.67.71.35,3.83-.21,2.11-.4,4.38-.41,5a1.94,1.94,0,0,1-1.23,1.69l-8.11,3.42a61.48,61.48,0,0,1-7.79,2.93.84.84,0,0,0-.87.8c0,.43.11.79.25.79s3.57-1.42,7.63-3.15,8-3.32,8.8-3.51c1.41-.36,1.43-.34,1,1.69a7.43,7.43,0,0,1-.8,2.5c-.53.55-11.18,2.43-13.86,2.45a3.64,3.64,0,0,0-2.28.55c-.77,1.24-1.85.49-1.85-1.28,0-2.6,2.54-4.51,14.24-10.73,2.16-1.15,4-2.38,4.15-2.74.26-.78-7.45,3.06-13.53,6.74l-4.39,2.66.16-1.66c.13-1.3.8-2.15,3.07-3.91,2.93-2.26,14-8.11,15.42-8.11Zm181,.29c.22.05.16.48.15,1.12,0,2.16-.55,3.88-1.23,3.88-.32,0-2,1.45-3.83,3.22L354,199.5l-.26-1.77c-.37-2.49,0-3.19,3.24-5.8,3.62-2.93,4.8-3.94,5.18-3.87Zm-133.36,0a.44.44,0,0,1,.38.25c.88,1.35.34,2.87-1.09,3.07a5.42,5.42,0,0,0-2.38,1.08c-3.87,3.31-3.85,2.45,0-1.77,1.76-1.91,2.57-2.65,3-2.63Zm74.34.23c.75,0,.64.25-1.33,3-1.19,1.67-1.95,2.23-3,2.25-.8,0-1.45-.16-1.45-.38,0-.59,5.12-4.89,5.82-4.89Zm6.37,0c.85,0,1.53.18,1.51.4a14.63,14.63,0,0,1-2.66,2.64c-2.44,2.09-4.17,2.84-4.17,1.81a11.27,11.27,0,0,1,1.89-2.64c1.42-1.66,2.28-2.21,3.43-2.21Zm-3.87.42c.29.08-.2,1.11-1.58,2.78-1.64,2-2.52,2.56-2.51,1.69a13.37,13.37,0,0,1,2.09-2.77c1.09-1.25,1.78-1.77,2-1.7Zm-6.53.62c.61,0-.11,1-2.45,2.7-2,1.47-4.1,2-4.1,1.13a9.84,9.84,0,0,1,2.8-2.11C297.34,189.86,298.63,189.32,299.11,189.34Zm15.91.3.16,2.53c.15,2.3,0,2.76-1.81,4.75a14.26,14.26,0,0,1-2.54,2.42,7.32,7.32,0,0,0-1.78,1.58l-1.21,1.39.34-1.33c.45-1.74,4.37-8.67,5.75-10.17Zm-77.9,3a.81.81,0,0,1,.57.26c.46.47.11,1.18-1.46,3-1.72,1.95-2.39,2.35-4,2.39-1.09,0-2-.13-2-.34a7.24,7.24,0,0,1,2-1.84c1.08-.79,2.62-2,3.42-2.61a2.94,2.94,0,0,1,1.5-.83Zm73.87,0s.05,0,.05.11a4,4,0,0,1-.79,1.53c-.43.56-.77.8-.76.53a4.16,4.16,0,0,1,.79-1.53c.32-.42.59-.66.71-.64Zm-70,.5a.17.17,0,0,1,.15,0c.21.21-.82,1.59-2.3,3.07s-2.82,2.45-3,2.18c-.37-.59,4.15-5.14,5.14-5.28Zm-8.36.38c1.19,0,.54.74-2.24,2.59-2.27,1.5-5.46,2.21-5.46,1.22C224.92,196.87,231.55,193.59,232.62,193.59Zm12.24.06.72,0,2.33.17-3.6,2.51c-3.27,2.29-5.65,3.17-5.65,2.09a12.16,12.16,0,0,1,2.3-2.67c1.84-1.81,2.37-2.17,3.9-2.13Zm116.61.46c.25,0,.35,1.44.22,3.19-.22,3-.37,3.33-3.09,6.08-3.79,3.84-4.73,3.85-4.73,0,0-2,.31-2.48,3.58-5.72a26.14,26.14,0,0,1,4-3.56Zm-108.7,1.8a.2.2,0,0,1,.13,0,4.19,4.19,0,0,1,.56,2.57c0,2-.3,2.52-3.07,5.27-1.69,1.67-3.24,2.87-3.45,2.66s-1.1.44-2,1.44l-1.61,1.82.32-1.51c.66-3.1,7.6-12.38,9.1-12.29Zm62.56.32c1,0,.44,1.26-1.5,3.57-1.09,1.3-2.39,2.87-2.89,3.49-.75.93-.92,1-.93.26,0-1,4.58-7.32,5.32-7.32Zm-68.11,2.61a.09.09,0,0,1,.07,0c.14.15-.19.83-.75,1.51s-1,1-1,.76c0-.66,1.27-2.35,1.69-2.3Zm68.27,1.08c.13,0,.21.08.25.26.11.61-1,2.11-3,4.18-1.78,1.77-3.23,3-3.23,2.8a29,29,0,0,1,3-4.18c1.7-2.1,2.59-3,3-3.06Zm25.55.66c-5.08,0-13.31,9.24-20.16,23-3.67,7.39-7.71,18.6-7.71,21.42,0,1.4-.74,1.42-3.46.08-7.56-3.7-15.15-1.41-24.54,7.41a93.92,93.92,0,0,1-19.56,13.13c-3.75,1.78-5.06,2.13-7.93,2.17l-3.43,0-.16-1.61c-.09-1,.59-3.36,1.72-6,3-7,2.38-11.35-2-13.6-3.12-1.61-8.16,0-14.93,4.82a35,35,0,0,0-4.22,3.43,9.33,9.33,0,0,1-2.11,1.71c-1,.54-1,.53,0-.7,8.84-10.18,9.18-10.79,7-12.33a4.79,4.79,0,0,0-1.6-.83c-.87,0-5.37,4.61-7.36,7.53-1.13,1.68-2.28,3-2.56,3s-4.12,2.28-8.56,5.06c-10.73,6.73-16.79,9.71-20.53,10.09-5.92.61-6.12-2.36-.92-13.17,3.72-7.73,4.29-11,2.17-12.38-1.11-.75-1.25-.64-3.65,3-1.38,2.06-2.64,3.69-2.81,3.6s-1.61-.85-3.21-1.71a11.2,11.2,0,0,0-6.41-1.58c-3.11,0-4,.24-8.13,2.33-8.66,4.39-16.64,13.48-16.64,19,0,3.07.42,3.81,2.85,4.91,2.74,1.24,4.2,1.25,8.16,0,5.17-1.61,11.77-5.72,19.94-12.41l1.61-1.32-.51,2.48c-1,4.92,1,9.29,4.78,10.62,2.08.72,2.44.68,7.57-1a118.12,118.12,0,0,0,13-5.59c6.57-3.29,7.61-3.67,7.32-2.7a30.92,30.92,0,0,0-.63,3.78c-.25,2.11-.11,2.89.68,3.86,1.28,1.58,2.21,1.19,4-1.67,3.53-5.58,16.49-16.33,21.49-17.83,2.49-.75,4.48-.46,4.7.68.09.49-.8,3.29-2,6.22-3,7.48-2.81,11,.74,13.22,4.69,2.9,12,1.2,21.82-5.07l2.77-1.77V267c0,3.69.82,4.67,4.3,5.15,6.14.84,16.74-4.41,25.75-12.76l3.11-2.87.25,3.82c.56,8.59,5.42,12.66,13.13,11,8.28-1.77,26.39-12.64,26.39-15.84a2.23,2.23,0,0,0-2.17-2.17c-.5,0-3.12,1.68-5.84,3.72-5.35,4-14.32,8.88-18.9,10.23-3.45,1-6.38,1.09-7.61.19s-1.95-5.84-1.39-10.22c.26-2,.48-3.93.49-4.27s2.27-3.25,5-6.48c14.17-16.6,24.54-32.59,25.37-39.14a6.15,6.15,0,0,0-3.16-6.44,3.49,3.49,0,0,0-1.47-.31Zm-88,2.52c1.29,0,0,2.29-2.9,5.17-3.22,3.18-4.08,3.78-4.08,2.83s6.1-8,7-8Zm107.9.13a.18.18,0,0,1,.13,0c.25.16.38,2,.28,4S361,211,360.82,211a13.11,13.11,0,0,1-2.44-1.86l-2.09-1.85,2.17-2.16a8.09,8.09,0,0,1,2.48-1.9Zm-52.1.93c.07,0,.09.17.09.52a3.53,3.53,0,0,1-.51,1.59c-.46.7-.52.7-.52,0a3.43,3.43,0,0,1,.52-1.59c.22-.35.35-.52.42-.52Zm32.8.52c.86,0-.39,3.62-3,8.64a132,132,0,0,1-13.91,20.74c-2.58,3.23-5.09,6.21-5.58,6.61-.79.66-.83.6-.47-.58,1.67-5.5,8-18.72,11.74-24.5s9-10.91,11.19-10.91Zm-88.21,3a.26.26,0,0,1,.19.08c.68.68-.77,2.33-4.69,5.35-2.46,1.9-3.4,2.43-3.4,1.91a54.85,54.85,0,0,1,3.77-4c2.31-2.35,3.59-3.38,4.13-3.34Zm-9.29,4.57c.19,0,.33.33.33.78a1.81,1.81,0,0,1-.53,1.38c-.29.18-.53-.15-.53-.73a1.81,1.81,0,0,1,.53-1.38l.11,0ZM304,247.59a16.12,16.12,0,0,1,6.21,1.06l1.47.77-4.07,3.79c-5.81,5.43-11.73,9.75-16.76,12.24a26.22,26.22,0,0,1-7.18,2.48l-2.81.33.83-2c3.39-8.13,11.86-16.52,18.49-18.31a14.7,14.7,0,0,1,3.82-.37Zm-118.3,2.54c2.43,0,5.92,1.21,5.92,2.05s-7.53,7.41-12.06,10.56a69.33,69.33,0,0,1-7.94,4.71c-3.81,1.84-8.64,2.82-9.22,1.88s1.7-4.85,5-8.33c5.54-5.92,13.88-10.87,18.34-10.87Zm99.35,37.31c-3.69,0-8.61,0-15.07.14-4.86.07-4.88.08-5.21,1.53-.18.8-1.15,4.07-2.15,7.26s-4.41,15.57-7.58,27.49S248.43,348,247.4,351a30.2,30.2,0,0,0-1.87,8.25c0,2.48.32,3.21,3.66,8.26a49.57,49.57,0,0,0,5.65,7.29l2,1.75,6.63-.39c3.65-.22,9.31-.35,12.57-.3,6.92.11,6.14.83,8.13-7.58.78-3.29,1.45-5.09,1.91-5.09a1.22,1.22,0,0,1,1,.92c1.26,4.28,8.25,14.87,10.88,16.47a17,17,0,0,0,5.47,1,22.88,22.88,0,0,1,4.49.5,54.57,54.57,0,0,0,7.4.05c7.8-.25,10.41-1,12.55-3.43A6.55,6.55,0,0,0,329,377c0-.87-2.44-9-4.74-15.9-1.42-4.21-3.8-11.94-5.29-17.17s-3.67-12.84-4.84-16.91-3.54-10.77-5.26-14.89a66.12,66.12,0,0,1-3.13-8.44,3.58,3.58,0,0,0-1.08-2,41.05,41.05,0,0,1-3.75-5.83c-3-5.26-4.29-6.93-6.26-7.86-.77-.36-3.49-.53-9.63-.55Zm66.09.57a7,7,0,0,0-2.56.62,44.67,44.67,0,0,1-7.13,1.48,61.26,61.26,0,0,0-8.62,1.83,12.07,12.07,0,0,1-4.56.79c-1.36-.34-6.11,2-6.11,3a4,4,0,0,0,1.08,1.74c1.28,1.37,5.48,10.84,6,13.51.33,1.77,1.51,3.71,8,13.15a71.88,71.88,0,0,1,5.24,9.78c1.39,3.19,3,6.61,3.57,7.59.95,1.63,1,1.87.21,2.71-1.24,1.36-1.75,3.64-2.66,11.85-.45,4.09-1,8.27-1.29,9.29-1.07,4.22-1.16,7.17-.3,9.33a7.76,7.76,0,0,1,.7,2.87c-.09.41.36.8,1,.9s2.21,1.36,3.44,2.79c1.75,2,2.59,2.61,3.83,2.61.87,0,5.37.48,10,1.06S370.52,386,371.9,386s2.66.24,2.84.53c.46.75,2.37.65,2.64-.13a14.32,14.32,0,0,0-.15-3.57,48.57,48.57,0,0,1,0-7.93c.55-7,2.46-20.24,2.95-20.59,4.32-3,18.75-18.47,25.36-27.2,2.22-2.92,5.31-6.83,6.88-8.67l2.84-3.36L414,312.57c-1.74-3.24-4.74-13.07-4.35-14.29a1.69,1.69,0,0,0-2.27-1.93c-1.38.43-4.54-.3-15-3.51-5.75-1.75-9.06-2.52-9.39-2.19a64.81,64.81,0,0,0-3.14,7.87c-1.45,4.05-3.46,9-4.48,11.07-2.16,4.32-9.81,15.06-10.58,14.86s-3.83-11.12-4.57-15.9a16.25,16.25,0,0,0-1.47-5,19.11,19.11,0,0,1-1.61-3.17c-.4-1-1.52-3.45-2.48-5.41a16.83,16.83,0,0,1-1.76-5.11c0-1.19-.57-1.8-1.67-1.81Zm-222.24.2c-9.79,0-10.42.54-21.3,6.1-10.1,5.15-12.1,6.41-12.46,7.84-.18.7.28,3.61,1,6.47a93.31,93.31,0,0,1,1.92,9.95c.31,2.62,1.38,9.16,2.37,14.53s2.3,13,2.91,16.91c1.25,8.05,5.72,34,6.17,35.81.16.65.38,1.19.48,1.19,2,0,12.79-1.93,16.35-2.92,2.61-.72,5.19-1.43,5.73-1.56,1.26-.31,2.45-1.3,2.47-2.06,0-1,7-6.15,8.24-6.15,1.66,0,2.68-1.41,1.91-2.64a31.06,31.06,0,0,1-1.44-6.16c-.46-2.86-1.31-7-1.89-9.31-2.06-8-3.25-19.3-2.2-20.73a27,27,0,0,1,3.45-2.59c3.25-2.19,7.34-6.4,8.62-8.87a2.44,2.44,0,0,1,1.84-1.49c1.35,0,5.85-4.56,8.42-8.54a27,27,0,0,0,2.86-6.28c1.63-5.81.6-8.56-5.74-15.37L155.5,289l-4.53-.35c-2.49-.2-10.26-.38-17.26-.4l-4.81,0Zm64.27,1.56a9.06,9.06,0,0,0-2.47,1.77,54.06,54.06,0,0,1-12.88,7.5c-1.79.59-2.56,1.16-2.79,2-.43,1.72.43,9.79,2,18.8.74,4.22,1.59,10.28,1.91,13.48.83,8.56,3.57,32.19,4.23,36.46a28.27,28.27,0,0,0,1.85,6.42l1.29,2.72,2-.44c2.64-.59,6.36.18,10.07,2.09a19.12,19.12,0,0,0,3.75,1.61c.39,0,2.65-1.39,5-3.11a59.1,59.1,0,0,1,17.56-8.76c5.33-1.61,8.27-2.81,8.77-3.59a82.84,82.84,0,0,0,.67-9.83c.18-5.12.45-10.38.59-11.7l.25-2.4-2.85-1.73a22.47,22.47,0,0,0-7.1-2.57c-3.92-.77-4.44-.76-7,.07a12,12,0,0,1-2.9.73c-.26-.26-1.76-18.23-2.44-29.32-.54-8.76-.75-10.16-1.52-10.37a2.62,2.62,0,0,0-1.7.22c-.53.29-2.3-.2-5.23-1.46-6-2.57-8.46-4.31-9.62-6.67-.53-1.08-1.19-2-1.45-2Zm88.86.51h.4c1.14.08-.35.87-5.07,2.13a18.89,18.89,0,0,0-4.65,1.65,2,2,0,0,1-2.63-.1c-.55-.89,0-1.16,5.19-2.43a42.77,42.77,0,0,1,6.76-1.25Zm8.21,0c2.75,0,3.13.15,5,2.05,2.22,2.22,2.57,3.23,1.12,3.24a32.09,32.09,0,0,0-5.65,2.11,25.4,25.4,0,0,1-5.55,2c-.45,0-2.6-.23-4.78-.4l-4-.3,3.17-1.49c3.62-1.69,10.68-3.52,13.61-3.52,1.14,0,2-.26,2-.61,0-1-6.72-.18-11.16,1.32a81,81,0,0,0-9.52,3.91c-.19.1-.86-.53-1.48-1.41l-1.14-1.6,2-.83c1.1-.46,4.14-1.43,6.76-2.14a45.16,45.16,0,0,0,5.68-1.82,11.29,11.29,0,0,1,3.89-.52Zm-19.32,0c1.33,0,2.62.15,2.62.45s-.75.61-1.65.79c-3,.6-4.52.28-3.86-.8C268.22,290.45,269.59,290.3,270.92,290.31Zm-132.72.56c2.29,0,2.07.71-.66,2.31-2.19,1.29-7.25,1.95-7.2.95s4.15-3,6.72-3.19c.43,0,.81-.06,1.14-.07Zm6.43.35a18.12,18.12,0,0,1,1.93.24c2.88.45,3.75.75,3.27,1.12-.12.1-1.47.93-3,1.85-3,1.83-3.59,1.91-6.73,1l-2.12-.65,2.78-1.87c1.69-1.14,2.39-1.59,3.39-1.65a3.84,3.84,0,0,1,.48,0Zm-16,.13a5.64,5.64,0,0,1,2.27.24,10,10,0,0,1-2.29,1.59,9.61,9.61,0,0,1-4.1,1.32l-1.8,0,1.83-1.56a5.36,5.36,0,0,1,4.09-1.57Zm-6.07,0c1.47-.09.81.69-1.89,2.2-2.19,1.23-9.63,2.56-8.51,1.52.81-.74,7.6-3.3,9.64-3.63a6.65,6.65,0,0,1,.76-.09Zm226,.7a2,2,0,0,1,.35,0c.66.09,1.13.79,2.28,2.9a30.36,30.36,0,0,1,1.72,3.43,56.06,56.06,0,0,1-6,4.17c-5.33,3.48-10.16,5.59-10.94,4.79-.49-.51,3.27-3.3,8.8-6.53,5.19-3,6.73-4.22,5.43-4.22-1,0-12.17,7-13.94,8.72a15.58,15.58,0,0,0-2.17,2.58c-.48.87-.61.89-1.22.16s-.33-1.13,1.6-2.9a59.13,59.13,0,0,1,9.15-7.12c4.86-3.19,6.4-4.46,6-4.9-.2-.2-1.27.33-2.37,1.18s-3.29,2.35-4.86,3.34a73.07,73.07,0,0,0-6.52,4.86,25.47,25.47,0,0,1-4.14,3.06c-.41,0-2.07-2.71-2.07-3.39a16.53,16.53,0,0,1,3-2.22c1.67-1.06,4.45-3,6.16-4.33a12.48,12.48,0,0,1,5.55-2.79c1.34-.21,3-.53,3.75-.71a3.68,3.68,0,0,1,.41-.08Zm-195.8,1.11a3.24,3.24,0,0,1,1.41.51,5.41,5.41,0,0,1,1.62,1.06,21.76,21.76,0,0,1-3.21,2.37,25.25,25.25,0,0,1-3.57,2.13A7.66,7.66,0,0,1,147,298l-1.54-1.24,3.5-2c2.12-1.19,3-1.65,3.7-1.63Zm186.24.33c.25,0,.17.15.17.37s-2.12,1.9-4.71,3.7-4.85,3.26-5,3.26a6.19,6.19,0,0,1-1.31-2l-1-2,5.88-1.73a54.51,54.51,0,0,1,6-1.65Zm-72.28,1c.57,0,2.69,2.36,2.69,3,0,.3-.92.82-2,1.16a20.18,20.18,0,0,1-2.35.61c-.17,0,.06-1.07.51-2.38a5.5,5.5,0,0,1,1.19-2.38Zm121,.53c1.13,0,7.52,2.18,7.52,2.56,0,.22-1.25.87-2.76,1.43s-2.95,1.11-3.17,1.21-.65-.45-.94-1.21c-1-2.5-1.19-4-.65-4Zm-194.81.39c.31,0,.45.23.45.6,0,.22-.79.78-1.74,1.23a44.48,44.48,0,0,0-5.32,3.54,23.47,23.47,0,0,1-3.93,2.63l-1.56-.31c-1.69-.32-1.48-.89.6-1.64a52.63,52.63,0,0,0,6.39-3.54C190.51,296.16,192.06,295.37,192.76,295.44Zm-35.52.94a2.34,2.34,0,0,1,1.4.83,3.93,3.93,0,0,1,1.25,1.77,12.85,12.85,0,0,1-3,2.94c-1.64,1.31-3.13,2.45-3.32,2.53s-1-.8-1.74-2l-1.39-2.11,2.24-1.53C155.3,297.05,156.42,296.34,157.24,296.38Zm140.27,0a1.07,1.07,0,0,1,.47.07,6.71,6.71,0,0,1,1.21,1.79l.8,1.55h-3.68c-2,0-3.83-.23-4-.51s-.72-.36-1.22-.19c-.81.29-.82.23-.11-.53s5-2.12,6.53-2.17Zm86.49.77c.43,0,1.31,3.1,1,3.4a7.31,7.31,0,0,1-1.45.55c-1.06.33-1.21.25-.92-.51a21.3,21.3,0,0,0,.66-2.17c.18-.7.52-1.27.75-1.27Zm-188.89,0c1.59,0,2.95,1.27,2.2,2a2,2,0,0,1-1,.62,39,39,0,0,0-4.71,2.38c-4.57,2.53-5,2.66-6.29,1.83-.66-.45-.54-.75.79-1.87,2.3-1.93,7.86-5,9-5Zm-64.77.51c9.18,0,15.13,2.12,18.56,6.62,5.75,7.52,3.28,16.78-6.69,25.08-4.61,3.84-11.87,6.88-16.43,6.88a3.36,3.36,0,0,0-2.2.66c-.68.87.63,9.39,4.31,28,1.56,7.92,2.75,14.55,2.63,14.74a34,34,0,0,1-5.88,1.7c-6.74,1.59-10.73,2.12-11.6,1.53a7.28,7.28,0,0,1-1.22-3.06c-1.11-4.94-10.49-61.28-10.86-65.25A33,33,0,0,0,99.63,308c-1.69-4.69-1.61-5.12,1.15-6.15,5.68-2.12,20.14-4.16,29.56-4.16Zm267.77.75a5.38,5.38,0,0,1,1.1.15c2,.46,3,1.75,1.4,1.75a25.52,25.52,0,0,0-5,1.85c-4.56,2.06-4.81,2.11-5.7,1.21-1.23-1.22-.6-1.87,3.4-3.55,2.49-1.05,3.7-1.44,4.8-1.41Zm-127.93.68c1.37-.05,1.46.61.14,1.92a14.67,14.67,0,0,1-3,2.13c-1.86.95-3.85,1.15-3.85.37,0-2,1.11-3.07,4-3.9a11.46,11.46,0,0,1,2.65-.52Zm-71.67.25c1.31,0,5.76,2.05,5.78,2.85,0,.58-6,2.9-7.38,2.86-.44,0,.45-.63,2-1.37s2.77-1.56,2.77-1.83-.13-.49-.3-.49a65.75,65.75,0,0,0-8.39,4.27,2.49,2.49,0,0,1-3.13-.19c-.82-.6-.42-.93,3.58-3,2.47-1.27,4.61-2.61,4.75-3,0-.1.16-.14.34-.15Zm206.8.63.17,0c1.64.63.42,1.85-3.92,3.91-4.68,2.22-7,2.87-8.72,2.39s-.94-1.49,2.11-2.77c5.61-2.35,9.35-3.63,10.36-3.56Zm-51.95.19a.05.05,0,0,1,.05,0,5.31,5.31,0,0,1,.73,1.81c.39,1.57.67,1.41-4.77,2.55-1.45.3-3.06.68-3.56.83q-2.82.85,3.15-3c2.1-1.34,4-2.31,4.4-2.25Zm-192.6,1.05c.26.05.64.89.85,1.84.49,2.29-.92,7.5-1.93,7.12-.39-.15-1.25.3-1.91,1-1.28,1.35-2.33,1.63-2.87.76s.29-1.82,3.35-4.23c1.94-1.53,2.66-2.4,2.28-2.77s-1.33.13-3.07,1.61c-2.5,2.14-3.36,2.16-3.33.1,0-.85,5.83-5.62,6.63-5.44Zm224.29.51c.45,0,.66.32,1,1,.81,1.78.86,1.71-1.66,2.85-2.8,1.27-3.56,1.29-3.56.1a4.54,4.54,0,0,1,3.1-3.71,3.76,3.76,0,0,1,1.13-.28ZM276.42,302a2.4,2.4,0,0,1,.38,0c.37,0,.84.08,1.46.16,1.43.19,7.4.47,13.28.62s10.89.39,11.14.54a1.83,1.83,0,0,1,.45,1.35,68.15,68.15,0,0,0,3.36,9.09c2.33,5.56,5,13.68,8.7,26.56,2.94,10.21,6.46,21.63,7.82,25.37a58.64,58.64,0,0,1,2.7,9.19c.21,2.23.12,2.45-1.53,3.43s-2.82,1.05-9.16,1.12c-8.71.09-11.63-.15-12.3-1-1.06-1.35-4.87-13.54-4.87-15.58a4,4,0,0,0-.61-2.54,21.2,21.2,0,0,0-5.15-.21c-2.5.09-5.74.18-7.19.21l-2.64.05-.1,3.17a29.74,29.74,0,0,1-1.08,6.34l-1,3.17-10.55.38c-5.8.21-10.86.27-11.25.14-.91-.32-.89-.42,4.41-19,2.55-9,5.38-20.47,6.83-27.75,2.4-12.06,4.36-20.33,5.55-23.45.37-1,.55-1.31,1.33-1.34Zm-4.24.1h.09a5.47,5.47,0,0,1-.4,2c-.53,1.73-.87,2-4.34,3.08l-4.33,1.42c-1,.37-1.22-.39-.67-2,.43-1.2.86-1.54,2-1.54a14,14,0,0,0,4.52-1.59,20.4,20.4,0,0,1,3.11-1.43Zm134.75,1a3.4,3.4,0,0,1,.39,1.2c.15.78-.6,1.28-3.77,2.51-2.18.84-4.08,1.52-4.23,1.52-.53,0-1.82-1-1.58-1.2.69-.57,9-4.22,9.19-4Zm-197.69,1.1h.08c.09.1.55,5.52,1,12.06,1.51,20.53,2.65,28.34,4.88,33.43,1.17,2.68,2,2.59,9.75-.93,3.5-1.6,6.52-2.82,6.72-2.7s.23,4.28.09,9.24c-.22,7.37-.42,9.18-1.12,9.87a20,20,0,0,1-5.44,2.15,70.71,70.71,0,0,0-8.92,3.31,67.92,67.92,0,0,0-7.93,4.45c-2.18,1.47-3.67,2.18-3.77,1.8s-1.17-7.53-2.39-16-2.91-18.92-3.76-23.31c-2.84-14.53-3.93-26.93-2.48-28.08a24.58,24.58,0,0,1,4.32-1.69,53,53,0,0,0,6.26-2.48,14.49,14.49,0,0,1,2.68-1.16Zm178.27,1.75a.16.16,0,0,1,.1,0,3.18,3.18,0,0,1-.14,1.58c-.27,1.06-1.13,1.74-3.63,2.89-1.81.82-3.86,1.67-4.56,1.87-1.09.32-1.21.23-.87-.61.22-.54.64-1.64.93-2.44s.92-1.46,1.4-1.47a21.05,21.05,0,0,0,3.77-1,15.85,15.85,0,0,1,3-.82Zm-209.63.18,2.25.37c2.81.46,3,.68,1.72,1.62-.59.42-1.48,1.11-2,1.54-1.5,1.26-2,.93-2-1.37Zm230,.16.75,1.8a10.25,10.25,0,0,1,.76,2.34c0,.67-.12.66-3.6-.47-1.54-.49-2.76-1.12-2.7-1.4a5.86,5.86,0,0,1,2.45-1.38Zm-52,.46c.28,0,.67,1,.86,2.24.62,4,4.08,15.86,6.18,21.2,5.21,13.19,6.37,13.75,10.74,5.23,2.79-5.45,3.79-7,11-17a78.55,78.55,0,0,0,4.49-6.94l1.27-2.45,2.21.49c4.82,1,13.94,3.79,15.84,4.75l2,1-2.05,2.49c-1.13,1.37-3.93,5-6.22,8-4.32,5.76-16.48,19.24-20.81,23.07a20.09,20.09,0,0,1-4.43,3c-2,.83-2.55,2.19-1.4,3.34.39.39.16,3.86-.79,11.6-.74,6.07-1.4,12.11-1.48,13.42l-.14,2.37-2.11.07a28.35,28.35,0,0,1-3.7-.14c-.87-.12-4.56-.58-8.19-1s-6.81-1-7.06-1.27-.08-2.55.42-5.29,1.11-8.25,1.37-12.44c.45-7,.77-8.53,2.52-12.05.12-.23-.15-.35-.6-.26-1.13.23-7.35-10.29-10.66-18a65.15,65.15,0,0,0-6-10.82c-6.1-8.6-7.57-12.11-4.38-10.4a2.81,2.81,0,0,0,2.52,0c1.47-.56,17.58-4.19,18.59-4.19Zm-85.36.66c.09,0,.14,0,.16,0a2.93,2.93,0,0,1-.17,1.37c-.23.87-1.32,1.67-3.81,2.8-5.94,2.69-5.87,2.68-5.87,1.3a3.8,3.8,0,0,1,.66-2c.56-.69,7.82-3.44,9-3.47Zm-145,.5c-3.18.06-6.21,1.09-6.62,2.73-.26,1,2.45,13.39,3.2,14.61,1,1.57,7.49-.61,11-3.66,4.51-3.95,3.49-9.86-2.18-12.67A12,12,0,0,0,125.55,307.84ZM186,308a3.65,3.65,0,0,1,.59.08c1.65.42,1.78,1.09.29,1.56a26.47,26.47,0,0,0-4.44,2.92c-3.13,2.4-3.37,2.5-3.64,1.45-.62-2.38,4.13-6.17,7.2-6Zm4.32,1.59a.52.52,0,0,1,.32.13c.41.41,0,.92-1.45,1.82a60.1,60.1,0,0,0-5.52,4.27c-3.5,3-4.16,3.23-4.16,1.41s8.77-7.83,10.81-7.63Zm1.54,1a.3.3,0,0,1,.13,0,.64.64,0,0,1,.2.08c.79.49.67,4.49-.14,4.49-.36,0-3,2.15-5.76,4.76s-5.22,4.76-5.36,4.76a4.6,4.6,0,0,1-.53-2c-.26-1.89-.11-2.15,3.21-5.32a42,42,0,0,1,5.77-4.68c1.26-.73,2.28-1.56,2.28-1.84a.25.25,0,0,1,.2-.28Zm-65.46.28-1.55,1.62c-1.92,2-2.54,2.06-2.32.17.14-1.23.44-1.48,2-1.62Zm2.53.79a1.2,1.2,0,0,1,.32.06c.61.2,1.11.54,1.11.77a15.64,15.64,0,0,1-3.13,2.87,26.66,26.66,0,0,1-3.43,2.46c-1,0,0-2.18,2-4.15,1.56-1.55,2.35-2.09,3.1-2Zm255.92,0a.22.22,0,0,1,.14,0c.7.7-3.23,4.42-6.55,6.2a35.47,35.47,0,0,1-4,2c-1.06.05-.81-1.25.65-3.25s2.29-2.51,5.64-3.74a21.59,21.59,0,0,1,4.15-1.22Zm-115.39.26a.25.25,0,0,1,.18.08c.67,1.09-.91,2.32-4.82,3.74-4.81,1.75-5.12,1.8-4.89.64.19-.95,8.16-4.61,9.53-4.46Zm-112,1.95c.27,0,.43.05.43.15a6.86,6.86,0,0,1-1.63,1.94l-1.63,1.55.18-1.55a1.87,1.87,0,0,1,1.63-1.93,4.05,4.05,0,0,1,1-.16Zm35.24,1.76.17,1.7c.15,1.55-.34,2.2-5.3,7-3,2.93-5.67,5.4-5.94,5.49s-.49-.66-.49-1.68c0-1.64.51-2.35,4.1-5.81,2.25-2.16,4.85-4.56,5.78-5.33Zm75.51,0c.72,0,.88,1.52.26,2.4a26.43,26.43,0,0,1-4.8,2.51,40.4,40.4,0,0,1-4.89,2c-.55,0-.06-2.63.62-3.38C259.84,318.57,267.18,315.67,268.12,315.66Zm-135.79,1.08c.06,0,.1.27.1.71a4.27,4.27,0,0,1-1.29,2.2c-2.09,2.09-2.79,1.49-.79-.68,1-1.09,1.88-2.08,2-2.2l0,0Zm-5.53,1.09a.13.13,0,0,1,.09,0c.16.16-.37.71-1.18,1.22l-1.47.93,1.18-1.23a2.89,2.89,0,0,1,1.38-1Zm253.3.71.1,0c.32.33-1,1.86-1.57,1.86s-6.27,3.72-6.27,4.05a11.25,11.25,0,0,0,2.64-1.15c1.46-.73,2.65-1.21,2.65-1.05a24.35,24.35,0,0,1-1.89,3.12,11.46,11.46,0,0,1-4.54,4.22c-3,1.58-3.77,1.68-4.64.62s.54-3.25,2.1-3.74c.56-.18.86-.63.7-1s.52-1.79,1.49-3.09c1.52-2,2-2.32,3.34-2.11a6.69,6.69,0,0,0,3.66-.85,7.35,7.35,0,0,1,2.23-.86ZM267.58,320.1a11,11,0,0,1-.17,2.93l-.36,2.73-3.76,1.9a45.38,45.38,0,0,1-5.21,2.31c-1.68.48-1.77.12-.89-3.39.54-2.17.71-2.31,5.38-4.46a28.64,28.64,0,0,1,5-2Zm-74.71.87a26.6,26.6,0,0,1,.85,4.2l.61,4-1.47,1.06c-.8.58-2.76,2.24-4.34,3.69a31.88,31.88,0,0,0-4.3,4.88c-1.5,2.34-2.11,2.42-2.11.28,0-2.48,7.07-10.56,10.09-11.51a1.39,1.39,0,0,0,1-1.09c0-1.91-7.27,3.81-9.56,7.52-1.43,2.31-2.07,2.24-2.07-.22,0-1.82.47-2.45,5.53-7.5,3-3,5.64-5.41,5.76-5.28Zm98.38,6.37c-1,.05-2.34,1.62-3.41,4.47a71.26,71.26,0,0,0-2.17,8.67c-1.29,6.77-1.1,7.45,2,7.08a23.88,23.88,0,0,1,5.14.25l3.5.55c.18,0,.6-.26.92-.65.46-.55.22-1.45-1-3.83-1.86-3.65-3.7-10.5-3.7-13.79,0-1.91-.54-2.79-1.31-2.75Zm-24.83.05a5.88,5.88,0,0,1-.21,2c-.35,1.72-.67,2-5.24,3.89-2.68,1.13-4.87,2.28-4.87,2.56,0,.62,1.21.25,5.44-1.67a13,13,0,0,1,3.6-1.29c.18.11.21.79.07,1.53-.2,1-.72,1.44-2.44,1.87a36.93,36.93,0,0,0-5.49,2.11c-1.83.87-3.41,1.58-3.53,1.58a23.8,23.8,0,0,1,1-4.36c1.16-4.24,1.23-4.36,3-4.66a24.73,24.73,0,0,0,5.17-2,16.93,16.93,0,0,1,3.53-1.54Zm105.41,3.28a26.21,26.21,0,0,1-1.36,2.63,16.75,16.75,0,0,1-1.52,2.44,8.45,8.45,0,0,1-1.28-3.33A22.44,22.44,0,0,1,371.83,330.67ZM194.12,331c.31,0,.66.7.78,1.56.21,1.38-.42,2.24-5.62,7.66a72.37,72.37,0,0,1-6.24,6.1c-.62,0-.47-3.11.21-4.39,2.11-4,9.05-10.93,10.87-10.93ZM290,334.93c.16,0,.32.3.5.79a1.94,1.94,0,0,1-.15,1.94h0c-1,1.19-1.57.83-1.2-.73.33-1.4.59-2,.85-2Zm-94.81.66.57,2.06c.54,1.94.49,2.12-.88,3.1-4.85,3.49-11.06,11.24-9.88,12.34.21.2.49.06.63-.31,1.4-3.93,9.85-12.58,10.81-11.07,1.18,1.84.39,3.25-4.22,7.55a58.59,58.59,0,0,0-5.95,6.24c-1.33,2-2.08,2.4-2.09,1.25,0-.36-.25-2.3-.54-4.32-.51-3.47-.47-3.75.78-5.54a75.4,75.4,0,0,1,6-6.6Zm68.51,1.53c.27,0,.47.07.55.21.64,1-.67,2.23-5.5,5a40.83,40.83,0,0,1-5.76,2.94c-1.08,0-.69-2.1.62-3.42,2-2,8.15-4.76,10.09-4.72Zm-128.66.21c.29,0,.53,1.22.53,2.71,0,2.53-.15,2.84-2.29,4.72a26,26,0,0,0-3.57,3.89,6.39,6.39,0,0,1-1.62,1.89c-.19,0-.43-1.06-.53-2.35-.19-2.3-.12-2.41,3.38-5.58,2.06-1.87,3.57-3.67,3.57-4.26s.24-1,.53-1Zm-2.69.7c.83-.06.4.76-1.29,2.48q-3.94,4-3.95.26c0-1.61.17-1.85,1.29-1.85a9.2,9.2,0,0,0,2.71-.55A4.89,4.89,0,0,1,132.39,338Zm158.07,1.05a1.19,1.19,0,0,1,1.1.44,1.75,1.75,0,0,1,.3,1.21c-.34,1.08-3,.64-3-.5C288.86,339.59,289.7,339.12,290.46,339.08Zm-27.31,2c.29,0,.3.32.14.84s-.42,1.55-.6,2.31c-.25,1-.85,1.54-2.41,2a43.39,43.39,0,0,0-5.58,2.45c-1.93,1-3.61,1.83-3.74,1.83s.35-3.17.7-3.77a4.6,4.6,0,0,1,2-.67,21.1,21.1,0,0,0,5.37-2.7c2.47-1.62,3.7-2.33,4.17-2.29Zm-41.18.07a.21.21,0,0,1,.15,0c.18.19.23.41.11.5-3.76,2.78-5.77,3.94-5.77,3.33,0-.79,4.53-3.9,5.51-3.87Zm-3.69.39c.31,0,.1.37-.47.8a3.61,3.61,0,0,1-1.58.76c-.31,0-.1-.37.47-.8A3.61,3.61,0,0,1,218.28,341.57Zm7.25.2a1.19,1.19,0,0,1,.44.05c1.66.53,1.29,1-2,2.74a22.86,22.86,0,0,0-4.23,2.73c-1.26,1.26-2,1.42-2.48.57-.82-1.33,5.81-6,8.3-6.09Zm3.31,1.11c.19,0,.31,0,.31.16s-.61.74-1.36,1.08-1.21.39-1,.09A3.82,3.82,0,0,1,228.84,342.88Zm59.58.4a1.14,1.14,0,0,1,.85.82c.11.35-.17.63-.63.63a.84.84,0,0,1-.83-.84c0-.47.28-.66.61-.61Zm-152.78,1.45c.72,0,1,3.25.36,3.91-.36.37-1.85,2.25-3.3,4.18s-2.94,3.51-3.3,3.52c-1.31,0-.72-3.44,1-5.85,1.88-2.65,4.72-5.76,5.25-5.76Zm61.45,1.32.51,2.59.51,2.6L194.25,355c-5.4,5.23-8.11,8.21-7.78,8.54.15.15,2.74-2.25,5.74-5.34,5.14-5.28,5.49-5.54,5.88-4.36s-.36,2.05-6.16,8l-6.58,6.77-.28-1.77c-.15-1-.36-3.19-.48-4.91l-.2-3.14,6.35-6.38Zm151.84.77c.53.1,1.32,1.53,2.71,4.35.1.2-.54.74-1.41,1.19-2.59,1.34-2.85,1.14-2.43-1.95.33-2.48.6-3.7,1.13-3.59Zm-87.32.05c.21,0,.3.09.3.25a13.66,13.66,0,0,1-.73,2c-.61,1.44-1.66,2.22-6,4.47-5.64,2.9-6.76,3.24-6.24,1.88a21.1,21.1,0,0,0,.63-2.07c.23-.93,1.65-1.89,5.78-3.91C259.2,347.62,261,346.86,261.61,346.87Zm-124.93,3.67c.21,0,.55,1.28.74,2.84a53.84,53.84,0,0,0,1.07,5.55c.61,2.3.61,2.71,0,2.71-.4,0-1.93,1.78-3.4,4a37.9,37.9,0,0,1-2.88,4,3.52,3.52,0,0,1-.55-1.53c-.27-1.26.19-2.38,2.6-6.26a33.37,33.37,0,0,0,2.94-5.34c0-1.46-1.15-.35-3.45,3.35a19.19,19.19,0,0,1-2.88,4c-.43,0-1.07-2.58-1.07-4.3,0-1,6.13-8.91,6.89-8.91ZM260,352.61a.05.05,0,0,1,.05,0c.53.85-.46,2.61-1.76,3.15a14.62,14.62,0,0,0-3,1.92L253.72,359l2.3-1.11a5.86,5.86,0,0,1,2.56-.86,3.3,3.3,0,0,1-.07,1.76c-.22,1-1.1,2-2.72,3-2.63,1.67-2.84,2.47-.3,1.16a10.43,10.43,0,0,1,1.88-.83c.57,0-1.35,4.53-2.18,5.15a3.52,3.52,0,0,1-1.75.66c-1,0-2.38-2.28-1.87-3.12.2-.32,0-.58-.46-.58s-1.52-1.12-2.37-2.48c-1.64-2.64-1.49-4.37.37-4.41a31.06,31.06,0,0,0,5.81-2.57,23.54,23.54,0,0,1,5.08-2.21Zm90.9.67c.36,0,.32.46.32,1.45,0,1.18-.41,1.8-1.78,2.64-2.13,1.32-3.21,1.42-2.77.26a6.06,6.06,0,0,0,.32-1.84c0-.66.67-1.28,1.92-1.81a14.17,14.17,0,0,1,1.8-.69ZM198,357.55h.1c.16.05.23.25.26.56.13,1-.35,1.82-2,3.28-1.17,1.05-3.82,3.92-5.9,6.37s-4,4.45-4.25,4.45-.47-.6-.47-1.33c0-1,1.63-3,6.21-7.73,4-4.1,5.44-5.54,6-5.6Zm152.2.92c.25,0,.46.77.45,1.72,0,1.38-.4,2-2.06,3.17a12.65,12.65,0,0,1-2.37,1.45c-.42,0-.33-2.68.13-3.84a6.53,6.53,0,0,1,3.85-2.5Zm-97.57,1-1.32.35a5.2,5.2,0,0,0-1.82.81c-.81.76.35.53,1.82-.36Zm-54,1.65c1.21-.06-.1,2.19-4.06,7-2.45,3-4.36,5.5-4.23,5.62.37.38,2.14-1.46,5.35-5.57l3.07-3.92.47,1.58c.42,1.45.19,1.94-2.62,5.44-1.69,2.11-3.21,4-3.37,4.11-.68.61-5.61-.09-6.21-.88s.1-1.65,3.92-5.92c4.58-5.12,6.94-7.41,7.68-7.45Zm92.68,1.57c1.17,0,1.28.12.72.79a2.16,2.16,0,0,1-1.38.79.76.76,0,0,1-.73-.79c0-.5.51-.79,1.39-.79Zm-152,.1c.23-.08.52.87.64,2.12.21,2.15.06,2.45-3,5.83a27.42,27.42,0,0,1-3.54,3.57c-.18,0-.45-.46-.6-1s.82-2.62,2.9-5.68A40.2,40.2,0,0,1,139.3,362.8Zm155.47.34c.66.05.39,1-1.17,2.29a8.71,8.71,0,0,1-2.18,1.49c-.42,0-1.19-1.05-.89-1.24.1-.07,1.06-.76,2.13-1.55a3.92,3.92,0,0,1,2.11-1Zm55.52.34h.11c.23,0,.28.4.26,1.18,0,1.6-.65,3.5-1,3.23a6.27,6.27,0,0,0-2.15,1.28c-2.44,1.87-2.79,1.83-2.39-.26.3-1.61,2.42-4,4.69-5.21a1.83,1.83,0,0,1,.52-.22Zm-55.46,2.4c1.11,0,1,1.78-.2,2.69-1.56,1.19-2,1.23-2.41.2-.28-.73,1.62-2.84,2.61-2.89Zm-39.71,2.71c.34,0,.47.21.37.74a1.65,1.65,0,0,1-.9,1.18c-.45.15-.64-.1-.53-.71a1.68,1.68,0,0,1,.9-1.18l.16,0Zm95,.35s.06,0,.06,0c0,1.64-1.28,6.74-1.77,7-.92.58-1.12.51-2.37-.82-1.77-1.88-1.4-3.06,1.52-4.94A9.31,9.31,0,0,1,350.11,368.94Zm-54.12.3a.55.55,0,0,1,.29.08c.71.43.64,2-.12,2.78a2.19,2.19,0,0,1-1,.64c-.52,0-1.58-1.23-1.58-1.83s1.56-1.68,2.37-1.67Zm-96.46.33c1.12,0,.94,3-.3,5.15-1.36,2.33-1.76,2.51-3.8,1.69-1-.38-1.1-.68-.7-1.42C195.5,373.57,199.05,369.57,199.53,369.57ZM140,370h.14a.43.43,0,0,1,.28.21,2.64,2.64,0,0,1,.42,1,14.45,14.45,0,0,1-3,2.32c-3.18,2.1-3.1,1.81.62-2.24.74-.82,1.23-1.22,1.57-1.27Zm156.9,3c.75-.06,1.41.68,1.43,1.69s-1.35,1.26-2,.57c-.86-.85-.73-1.8.29-2.19a.92.92,0,0,1,.32-.07Zm-96.34,1.35c.22,0,.7,1.08,1.07,2.4.77,2.75.65,3.09-.74,2.07a8.39,8.39,0,0,0-1.56-.92c-.62-.2.54-3.55,1.23-3.55Zm98.09,1.73c.21,0,.36.14.53.59.44,1.15.13,1.45-.86.85-.6-.38-.63-.62-.13-1.12a1,1,0,0,1,.46-.32Z" transform="translate(-1.25 -0.52)"/><circle id="path4574" class="cls-3" cx="305.54" cy="36.04" r="14.34" transform="translate(219.77 331.35) rotate(-80.78)"/><circle id="path4574-1" class="cls-3" cx="398.02" cy="86.78" r="14.34"/><circle id="path4574-5" class="cls-3" cx="456.8" cy="175.6" r="14.34"/><circle id="path4574-9" class="cls-3" cx="467.38" cy="281.71" r="14.34"/><circle id="path4574-7" class="cls-3" cx="426.88" cy="380.55" r="14.34"/><circle id="path4574-10" class="cls-3" cx="345.39" cy="449.11" r="14.34"/><circle id="path4574-52" class="cls-3" cx="247.79" cy="471.54" r="14.34"/><circle id="path4574-95" class="cls-3" cx="144.52" cy="446.01" r="14.34"/><circle id="path4574-77" class="cls-3" cx="65.02" cy="374.97" r="14.34"/><circle id="path4574-56" class="cls-3" cx="27.62" cy="275.26" r="14.34"/><circle id="path4574-8" class="cls-3" cx="41.41" cy="169.52" r="14.34"/><circle id="path4574-13" class="cls-3" cx="103.15" cy="82.18" r="14.34"/><circle id="path4574-70" class="cls-3" cx="197.72" cy="33.58" r="14.34"/><circle id="path4574-72" class="cls-4" cx="194.47" cy="464.86" r="14.34"/><circle id="path4574-72-2" class="cls-4" cx="295.79" cy="467.05" r="14.34" transform="translate(-213.86 683.68) rotate(-80.78)"/><circle id="path4574-72-7" class="cls-4" cx="390.21" cy="419.73" r="14.34"/><circle id="path4574-72-3" class="cls-4" cx="453.1" cy="333.63" r="14.34"/><circle id="path4574-72-5" class="cls-4" cx="468.37" cy="227.97" r="14.34"/><circle id="path4574-72-6" class="cls-4" cx="432.64" cy="127.51" r="14.34"/><circle id="path4574-72-53" class="cls-4" cx="354.15" cy="55.26" r="14.34"/><circle id="path4574-72-4" class="cls-4" cx="251.24" cy="28.41" r="14.34"/><circle id="path4574-72-63" class="cls-4" cx="147.44" cy="52.24" r="14.34"/><circle id="path4574-72-1" class="cls-4" cx="66.64" cy="122.13" r="14.34"/><circle id="path4574-72-69" class="cls-4" cx="27.98" cy="221.28" r="14.34"/><circle id="path4574-72-28" class="cls-4" cx="40.17" cy="327.27" r="14.34"/><circle id="path4574-72-34" class="cls-4" cx="100.35" cy="415.31" r="14.34"/></g></svg>