<?xml version="1.0" encoding="UTF-8" standalone="no"?>
<!-- Created with Inkscape (http://www.inkscape.org/) -->

<svg
   xmlns:dc="http://purl.org/dc/elements/1.1/"
   xmlns:cc="http://creativecommons.org/ns#"
   xmlns:rdf="http://www.w3.org/1999/02/22-rdf-syntax-ns#"
   xmlns:svg="http://www.w3.org/2000/svg"
   xmlns="http://www.w3.org/2000/svg"
   xmlns:sodipodi="http://sodipodi.sourceforge.net/DTD/sodipodi-0.dtd"
   xmlns:inkscape="http://www.inkscape.org/namespaces/inkscape"
   width="210mm"
   height="297mm"
   viewBox="0 0 210 297"
   version="1.1"
   id="svg8"
   inkscape:version="0.92.1 r15371"
   sodipodi:docname="logo_meetandplay.svg">
  <defs
     id="defs2" />
  <sodipodi:namedview
     id="base"
     pagecolor="#ffffff"
     bordercolor="#666666"
     borderopacity="1.0"
     inkscape:pageopacity="0.0"
     inkscape:pageshadow="2"
     inkscape:zoom="0.49497475"
     inkscape:cx="122.77651"
     inkscape:cy="538.15128"
     inkscape:document-units="mm"
     inkscape:current-layer="layer2"
     showgrid="false"
     inkscape:window-width="1920"
     inkscape:window-height="1017"
     inkscape:window-x="1912"
     inkscape:window-y="-8"
     inkscape:window-maximized="1" />
  <metadata
     id="metadata5">
    <rdf:RDF>
      <cc:Work
         rdf:about="">
        <dc:format>image/svg+xml</dc:format>
        <dc:type
           rdf:resource="http://purl.org/dc/dcmitype/StillImage" />
        <dc:title></dc:title>
      </cc:Work>
    </rdf:RDF>
  </metadata>
  <g
     inkscape:groupmode="layer"
     id="layer2"
     inkscape:label="barevne"
     style="display:inline">
    <circle
       style="display:inline;opacity:1;fill:#ffffff;fill-opacity:1;stroke:none;stroke-width:0.30887225"
       id="path4878"
       cx="106.16155"
       cy="144.09378"
       r="101.48661"
       transform="rotate(0.72829695)" />
    <path
       inkscape:connector-curvature="0"
       id="path4520"
       style="display:inline;fill:#000000;stroke-width:0.21507198"
       d="m 86.505523,52.906922 c -0.11865,0.04392 -0.37348,0.176657 -0.69918,0.343133 0.24512,-0.106794 0.49024,-0.213601 0.73536,-0.320394 -0.0119,-0.0078 -0.0242,-0.015 -0.0362,-0.02273 z m -30.39246,33.905427 -0.53743,0.639236 c -0.59882,0.711978 -3.58726,2.260949 -4.95525,2.568318 -0.48683,0.109384 -0.93769,0.250902 -1.00149,0.314711 -0.0638,0.06381 -0.43093,0.870585 -0.81597,1.793171 -0.38505,0.922592 -1.53924,3.516488 -2.5647,5.763991 -3.23273,7.085184 -4.15327,9.365484 -5.25343,13.012124 -0.58883,1.95178 -1.13885,3.91246 -1.22215,4.35736 -0.0833,0.44489 -0.23722,0.86176 -0.3421,0.92656 -0.1049,0.0648 -0.19068,0.28528 -0.19068,0.48989 0,0.38823 0.38674,0.64018 4.82399,3.14193 2.52154,1.42166 2.57083,1.43888 2.90319,1.01234 0.18594,-0.23868 1.25749,-0.83439 2.38125,-1.32344 1.12372,-0.48905 2.15227,-0.93742 2.28564,-0.99632 0.23505,-0.10378 0.29816,0.12171 0.6227,2.23087 0.10783,0.70073 0.2347,0.91416 0.54416,0.91416 0.22203,0 0.51819,0.21754 0.65835,0.48369 0.14016,0.26615 0.34711,0.54413 0.45941,0.61753 0.11231,0.0734 1.04116,-0.0827 2.06447,-0.34675 1.02331,-0.26407 2.22345,-0.54603 2.66702,-0.62683 0.95521,-0.17397 0.98671,-0.0485 0.47646,1.91048 -0.18166,0.69742 -0.28645,1.38255 -0.23255,1.5229 0.0539,0.14036 1.19446,0.71626 2.53473,1.27951 2.90096,1.21916 4.53331,2.0325 5.55574,2.76934 0.414,0.29837 0.89794,0.48601 1.07538,0.41651 1.34258,-0.52613 2.11704,-0.71497 4.19355,-1.02216 1.30119,-0.19249 2.753,-0.46423 3.22616,-0.60358 0.47316,-0.13934 1.00543,-0.257 1.18287,-0.262 0.25921,-0.007 0.35016,-0.49522 0.46199,-2.48253 0.0765,-1.36033 0.29153,-4.16676 0.478,-6.23683 0.18648,-2.07007 0.44185,-5.94158 0.56741,-8.60309 0.33533,-7.10833 0.76523,-12.327778 1.0604,-12.879321 0.22993,-0.429625 0.17752,-0.571396 -0.45527,-1.238683 -0.87947,-0.927444 -1.85927,-1.563609 -3.40289,-2.210203 -0.65059,-0.27252 -1.58891,-0.67846 -2.08515,-0.901753 -1.255,-0.564708 -1.70259,-0.522136 -1.95337,0.185518 -0.17999,0.507982 -0.50255,0.690431 -2.28564,1.291911 -1.14183,0.385167 -2.45861,0.941623 -2.92592,1.236617 -1.13537,0.716732 -1.2883,0.681278 -1.2883,-0.296622 0,-1.773568 -1.25875,-5.717476 -2.33474,-7.315832 -0.11065,-0.164367 -0.62279,-0.339191 -1.13791,-0.388091 -0.51512,-0.0489 -1.90425,-0.326617 -3.08715,-0.617016 z m 0.67076,1.50895 c 0.17739,0 0.26276,0.09668 0.18966,0.214974 -0.0731,0.118293 -0.27835,0.214974 -0.45579,0.214974 -0.17738,0 -0.26275,-0.09668 -0.18965,-0.214974 0.0731,-0.118292 0.27835,-0.214974 0.45578,-0.214974 z m 1.53428,0.408244 c 0.33756,0.01947 0.2021,0.247431 -0.6227,0.623218 -0.5153,0.234773 -1.68052,0.776111 -2.58951,1.203026 -1.80856,0.849403 -1.82293,0.85393 -1.97766,0.603581 -0.15866,-0.256704 1.94805,-1.45152 3.64526,-2.067573 0.73345,-0.266226 1.28206,-0.377399 1.54461,-0.362252 z m 1.69395,0.300757 c 0.0663,0.0011 0.12541,0.0088 0.1788,0.02222 0.6914,0.17353 0.5569,0.459957 -0.29559,0.630455 -0.34964,0.06993 -1.57567,0.566494 -2.72438,1.103291 -2.01183,0.940131 -2.88561,1.180325 -2.88561,0.792716 0,-0.100865 1.20171,-0.742477 2.67064,-1.425753 1.76944,-0.823071 2.592,-1.130726 3.05614,-1.122929 z m 1.93425,1.100191 c 0.095,0.01098 0.16175,0.09347 0.25115,0.253214 0.17734,0.316886 -0.21286,0.572159 -2.81689,1.841233 -2.9851,1.45479 -3.58996,1.668182 -3.58996,1.268656 0,-0.369671 1.36706,-1.215396 3.33365,-2.062922 1.06461,-0.458819 2.14512,-0.964877 2.4014,-1.124479 0.20232,-0.126035 0.32562,-0.18668 0.42065,-0.175702 z m 0.44183,1.221631 c 0.15305,-5.29e-4 0.21943,0.07303 0.28267,0.191204 0.11947,0.223187 0.21704,0.50764 0.21704,0.632002 0,0.252273 -1.64555,1.119244 -4.54391,2.394686 -1.06015,0.466527 -1.96126,0.848527 -2.00246,0.848527 -0.0978,0 -0.33589,-0.6237 -0.33589,-0.880049 0,-0.109808 1.4509,-0.920047 3.22409,-1.800408 2.06555,-1.025517 2.82176,-1.384662 3.15846,-1.385962 z m -11.83338,0.326597 c 0.33565,-0.0061 0.94585,0.165171 1.98231,0.527097 1.53168,0.534861 1.95197,0.772811 2.04897,1.159103 0.0671,0.267264 0.32364,2.653461 0.5705,5.30252 0.69512,7.459221 0.67405,7.419331 2.91042,5.449281 6.01351,-5.29741 6.97895,-6.027287 7.54218,-5.703014 0.21845,0.125775 0.96506,0.433888 1.65881,0.684713 1.53569,0.555236 1.97343,0.967511 2.30322,2.169381 0.27296,0.99473 0.28926,0.77934 -0.75345,9.95856 -1.42539,12.54834 -1.62839,14.47441 -1.62832,15.4311 1e-4,1.17579 -0.13676,1.22171 -1.39785,0.46561 -0.47316,-0.28368 -1.73946,-0.85905 -2.81378,-1.27848 -2.90368,-1.13363 -2.88928,-1.11886 -2.5523,-2.62103 0.15343,-0.68394 0.48131,-3.20442 0.72864,-5.60069 0.24734,-2.39627 0.59941,-4.79771 0.78238,-5.33663 0.41861,-1.23299 0.33942,-1.92029 -0.22117,-1.92029 -0.30721,0 -0.51961,0.27863 -0.79117,1.03766 -0.20416,0.57066 -0.9424,1.88231 -1.64021,2.91507 -1.67648,2.48119 -5.20755,6.73097 -5.51129,6.63267 -0.23762,-0.0769 -0.39765,-0.77341 -1.95802,-8.52971 -1.08571,-5.3969 -1.07403,-5.37419 -2.24586,-4.53978 -0.45791,0.32603 -0.56964,0.55407 -0.50074,1.02371 0.0488,0.33228 -0.0528,0.99035 -0.22583,1.46245 -0.17308,0.47209 -0.56472,1.54917 -0.87023,2.39365 -0.30551,0.84449 -0.7527,2.63065 -0.99374,3.96927 -0.24104,1.3386 -0.52716,2.5229 -0.63613,2.63188 -0.12081,0.12081 -0.47736,0.0304 -0.91313,-0.23151 -0.3931,-0.23628 -1.48867,-0.84091 -2.43499,-1.34411 -2.47069,-1.31377 -2.37831,-1.1549 -1.82935,-3.14658 1.62308,-5.88864 4.10642,-12.17367 8.03362,-20.332088 0.55012,-1.142842 1.00046,-2.17781 1.00046,-2.299603 0,-0.213595 0.095,-0.325527 0.35605,-0.33021 z M 101.06949,92.1159 c -3.705637,0.03141 -8.172317,0.375558 -9.158097,0.86713 -1.2249,0.610836 -4.51318,3.068182 -6.11849,4.572849 -1.35378,1.26895 -1.50811,1.498084 -1.53272,2.271694 -0.0947,2.977007 -0.54212,10.898597 -0.72295,12.796637 -0.11833,1.24204 -0.3692,4.58127 -0.55707,7.42022 -0.36666,5.5409 -0.47563,7.10313 -0.66094,9.47229 -0.0881,1.12666 -0.044,1.57664 0.17208,1.75545 0.31793,0.26302 5.09302,0.98196 9.001,1.35547 3.43468,0.32827 7.27271,0.85431 7.85688,1.07642 0.2691,0.10231 0.55781,0.29633 0.64131,0.4315 0.261377,0.42292 1.096087,0.0421 3.163107,-1.44333 3.37834,-2.42783 4.25453,-3.2668 4.25453,-4.07365 0,-0.38447 -0.0824,-0.74973 -0.18294,-0.81183 -0.10053,-0.0621 -0.24438,-0.91689 -0.31988,-1.89963 -0.0755,-0.98274 -0.35621,-2.45751 -0.62373,-3.27732 l -0.48679,-1.49086 -2.7957,-0.0703 c -1.53777,-0.0387 -3.521847,-0.1398 -4.409027,-0.2248 -1.51454,-0.14502 -1.61282,-0.18586 -1.61282,-0.66869 0,-0.28925 0.18641,-0.61877 0.42633,-0.75292 0.2346,-0.1312 1.57149,-1.01275 2.970867,-1.95906 1.3994,-0.94632 2.73199,-1.81594 2.96107,-1.9327 0.50671,-0.25832 0.51186,-0.39899 0.0625,-1.71772 -0.26096,-0.76586 -0.29412,-1.13539 -0.12505,-1.40612 0.15439,-0.24719 0.1673,-0.85132 0.0388,-1.84898 -0.10505,-0.81512 -0.19393,-2.01436 -0.19793,-2.66495 l -0.007,-1.18288 h -2.74195 -2.742457 l -0.0677,-0.69918 c -0.0592,-0.61418 -0.004,-0.69866 0.45216,-0.69866 0.28557,0 0.83187,0.10866 1.21388,0.24184 0.835587,0.29129 1.441927,0.0336 2.592087,-1.10226 0.9164,-0.905 5.01137,-3.8716 5.34438,-3.8716 0.28795,0 0.6811,-0.695904 0.6811,-1.205608 0,-0.20547 -0.15644,-0.546145 -0.34778,-0.757576 -0.27725,-0.306353 -0.35591,-0.938832 -0.38551,-3.114022 l -0.0372,-2.72955 -1.0666,-0.340548 c -0.75899,-0.242218 -2.70809,-0.335618 -4.93148,-0.316775 z m -38.098957,0.774629 c 0.0237,-0.0038 0.0387,-0.0036 0.0444,0.0026 0.0459,0.04595 0.139,0.36689 0.2067,0.713134 0.11942,0.610822 0.0763,0.64775 -1.44952,1.250569 -0.86491,0.341707 -2.18149,0.946735 -2.9254,1.34462 -0.74395,0.397913 -1.5896,0.879245 -1.87948,1.069187 -0.46838,0.306903 -0.54091,0.30884 -0.65267,0.01757 -0.0692,-0.180258 -0.0947,-0.585009 -0.0563,-0.89917 0.0607,-0.49706 0.32116,-0.676558 2.00556,-1.382861 1.06461,-0.44641 2.55034,-1.123386 3.30161,-1.504302 0.65737,-0.333306 1.2392,-0.584443 1.40508,-0.611333 z m 39.801177,0.377238 c 0.53908,0 0.97979,0.05193 0.97979,0.115239 0,0.384447 -0.75381,1.179515 -1.02113,1.076936 -0.19252,-0.07388 -1.05105,0.534755 -2.235,1.584402 l -1.922367,1.703771 -1.41076,0.07183 c -0.77586,0.03946 -1.44138,0.02156 -1.47898,-0.03979 -0.11449,-0.18678 1.4904,-1.441042 3.85971,-3.016869 1.958817,-1.302819 2.374857,-1.495517 3.228737,-1.495517 z m -2.58692,0.0186 c 0.21585,-0.01299 0.34055,0.03567 0.34055,0.156578 0,0.09904 -0.733607,0.644757 -1.630387,1.212847 -0.89679,0.568092 -2.17888,1.538343 -2.84944,2.155941 -1.1022,1.015177 -1.33815,1.134438 -2.45618,1.246952 -0.69348,0.0698 -1.23662,0.0383 -1.23662,-0.07183 0,-0.311179 2.15795,-1.921762 4.34186,-3.24063 1.37598,-0.830937 2.84269,-1.420871 3.490217,-1.459858 z m -3.528977,0.196368 c 0.47227,0 0.85836,0.07251 0.85783,0.161232 -5.3e-4,0.08872 -0.88066,0.694029 -1.95595,1.34462 -1.07533,0.650592 -2.42265,1.630419 -2.99465,2.177646 -0.63811,0.610465 -1.29552,1.032462 -1.70068,1.091922 -0.86946,0.127611 -0.83302,-0.07633 0.14625,-0.820105 0.44359,-0.336915 1.70269,-1.364933 2.79776,-2.284098 1.75534,-1.473385 2.09241,-1.671217 2.84944,-1.671217 z m 23.457477,0.0052 -1.13688,0.606679 c -2.54495,1.357712 -3.90806,2.226439 -5.33559,3.400827 -1.49724,1.23173 -1.66895,1.450258 -1.3131,1.670182 0.10649,0.06594 0.10802,0.54451 0.003,1.105877 -0.10168,0.54423 -0.27896,3.18339 -0.39378,5.86476 -0.11478,2.68136 -0.30912,5.79469 -0.43201,6.91844 -0.12289,1.12375 -0.31985,3.63962 -0.4377,5.59139 -0.11785,1.95178 -0.3255,5.36663 -0.46096,7.58817 -0.1355,2.22153 -0.17635,4.10896 -0.091,4.19405 0.0854,0.0851 2.54263,0.1071 5.46014,0.0491 8.43149,-0.16769 10.08992,-0.14237 10.39109,0.15917 h 5.3e-4 c 0.14768,0.14786 0.34535,0.26872 0.43925,0.26872 0.26362,0 3.40659,-2.82433 4.51497,-4.05712 0.92952,-1.03385 0.97969,-1.15057 0.817,-1.90944 -0.0953,-0.44454 -0.23926,-1.43719 -0.31936,-2.20607 -0.0801,-0.76889 -0.28397,-1.88823 -0.4532,-2.48771 l -0.30747,-1.09037 -3.27629,0.0713 c -1.80179,0.0392 -3.41007,-0.0163 -3.57394,-0.12351 -0.39766,-0.26004 -0.14914,-1.23289 0.34933,-1.36736 0.2083,-0.0562 1.41018,-0.90359 2.67064,-1.88308 l 2.29185,-1.78077 -0.31058,-1.0449 c -0.18358,-0.61832 -0.23842,-1.19945 -0.13436,-1.42265 0.0968,-0.20751 0.0764,-1.34512 -0.0455,-2.52801 l -0.22169,-2.15078 -0.9679,0.0615 c -0.5323,0.0339 -1.50017,-0.0153 -2.15077,-0.10955 -1.01858,-0.14753 -1.19271,-0.24186 -1.25471,-0.678 -0.11314,-0.79613 0.22852,-0.94998 1.22473,-0.55138 l 0.894,0.35811 0.75603,-0.61598 c 2.13562,-1.73919 4.54003,-3.50858 4.77439,-3.51348 0.40378,-0.008 0.58131,-1.03153 0.24856,-1.43247 -0.19595,-0.2361 -0.29866,-1.098544 -0.32246,-2.709396 l -0.0346,-2.362645 -0.9276,-0.41548 c -1.39144,-0.622964 -2.28646,-0.772459 -6.80216,-1.135848 z m -26.011327,0.209804 c 0.33925,0 0.6165,0.04292 0.6165,0.09509 0,0.05217 -1.24459,1.104246 -2.76572,2.337842 -2.74327,2.224683 -2.77616,2.243609 -4.08606,2.338358 -0.72634,0.05254 -1.32085,0.03486 -1.32085,-0.03927 0,-0.323858 3.99085,-3.44165 4.40542,-3.44165 0.0832,0 -0.60808,0.642795 -1.53583,1.428335 -0.92774,0.785566 -1.71914,1.511731 -1.75854,1.613339 -0.15574,0.401299 0.29341,0.139062 1.43505,-0.837158 2.73717,-2.340565 4.39224,-3.494878 5.01003,-3.494878 z m 11.425137,0.215492 c 0.1915,0 0.10854,1.660345 -0.0904,1.809708 -0.66975,0.502769 -3.83594,2.447777 -3.83594,2.356445 0,-0.23251 3.70727,-4.166153 3.92637,-4.166153 z m 50.03571,0.132808 c -0.45454,-0.0038 -0.91534,-0.0039 -1.37666,5.29e-4 -1.53777,0.01423 -5.52238,0.240043 -8.85424,0.50178 l -6.05751,0.47594 -0.46251,-0.462505 c -0.64847,-0.648472 -0.96165,-0.315783 -1.59783,1.698088 -0.82118,2.599484 -1.05207,4.210409 -1.05007,7.335989 10e-4,2.34723 0.0744,3.0488 0.37827,3.63647 0.86175,1.66643 3.9918,4.31049 4.75579,4.01732 0.1859,-0.0713 0.4698,0.002 0.63096,0.1633 0.16736,0.16735 1.04439,0.35877 2.04433,0.44597 1.34742,0.11754 1.72515,0.22005 1.63866,0.44545 -0.61217,1.59535 -0.66791,2.39114 -0.62581,8.99842 l 0.0439,6.85074 0.49971,0.46199 c 0.27487,0.2541 0.73812,0.57208 1.02939,0.70693 0.29127,0.13485 1.15866,0.87229 1.92753,1.63866 v 5.3e-4 c 0.76888,0.76641 1.44624,1.40515 1.50534,1.41955 0.0591,0.0144 1.05839,-0.21607 2.22053,-0.51211 1.16214,-0.29605 3.04956,-0.64341 4.19406,-0.77205 1.14451,-0.12863 2.56444,-0.29737 3.15588,-0.37517 l 1.07539,-0.14159 0.13694,-1.82676 c 0.0751,-1.00467 0.17178,-5.46729 0.21498,-9.91723 l 0.0785,-8.09098 2.47944,-0.14573 c 1.36368,-0.0806 2.86845,-0.0844 3.34398,-0.008 1.12358,0.1797 1.51255,-0.20224 1.13327,-1.11311 -0.1515,-0.36382 -0.26114,-1.73829 -0.26614,-3.34501 -0.008,-2.28431 0.0509,-2.794 0.36019,-3.13573 0.61513,-0.67971 0.4451,-1.26451 -0.65268,-2.24896 -2.90916,-2.608857 -5.03967,-4.834873 -5.14903,-5.378997 -0.0649,-0.322646 -0.24688,-0.693229 -0.40412,-0.823722 -0.31167,-0.258667 -3.16872,-0.473038 -6.35051,-0.49971 z m -82.606847,0.548288 c 0.0414,-0.0013 0.0785,3e-6 0.11059,0.0047 0.32652,0.0465 -0.21301,0.403029 -1.79059,1.18184 -1.24204,0.613164 -2.52052,1.362986 -2.84065,1.666566 -0.32013,0.303583 -0.61022,0.544033 -0.64492,0.534334 -0.35426,-0.09842 -1.46141,-0.652291 -1.46141,-0.731221 0,-0.189056 1.59891,-0.907939 3.11867,-1.401982 0.82802,-0.269174 1.87587,-0.675474 2.32854,-0.902788 0.39609,-0.198906 0.89022,-0.34295 1.17977,-0.351398 z m 48.601167,0.178816 c 0.72791,0 0.65305,0.07607 -1.80144,1.82831 l -2.56108,1.828314 -1.39837,-0.0083 -1.39836,-0.0083 0.85473,-0.731737 c 0.81652,-0.698683 3.67014,-2.409489 3.4649,-2.077395 -0.0541,0.08748 -0.78071,0.637786 -1.61437,1.223182 -1.40874,0.989198 -1.79185,1.386996 -1.33687,1.386996 0.10202,0 0.56179,-0.303517 1.02164,-0.674894 1.95053,-1.57525 4.00356,-2.76624 4.76922,-2.76624 z m -58.196447,0.02635 c 0.0373,7.94e-4 0.0631,0.0078 0.0765,0.02119 0.1152,0.11521 0.12335,1.54084 0.015,2.62206 -0.045,0.450056 -0.35352,0.859671 -1.09709,1.456243 -0.56896,0.456488 -1.97675,1.650534 -3.12849,2.653584 -1.15174,1.00305 -2.15395,1.82366 -2.22725,1.82366 -0.0733,0 -0.13333,-0.32327 -0.13333,-0.7183 0,-0.53597 0.12257,-0.77406 0.48369,-0.93896 0.26615,-0.12154 0.89228,-0.56263 1.39113,-0.97979 0.49886,-0.41716 1.70799,-1.220619 2.68718,-1.785417 0.97919,-0.564796 1.66357,-1.06553 1.52084,-1.11311 -0.37431,-0.124765 -2.8224,1.29378 -4.37545,2.535247 -0.73261,0.58562 -1.45407,1.06453 -1.603,1.06453 -0.14893,0 -0.3139,-0.29563 -0.3669,-0.65681 -0.0743,-0.50619 0.006,-0.71048 0.35191,-0.891931 0.24659,-0.129463 1.22255,-0.791001 2.16886,-1.470194 1.83604,-1.317776 3.32325,-2.142506 3.86282,-2.142506 0.18215,0 0.33124,-0.0972 0.33124,-0.21549 0,-0.66548 -1.66263,0.05802 -4.20026,1.827279 -2.61566,1.823627 -2.682,1.846403 -2.682,0.927076 0,-0.684874 0.11057,-0.799946 1.68516,-1.751833 1.56351,-0.945179 4.68007,-2.279369 5.23948,-2.266526 z m 59.919857,0.04961 c 0.16648,-0.01402 0.32973,0.0077 0.53485,0.04237 l 0.85835,0.144695 -1.87379,0.991672 c -1.03069,0.545266 -2.27019,1.357048 -2.75435,1.804021 -0.58697,0.541894 -1.08347,0.812872 -1.48984,0.812872 -0.33517,0 -0.60382,-0.07303 -0.59582,-0.161748 0.008,-0.08872 1.13489,-0.965401 2.50527,-1.948717 1.78606,-1.281599 2.3159,-1.643121 2.81533,-1.685168 z m 2.75797,0.142626 c 0.99262,0.0081 0.93682,0.360908 -0.15089,0.952913 -0.60713,0.330441 -1.72808,1.072724 -2.49081,1.650029 -1.25445,0.949521 -1.49363,1.048864 -2.50475,1.040762 l -1.11776,-0.0088 0.79426,-0.701765 c 0.92466,-0.817515 4.87899,-2.937954 5.46995,-2.933155 z m -51.918787,0.131776 c 0.1966,-0.0043 0.37202,0.03402 0.57981,0.106452 0.36428,0.12699 0.66249,0.305308 0.66249,0.396359 0,0.206897 -4.3307,2.372633 -4.74803,2.374533 -0.16825,7.93e-4 -0.55891,0.132939 -0.86765,0.294036 -0.55998,0.292198 -1.26659,0.126704 -1.26659,-0.296621 0,-0.275601 2.65956,-1.822178 4.23385,-2.461866 0.69208,-0.281218 1.07844,-0.405813 1.40612,-0.412893 z m 28.026187,0.120404 c 0.0387,0.04475 -0.23975,0.409382 -0.84026,1.096057 -0.75265,0.860658 -1.433107,1.444358 -1.684127,1.444358 -0.31518,0 -0.11062,-0.284252 0.811837,-1.12913 1.08876,-0.997207 1.66274,-1.468816 1.71255,-1.411285 z m 26.29246,0.08785 c 0.0694,0.0024 0.13791,0.0098 0.20774,0.02119 1.02541,0.167741 0.85793,0.962409 -0.21963,1.041797 -0.21378,0.01574 -0.7476,0.367019 -1.18649,0.780833 -0.43889,0.413814 -1.07727,0.961811 -1.41852,1.218012 -0.62151,0.466619 -1.19269,0.5334 -2.38125,0.278537 l -0.63614,-0.135911 0.85112,-0.668692 c 0.46801,-0.367789 1.6251,-1.109993 2.57142,-1.648994 1.20308,-0.685245 1.72572,-0.903989 2.21175,-0.886767 z m 32.28226,0.454234 0.55449,0.658876 0.55449,0.658873 -0.59583,0.420646 c -0.86483,0.610592 -2.93631,1.609989 -4.78937,2.310455 -0.88717,0.335357 -1.75837,0.724597 -1.9358,0.865067 -0.37171,0.29427 -4.7315,0.61282 -4.7315,0.34571 0,-0.22849 4.69409,-2.567761 7.20473,-3.590477 1.93715,-0.789098 2.43277,-1.073501 2.22777,-1.278474 -0.26495,-0.264949 -6.72777,2.681689 -9.6144,4.383711 -0.98867,0.58294 -1.32533,0.66508 -2.73109,0.66508 -0.88197,0 -1.60353,-0.0884 -1.60353,-0.19637 0,-0.1888 5.15907,-3.135823 7.86877,-4.494821 1.26234,-0.633092 1.42094,-0.657863 4.44986,-0.702283 z m -8.1101,0.109556 c 0.38198,0.0016 0.32083,0.0831 0.0698,0.285769 -0.23657,0.190981 -1.01057,0.643212 -1.72031,1.004591 -0.70974,0.361381 -2.52229,1.369592 -4.02766,2.24069 -2.7075,1.566731 -3.49289,1.827201 -3.99459,1.325501 -0.45371,-0.45371 -0.28438,-0.68593 1.35547,-1.857769 2.35221,-1.680882 4.96206,-2.756156 7.09673,-2.924371 0.60254,-0.04745 0.99141,-0.07543 1.22059,-0.07441 z m -76.549327,0.09974 c 0.20605,-0.01299 0.35995,0.05651 0.5855,0.173114 0.98261,0.508127 0.92928,0.657609 -0.38034,1.065054 -0.67484,0.209949 -2.08365,0.710139 -3.13056,1.111559 -1.88188,0.721577 -3.01401,0.909328 -3.24322,0.538467 -0.0649,-0.105066 0.3889,-0.353872 1.00873,-0.553453 0.61983,-0.19958 2.02581,-0.840377 3.12436,-1.423686 1.20393,-0.639265 1.69207,-0.889399 2.03553,-0.911055 z m 70.781207,0.08423 1.53686,0.01601 -1.39837,0.642339 c -0.76888,0.353208 -2.08623,1.168797 -2.92747,1.812293 -0.84124,0.643493 -1.61669,1.169953 -1.72341,1.169953 -0.24592,0 -1.29257,-1.676776 -1.1777,-1.886707 0.0471,-0.08605 1.00058,-0.51966 2.11925,-0.963247 1.71186,-0.678802 2.27751,-0.804061 3.57084,-0.790649 z m -8.14782,0.05994 c 0.0883,-0.0127 0.1814,0.08264 0.24598,0.264584 0.32551,0.917175 0.72339,1.738577 1.15858,2.391584 l 0.45889,0.688848 -1.3286,0.977715 c -1.49138,1.09789 -1.82043,1.19789 -1.63194,0.49455 0.0713,-0.26615 0.13029,-0.68716 0.13229,-0.93535 0.002,-0.317064 0.25898,-0.566619 0.86351,-0.839222 0.47316,-0.213366 0.86041,-0.46967 0.86041,-0.569992 0,-0.249685 -0.37178,-0.229314 -0.89297,0.04961 -0.2389,0.127863 -0.47663,0.190482 -0.52813,0.13901 -0.13648,-0.13648 0.35884,-2.379486 0.57671,-2.611726 0.0272,-0.02902 0.0558,-0.04538 0.0853,-0.04961 z m 4.12171,0.05839 c 0.27886,-0.0038 0.46393,0.0016 0.48783,0.01757 0.0477,0.03175 -0.4632,0.30116 -1.13534,0.598414 -1.59287,0.704442 -1.85518,0.686937 -1.85518,-0.122473 0,-0.312963 0.24359,-0.389112 1.45211,-0.454753 0.39923,-0.02167 0.77172,-0.03492 1.05058,-0.03876 z m -12.14448,0.08113 c 0.0983,0 0.1788,0.316087 0.1788,0.702799 0,0.636807 -0.12098,0.770001 -1.28467,1.409735 -0.70666,0.38849 -1.34157,0.797531 -1.41077,0.909505 -0.0692,0.111969 -0.22349,0.203605 -0.34313,0.203605 -0.11962,0 0.43428,-0.725652 1.23145,-1.612821 0.79717,-0.887177 1.53002,-1.612823 1.62832,-1.612823 z m -25.2243,0.133842 c 0.033,-0.0068 0.0564,-0.0071 0.0692,0.0011 0.0936,0.0579 0.17053,0.434626 0.17053,0.837158 0,0.690991 -0.12712,0.816747 -2.27583,2.245857 -1.25173,0.832524 -2.31625,1.513604 -2.36575,1.513604 -0.0494,0 -0.0899,-0.3436 -0.0899,-0.76326 0,-0.553859 0.16186,-0.915674 0.59118,-1.320333 0.77839,-0.733684 3.40588,-2.411778 3.90054,-2.51406 z m 22.66012,0.613918 c 0.0284,0.02823 -0.19282,0.297548 -0.69092,0.818555 -0.64656,0.676285 -1.20301,1.229381 -1.23661,1.229381 -0.24025,0 0.0485,-0.445836 0.6382,-0.985986 0.80383,-0.736335 1.25275,-1.098248 1.28933,-1.06195 z m 34.23667,0.499192 0.61081,0.684197 0.61082,0.68368 -1.52187,0.729155 c -0.8371,0.401167 -1.57908,0.877417 -1.64848,1.058337 -0.10413,0.27136 -0.58327,0.32671 -2.73782,0.31471 -2.06694,-0.0115 -2.4994,-0.0632 -2.07377,-0.24702 0.29572,-0.12768 1.9377,-0.905092 3.64887,-1.727541 z m -84.840817,0.612883 c 0.1466,0.0019 0.22427,0.05792 0.22427,0.172083 0,0.160948 -0.43087,0.545555 -0.95756,0.854212 -0.52668,0.308663 -1.66376,1.130461 -2.52698,1.826241 -0.86321,0.69578 -1.93249,1.57246 -2.37608,1.94821 -0.44359,0.37574 -0.81659,0.65158 -0.82889,0.61339 -0.0124,-0.0382 -0.0453,-0.43931 -0.0734,-0.89193 -0.0495,-0.79757 -0.004,-0.85491 1.47381,-1.84692 2.50095,-1.678373 4.42956,-2.683837 5.06481,-2.675286 z m 53.248947,0.07545 c 0.054,0 0.0982,0.325649 0.0982,0.723469 0,0.669488 -0.12775,0.804833 -1.72031,1.818497 l -1.72082,1.09502 v -0.70538 c 0,-0.45589 0.17154,-0.86409 0.48421,-1.152905 0.45098,-0.416557 2.64013,-1.778701 2.85874,-1.778701 z m -25.05842,0.430434 c 0.38853,0 0.21101,0.782767 -0.27544,1.214395 -1.28576,1.140847 -4.20954,3.268567 -4.32842,3.149677 -0.34938,-0.34937 -0.0739,-1.14691 0.60152,-1.73994 0.8755,-0.7687 3.70554,-2.624132 4.00234,-2.624132 z m -6.136057,0.537435 0.0615,2.255677 c 0.034,1.24057 0.15538,2.34854 0.26923,2.46238 0.410357,0.41036 0.190167,0.50169 -0.70745,0.29352 -0.56042,-0.12996 -1.95405,-0.14623 -3.60236,-0.0419 -1.47862,0.0936 -3.02712,0.17931 -3.44114,0.19017 -1.52691,0.0401 -1.55597,0.10844 -1.55597,3.64268 0,3.9279 -0.11914,3.79058 3.41477,3.94653 1.35006,0.0596 2.493,0.17059 2.5399,0.24649 0.0469,0.0759 0.10878,1.3888 0.13746,2.91765 l 0.0522,2.77968 -2.0252,-0.0517 c -1.11394,-0.0285 -2.4233,-0.10608 -2.90938,-0.17208 -0.7421,-0.10081 -0.90029,-0.0552 -0.98909,0.28422 -0.20163,0.77105 0.16955,6.97387 0.42685,7.13289 0.13588,0.084 2.1135,0.32391 4.39508,0.53279 2.28158,0.20888 4.2381,0.46898 4.34754,0.57826 0.210057,0.20978 0.205857,1.86637 -0.0114,4.45709 -0.14668,1.74984 -0.0359,1.68073 -2.12339,1.32602 -0.59145,-0.1005 -3.01113,-0.33713 -5.37693,-0.52555 -4.94304,-0.39367 -8.71214,-0.878 -8.98912,-1.15497 -0.11154,-0.11151 -0.0987,-0.67103 0.031,-1.34307 0.12232,-0.63367 0.33041,-3.42654 0.46251,-6.20634 0.13209,-2.77981 0.37702,-6.65131 0.54415,-8.60309 0.16712,-1.95177 0.40669,-5.72169 0.53227,-8.37779 0.25192,-5.32863 0.31153,-5.753697 0.82734,-5.906097 0.49642,-0.146672 7.29874,-0.525818 10.7859,-0.600996 z m 64.421907,0.05633 1.05729,0.989087 c 1.01804,0.95226 1.12871,1.2195 0.44029,1.06505 -0.17744,-0.0398 -1.3392,-0.15048 -2.58124,-0.24546 l -2.25826,-0.1726 1.6707,-0.81804 z m -86.565777,0.08372 c 0.22271,-0.01871 0.26999,0.17436 0.20826,0.559138 -0.0522,0.325299 -0.1533,1.416069 -0.2248,2.424139 l -0.13022,1.83297 -2.12132,1.13171 c -1.16683,0.62232 -2.72246,1.57361 -3.45664,2.11408 l -1.3348,0.98237 0.11317,-1.00614 c 0.14563,-1.29202 0.58372,-1.74497 4.10673,-4.2509 1.52654,-1.08584 2.66737,-2.0101 2.53525,-2.05414 -0.1991,-0.0664 -3.27243,2.01522 -5.67253,3.84214 l -0.59169,0.4501 0.0139,-0.50177 c 0.0148,-0.53357 1.70065,-2.10372 4.6824,-4.3615 1.0094,-0.76429 1.58589,-1.138155 1.87224,-1.162197 z m 37.303147,0.205155 c 0.55593,-0.0013 1.39384,0.0288 2.6696,0.08061 4.87906,0.198274 8.42043,0.457012 8.7111,0.636662 0.14422,0.0891 0.23616,0.92923 0.23616,2.15852 0,1.40585 0.0809,2.04681 0.26872,2.12648 0.14786,0.0627 -0.16637,0.0468 -0.69867,-0.0357 -1.11144,-0.17213 -7.22234,-0.20501 -7.38714,-0.0398 -0.0603,0.0604 -0.13123,1.44403 -0.15813,3.07475 -0.0601,3.6378 -0.1299,3.55326 3.08663,3.7667 l 2.20038,0.14572 0.06,2.58073 0.0599,2.58123 -2.48873,-0.0186 c -1.39561,-0.0103 -2.54522,0.0728 -2.61742,0.18966 -0.15243,0.24664 -0.12498,2.31549 0.0656,4.93665 l 0.13695,1.88205 h 3.84369 c 2.92435,0 3.84641,0.0642 3.85661,0.26872 0.0343,0.69165 -0.043,4.40529 -0.0997,4.78627 -0.056,0.37643 -0.23245,0.43067 -1.44023,0.43667 -0.75714,0.004 -4.12619,0.0919 -7.48636,0.19533 l -6.10919,0.18811 0.13953,-1.27073 c 0.0767,-0.69897 0.28365,-3.73875 0.45992,-6.75514 0.17627,-3.01639 0.46574,-7.17795 0.64337,-9.24801 0.17763,-2.07007 0.41843,-5.61116 0.53485,-7.86878 0.11643,-2.25761 0.2771,-4.27634 0.3576,-4.486029 0.0846,-0.220376 0.22842,-0.309787 1.15497,-0.312123 z m -41.481187,0.04392 c 0.21146,-0.0109 0.0239,0.200957 -0.61185,0.620122 -1.475,0.97244 -1.7787,1.09318 -1.7787,0.70693 0,-0.20609 0.47587,-0.5598 1.19682,-0.88987 0.62351,-0.285448 1.02926,-0.42871 1.19373,-0.437182 z m 67.618087,0.465602 c 0.0315,-0.003 0.0528,2e-4 0.0631,0.0114 0.0822,0.0885 0.0285,0.20403 -0.11937,0.25684 -0.38254,0.13663 -0.33339,0.49041 0.0682,0.49041 0.25098,0 0.29847,0.12345 0.18604,0.48369 -0.17838,0.57162 -0.0637,0.46846 -1.79318,1.61437 -0.75765,0.50201 -1.45918,0.9126 -1.55907,0.9126 -0.0999,0 -0.1819,-0.41852 -0.1819,-0.93017 0,-0.92409 0.0106,-0.9371 1.6247,-1.95957 0.78199,-0.49537 1.49141,-0.85631 1.71152,-0.87953 z m -9.93169,0.14986 c 0.12659,0.005 0.14315,0.13334 0.14315,0.36743 0,0.24245 -0.49501,0.77175 -1.23662,1.32188 -0.68017,0.50455 -1.50251,1.16331 -1.8278,1.46399 l -0.59169,0.54674 v -0.64544 c 0,-0.74906 0.63287,-1.4208 2.28203,-2.42311 0.72376,-0.43986 1.06817,-0.63784 1.23093,-0.63148 z m 10.3911,1.89912 c 0.0416,0 0.0754,0.33627 0.0754,0.74724 h 5.3e-4 c 0,0.70113 -0.1195,0.82717 -1.9358,2.04845 l -1.9358,1.30173 v -0.95911 c 0,-0.73556 0.0907,-0.98757 0.38861,-1.08211 0.21356,-0.0678 1.0504,-0.55822 1.85983,-1.08986 0.80942,-0.53163 1.50559,-0.96634 1.54719,-0.96634 z m 12.69328,0.33848 c 6.48246,0.009 11.46285,0.10354 11.90057,0.22479 l 0.75292,0.20826 -0.10748,1.17357 c -0.0592,0.64536 -0.0911,2.05513 -0.0703,3.13262 l 0.0382,1.95905 -3.14762,0.15297 c -1.73116,0.0842 -3.21452,0.19409 -3.29592,0.24443 -0.0814,0.0503 -0.16147,2.00308 -0.17776,4.33978 -0.0378,5.41395 -0.37396,15.32653 -0.52504,15.47761 -0.0634,0.0634 -1.01471,0.20423 -2.11408,0.31316 -1.09936,0.10893 -2.93391,0.38767 -4.07624,0.61908 -1.14233,0.23141 -2.19132,0.42065 -2.33112,0.42065 -0.18399,0 -0.23987,-0.69739 -0.20257,-2.52698 0.0844,-4.13709 1.06598,-15.81319 1.40301,-16.69148 0.20593,-0.53667 -0.38088,-0.66485 -2.728,-0.59635 -2.92374,0.0854 -6.35814,-0.34153 -6.55154,-0.81442 -0.25981,-0.63532 -0.38454,-7.08788 -0.14262,-7.37888 0.17913,-0.21546 2.59894,-0.27051 11.37553,-0.25786 z m -12.91652,2.18333 c 0.15428,0.0352 0.1896,0.32737 0.11058,0.89813 -0.0148,0.10679 -0.55142,0.54277 -1.19269,0.96842 -0.64127,0.42565 -1.29728,0.82413 -1.45779,0.88573 -0.28825,0.11061 -0.81752,-0.2617 -0.81752,-0.57516 0,-0.17936 2.89602,-2.09883 3.28404,-2.17661 0.0269,-0.005 0.0513,-0.006 0.0734,-5.3e-4 z m -64.028137,0.18758 c 0.0455,2.6e-4 0.076,0.0113 0.0894,0.0346 0.0503,0.0875 0.0312,1.07116 -0.0424,2.1854 l -0.13384,2.02571 -1.29087,0.66301 c -1.39355,0.71618 -2.83513,1.66958 -4.4819,2.96313 -0.5725,0.4497 -1.13463,0.81752 -1.24954,0.81752 -0.1273,0 -0.14954,-0.39952 -0.0568,-1.02164 0.10536,-0.70732 0.32439,-1.17217 0.7121,-1.51154 0.51719,-0.45271 4.37243,-3.08293 5.29477,-3.61218 0.25707,-0.14749 0.31725,-0.28258 0.16743,-0.37517 -0.22667,-0.14009 -3.4193,1.83035 -5.06377,3.12539 l -0.80615,0.6351 v -0.72709 c 0,-0.55912 0.18602,-0.9063 0.80615,-1.50223 1.29104,-1.24065 5.37324,-3.70478 6.05544,-3.70003 z m 18.92753,0.28629 c 0.149,0.002 0.23461,0.0605 0.23461,0.185 0,0.18016 -1.06288,1.08232 -3.03134,2.57452 -0.66152,0.50146 -1.2663,0.91209 -1.3441,0.91209 -0.34329,0 -0.0962,-1.04168 0.34261,-1.44487 1.30836,-1.20205 3.15256,-2.23708 3.79822,-2.22674 z m 27.060877,0.0109 c 0.36883,-0.0193 0.38304,0.25963 -0.21136,0.79581 -0.26615,0.24009 -1.13733,0.93652 -1.93579,1.54771 -1.39954,1.07129 -1.4516,1.09186 -1.4516,0.57051 0,-0.58035 0.68245,-1.29147 2.21434,-2.30787 0.59592,-0.39538 1.09755,-0.59115 1.38441,-0.60616 z m -2.34456,0.22789 0.57412,0.009 -0.74465,0.63665 c -0.90183,0.77085 -1.08366,0.79142 -1.08366,0.12196 0,-0.55956 0.36141,-0.78099 1.25419,-0.7674 z m -27.331147,0.14211 c 0.16565,0 0.2682,0.0166 0.2682,0.0501 -1e-5,0.0671 -0.31422,0.36972 -0.69866,0.67283 -1.21615,0.95891 -1.27465,0.96718 -1.19838,0.17001 0.0643,-0.67132 0.13246,-0.72927 0.9834,-0.84284 0.25137,-0.0336 0.47977,-0.0501 0.64544,-0.0501 z m 29.948557,0.68316 v 0.54932 c 0,0.57924 -1.01105,1.46204 -2.62619,2.29289 -0.90436,0.46521 -1.03043,0.49083 -1.03043,0.21187 0,-0.22982 1.23647,-1.31648 2.66443,-2.34198 z m 17.83561,0.24185 c 0.14539,0 0.22996,0.67289 0.22996,1.82779 0,1.00544 -0.0336,1.82832 -0.0749,1.82832 -0.0414,0 -0.45282,-0.27715 -0.91416,-0.61599 -1.07514,-0.78966 -1.96059,-1.74976 -1.61385,-1.74976 0.14716,0 0.68931,-0.29057 1.20509,-0.64544 0.51576,-0.35487 1.04134,-0.64492 1.16789,-0.64492 z m -45.150737,0.0351 c 0.11981,-0.0117 0.15725,0.0781 0.18294,0.23771 0.0936,0.58197 -0.88856,1.51474 -2.73472,2.59674 -1.45143,0.85062 -1.53376,0.88273 -1.53376,0.59532 0,-0.36678 0.76463,-1.101 2.47324,-2.37454 0.98428,-0.73364 1.41262,-1.03571 1.6123,-1.05523 z m 29.435927,1.62677 c 0.036,-0.002 0.0612,0.004 0.0749,0.0176 0.12481,0.12481 -0.33171,0.49924 -1.20302,0.9865 -0.77233,0.43191 -1.46246,0.87989 -1.53376,0.99529 -0.1648,0.26664 -0.74982,0.27517 -0.74982,0.0109 0,-0.3228 2.87216,-1.98436 3.41167,-2.01021 z m -26.749267,0.0584 c 0.66696,0 0.27267,0.35784 -1.603,1.45418 -1.68908,0.98727 -2.58847,1.34614 -2.58847,1.03249 0,-0.18788 3.87473,-2.48667 4.19147,-2.48667 z m 28.232897,0 c 0.29872,0 -1.21995,1.14852 -2.48873,1.88206 -0.4587,0.26519 -1.30106,0.38225 -1.06712,0.14831 0.37763,-0.37765 3.27205,-2.03037 3.55585,-2.03037 z m -26.33586,0.009 c 0.10015,0.007 0.14883,0.0656 0.14883,0.17519 0,0.20312 -2.327027,1.70145 -3.304187,2.12752 -0.62618,0.27302 -1.21233,0.35334 -1.21233,0.16588 0,-0.0567 0.41091,-0.31134 0.91364,-0.56586 0.50272,-0.25452 1.40807,-0.78905 2.01176,-1.18752 0.7518,-0.49624 1.221977,-0.73081 1.442287,-0.71521 z m 27.69134,0.85111 c 0.12728,0 0.19873,0.29956 0.16123,0.67593 -0.0558,0.55922 -0.37387,0.9154 -1.84175,2.06189 l -1.77405,1.38545 v -0.73174 c 0,-0.66735 0.14209,-0.83143 1.61282,-1.85829 0.88717,-0.61942 1.61334,-1.2176 1.61334,-1.32963 0,-0.11203 0.10263,-0.20361 0.22841,-0.20361 z m -26.11004,0.21189 c 0.15402,7.9e-4 0.28784,0.27534 0.28784,0.73846 0,0.66585 -0.14739,0.84228 -1.55908,1.86396 -0.8576,0.62067 -1.873817,1.3662 -2.258257,1.65623 l -0.69918,0.5271 v -0.83716 c 0,-0.81748 0.0456,-0.8672 1.91771,-2.08204 1.054717,-0.68443 1.971267,-1.38368 2.036567,-1.55391 0.0826,-0.21529 0.18199,-0.31317 0.2744,-0.31264 z m -25.412917,0.41909 0.062,1.98025 c 0.0343,1.08916 0.0175,2.09699 -0.0372,2.23965 -0.0548,0.14265 -1.14754,0.81635 -2.42827,1.49707 -1.28073,0.68072 -2.87325,1.56368 -3.53932,1.96164 -0.66606,0.39797 -1.27963,0.72346 -1.36323,0.72346 -0.34122,0 0.1663,-1.84775 0.60565,-2.20503 0.64072,-0.52105 3.43445,-2.15238 4.9258,-2.87631 1.2101,-0.58738 1.70308,-1.11803 0.76119,-0.81907 -0.59587,0.18912 -4.58653,2.36087 -5.3976,2.93729 -0.7151,0.5082 -0.95631,0.371 -0.62529,-0.35554 0.30865,-0.67742 3.92602,-3.46589 5.67873,-4.37751 z m -26.3834,0.33693 0.23358,0.60513 c 0.12838,0.333 0.23357,0.74179 0.23357,0.90848 0,0.16669 -0.29056,0.45366 -0.64543,0.63717 -0.75975,0.39288 -0.77241,0.33365 -0.23306,-1.07539 z m 78.012807,1.0201 c 0.079,0.0114 0.0951,0.10163 0.0951,0.24546 0,0.18362 -0.79817,1.10864 -1.77405,2.05517 -2.11975,2.056 -1.9373,2.33332 0.22066,0.33538 0.83047,-0.76888 1.56808,-1.39785 1.63918,-1.39785 0.0711,0 0.12919,0.23535 0.12919,0.52349 0,0.39057 -0.39657,0.84609 -1.55908,1.78955 -2.33602,1.89588 -2.312,1.89399 -2.312,0.16795 v -1.10329 l 1.63039,-1.28055 c 1.27885,-1.00443 1.75676,-1.36043 1.93063,-1.33531 z m -26.1059,0.50694 c 0.15409,-0.0195 0.17391,0.11511 0.17053,0.34727 -0.005,0.3528 -0.58152,0.97423 -2.04329,2.20297 -1.867047,1.56963 -2.309597,2.05403 -1.874807,2.05103 0.0887,-5.3e-4 0.95135,-0.67786 1.917187,-1.50533 0.96583,-0.82748 1.84969,-1.5043 1.96422,-1.5043 0.11454,0 0.25676,0.18552 0.31626,0.41289 0.12555,0.48012 -0.38112,1 -2.41897,2.48202 -2.103727,1.52994 -2.111917,1.53286 -2.269117,0.69505 -0.3195,-1.70317 -0.13216,-2.06661 1.83142,-3.54552 1.519447,-1.14441 2.149747,-1.60368 2.406567,-1.63608 z m -51.385487,0.77308 c 0.13208,0.0177 0.15365,0.18342 0.21755,0.5178 0.0931,0.48716 -0.008,0.61156 -0.78134,0.96273 -0.48865,0.22189 -1.05592,0.40524 -1.26039,0.40825 -0.63663,0.008 0.0183,-1.04597 0.94309,-1.51774 0.50614,-0.25821 0.74901,-0.38869 0.88109,-0.37104 z m 96.935157,0.0357 c 0.12803,0.006 0.28081,0.0322 0.47646,0.0744 l 0.79168,0.17053 -1.27537,0.69298 c -1.38139,0.75092 -1.69194,0.56462 -0.79168,-0.47542 0.26584,-0.30712 0.42608,-0.44062 0.67851,-0.46095 0.0379,-0.003 0.0777,-0.003 0.1204,-0.002 z m 2.42156,0.21498 c 0.14943,0.016 0.16692,0.16838 0.16692,0.42323 0,1.05083 -0.39416,1.55844 -2.11925,2.72903 -1.59498,1.08232 -2.03524,1.50171 -1.57665,1.50171 0.0963,0 0.79776,-0.41622 1.55908,-0.925 0.76132,-0.50879 1.50526,-0.99863 1.65313,-1.08831 0.19323,-0.1172 0.26871,0.0329 0.26871,0.53382 0,0.5461 -0.20347,0.88585 -0.94154,1.572 -0.51785,0.48143 -1.37859,1.1885 -1.91306,1.57147 l -0.97204,0.6966 -0.0806,-0.84749 c -0.0445,-0.46602 -0.0445,-1.57486 5.3e-4,-2.46393 l 0.0816,-1.61644 1.64383,-0.9617 c 1.28006,-0.74927 1.87854,-1.08872 2.15698,-1.12344 0.0271,-0.003 0.051,-0.004 0.0723,-0.002 z m -99.135027,1.42781 c 0.10971,0.002 0.15399,0.0474 0.15399,0.13281 0,0.16368 0.008,0.35813 0.0155,0.43253 0.008,0.0744 -0.68338,0.52114 -1.53737,0.99271 l -1.55288,0.85783 0.14159,-0.70848 c 0.0779,-0.38951 0.16497,-0.7278 0.19327,-0.7519 0.0283,-0.0241 0.65647,-0.28575 1.39578,-0.58187 0.64291,-0.25752 1.00726,-0.37645 1.19011,-0.37363 z m 25.42015,0.86042 c 0.0618,0 0.11214,0.43495 0.11214,0.96635 v 0.96583 l -2.09703,0.97565 c -2.37666,1.10565 -4.78524,2.65021 -4.78524,3.06854 0,0.15984 0.43928,-0.0566 1.02164,-0.50332 1.13556,-0.87113 5.33435,-2.97721 5.6038,-2.81069 0.0946,0.0585 0.11862,0.55712 0.0532,1.10795 l -0.11886,1.00149 -2.25826,1.01079 c -2.21691,0.99204 -4.544,2.34268 -4.82813,2.80241 -0.24621,0.39837 -0.54912,0.25585 -0.53433,-0.25115 0.008,-0.26615 0.13387,-1.33042 0.2806,-2.36523 0.29666,-2.09229 0.24812,-2.02661 2.50114,-3.36568 1.39402,-0.82854 4.83614,-2.60295 5.0493,-2.60295 z m -25.21758,0.44752 c 0.0232,-0.003 0.0389,-10e-4 0.0455,0.005 0.0615,0.0615 0.13792,0.33123 0.17002,0.59944 0.0502,0.41883 -0.13878,0.56214 -1.33894,1.01803 -0.76854,0.29194 -1.48925,0.62316 -1.60197,0.73587 -0.11272,0.11274 -0.28264,0.20516 -0.37724,0.20516 -0.27401,0 -0.19924,-0.78697 0.0966,-1.01648 0.54895,-0.42581 2.65795,-1.50102 3.00602,-1.54719 z m 8.7514,0.3054 0.009,0.69453 c 0.008,0.59761 -0.11098,0.75569 -0.85111,1.13327 -0.47316,0.24141 -0.85964,0.36447 -0.85938,0.27337 2.7e-4,-0.0911 0.38331,-0.60147 0.85111,-1.13378 z m -8.37003,1.20613 v 0.44132 c 0,0.31941 -0.0968,0.40457 -0.34985,0.30747 -0.19243,-0.0739 -0.46584,-0.0382 -0.60771,0.0796 -0.47874,0.3973 -2.68044,1.28705 -2.78123,1.12396 -0.15953,-0.25811 1.17107,-1.06883 2.50889,-1.5291 z m 131.379577,0.16588 c 0.0409,0.1568 0.0865,0.31292 0.14108,0.46767 0.11561,0.32768 0.25406,0.63507 0.41496,0.92294 -0.18842,-0.46208 -0.36851,-0.92819 -0.55604,-1.39061 z m -33.17627,0.50591 c 0.1083,0.005 0.096,0.27512 -0.003,1.02475 -0.0873,0.66051 -0.29188,1.25834 -0.46353,1.35444 -0.169,0.0946 -0.855,0.6513 -1.52446,1.23713 -0.66946,0.58583 -1.29898,1.06505 -1.39888,1.06505 -0.0999,0 -0.18138,-0.42463 -0.18138,-0.94361 0,-0.98298 0.15849,-1.15278 3.42149,-3.66231 0.0641,-0.0493 0.11376,-0.0771 0.14986,-0.0755 z m -90.127827,0.20619 c 0.0909,0.0174 0.0997,0.13105 0.0625,0.37517 -0.0546,0.35798 -0.41696,0.6205 -1.45314,1.05213 -0.75915,0.31626 -1.42093,0.69835 -1.47123,0.84957 -0.0579,0.17426 0.35864,0.0759 1.13792,-0.26872 1.43481,-0.63454 1.92422,-0.69192 1.73684,-0.20361 -0.0719,0.1871 -0.13074,0.41363 -0.13074,0.50333 0,0.16633 -0.88123,0.47366 -2.54041,0.88573 -0.51013,0.12671 -1.06659,0.28362 -1.23662,0.34882 -0.55549,0.21316 -0.32753,-0.24653 0.75912,-1.53169 0.60627,-0.71704 1.37331,-1.37519 1.77406,-1.52135 0.38836,-0.14164 0.88433,-0.33247 1.10174,-0.42427 0.12139,-0.0513 0.20538,-0.0756 0.25993,-0.0651 z m 60.640217,0.17363 c 0.91045,0 0.93799,0.17203 0.14935,0.9276 -0.78535,0.75243 -0.90227,0.72994 -0.90227,-0.17467 0,-0.71696 0.036,-0.75293 0.75292,-0.75293 z m 1.86862,0.0393 c 0.0298,-0.002 0.0585,-5.2e-4 0.0858,0.003 0.45664,0.0594 0.36422,0.20857 -0.98909,1.59422 -0.82108,0.84071 -1.54359,1.47742 -1.60559,1.41542 -0.50503,-0.50503 1.58425,-2.96281 2.50889,-3.01274 z m 0.41186,0.79427 c 0.0892,0.026 0.19036,0.26503 0.30386,0.71727 0.12834,0.51136 0.0718,0.5995 -0.46664,0.73071 -0.33683,0.0821 -0.93023,0.42514 -1.31878,0.76222 -1.10759,0.96083 -1.04607,0.72736 0.19224,-0.73122 0.62765,-0.73931 1.16946,-1.38472 1.20406,-1.43402 0.0271,-0.0386 0.0555,-0.0536 0.0853,-0.045 z m -29.917027,0.45734 c 1.04871,0 1.08329,0.23798 0.14056,0.95704 -0.39562,0.30174 -0.7823,0.54829 -0.8599,0.54829 -0.0775,0 -0.14108,-0.33892 -0.14108,-0.75292 0,-0.73486 0.0206,-0.75241 0.86042,-0.75241 z m 2.23604,0.0367 c 0.54994,0.0678 0.49922,0.14666 -1.12397,1.75751 -1.61206,1.59982 -1.7051,1.65906 -1.8035,1.14412 -0.15083,-0.789 2.08533,-3.00541 2.92747,-2.90163 z m -18.97455,1.0387 c 0.24575,0 0.27298,0.28971 0.14572,1.55908 -0.0859,0.8576 -0.16302,1.77924 -0.17001,2.04793 -0.008,0.29572 -0.2042,0.56771 -0.49713,0.68937 -0.26615,0.11053 -1.75167,0.73738 -3.30161,1.39319 -1.54993,0.65581 -2.97758,1.1927 -3.17242,1.1927 -0.19484,0 -0.35449,0.14503 -0.35449,0.32246 0,0.17744 0.0474,0.32246 0.1049,0.32246 0.0575,0 1.4533,-0.57684 3.10213,-1.2821 1.64883,-0.70524 3.26079,-1.34835 3.5817,-1.42885 0.57681,-0.14477 0.58165,-0.13683 0.42943,0.69091 -0.0847,0.46051 -0.23245,0.91851 -0.32815,1.01752 -0.21401,0.22136 -4.54833,0.9868 -5.64048,0.9958 -0.4366,0.004 -0.85346,0.10392 -0.92656,0.22221 -0.31188,0.50465 -0.75292,0.20068 -0.75292,-0.51883 0,-1.05738 1.03436,-1.83662 5.79551,-4.36718 0.88074,-0.46812 1.64049,-0.96975 1.68879,-1.11466 0.10576,-0.31732 -3.03128,1.24513 -5.50768,2.74299 l -1.78697,1.08055 0.0667,-0.67541 c 0.0519,-0.52821 0.32413,-0.87528 1.24902,-1.5906 1.19178,-0.92172 5.71372,-3.29954 6.27455,-3.29954 z m 73.665267,0.11834 c 0.0917,0.0178 0.0652,0.19439 0.0641,0.45527 -0.004,0.87957 -0.22547,1.57716 -0.50022,1.57716 -0.13088,0 -0.83321,0.58955 -1.56063,1.31052 l -1.3224,1.31103 -0.10697,-0.71934 c -0.15074,-1.01549 0.008,-1.30012 1.3193,-2.36161 1.47305,-1.19249 1.95406,-1.60276 2.10685,-1.57303 z m -54.270587,0.002 c 0.0636,0.002 0.11134,0.0377 0.15244,0.10129 0.35738,0.55261 0.1383,1.17103 -0.44287,1.24953 -0.29573,0.0399 -0.73132,0.23804 -0.9679,0.44029 -1.57598,1.34727 -1.56582,0.99825 0.0212,-0.72192 0.71393,-0.77388 1.04632,-1.07458 1.23714,-1.06919 z m 30.253957,0.0951 c 0.30595,0 0.26126,0.10046 -0.54208,1.22835 -0.48524,0.6813 -0.79181,0.90815 -1.23662,0.91415 -0.3253,0.004 -0.59124,-0.0643 -0.59118,-0.15296 1.5e-4,-0.24032 2.08377,-1.98954 2.36988,-1.98954 z m 2.59313,0 c 0.34565,0 0.62188,0.0725 0.61288,0.16123 -0.009,0.0887 -0.49654,0.57266 -1.08365,1.07539 -0.99155,0.84903 -1.69654,1.15537 -1.69654,0.73742 0,-0.097 0.34623,-0.58094 0.76946,-1.07539 0.57745,-0.67462 0.92625,-0.89865 1.39785,-0.89865 z m -1.57562,0.16898 c 0.11563,0.0327 -0.0826,0.45379 -0.64544,1.13171 -0.66523,0.8013 -1.02212,1.04248 -1.02112,0.68885 2.6e-4,-0.0887 0.38331,-0.59682 0.85111,-1.12913 0.44557,-0.50702 0.72552,-0.71686 0.81545,-0.69143 z m -2.65875,0.25528 c 0.25043,0.0133 -0.046,0.40602 -0.99787,1.09554 -0.82566,0.5981 -1.66657,0.83103 -1.66657,0.46147 0,-0.0933 0.51271,-0.48054 1.13947,-0.86041 0.80463,-0.48766 1.3302,-0.70689 1.52497,-0.6966 z m 6.47609,0.11938 0.0661,1.03249 c 0.0597,0.9331 -0.0114,1.11945 -0.73949,1.9327 -0.44316,0.49501 -0.90854,0.93685 -1.03405,0.98185 -0.12548,0.045 -0.45093,0.3356 -0.72295,0.64544 l -0.49455,0.56327 0.1385,-0.53795 c 0.18319,-0.71169 1.77865,-3.53199 2.34146,-4.13877 z m -31.703487,1.23506 c 0.0871,-0.001 0.15993,0.0354 0.23099,0.10646 0.18952,0.18951 0.0472,0.47989 -0.59169,1.20509 -0.70203,0.79684 -0.97582,0.95875 -1.64848,0.97565 -0.44359,0.0111 -0.8024,-0.0524 -0.7984,-0.14108 0.005,-0.0887 0.36757,-0.42497 0.80667,-0.74724 0.4391,-0.3223 1.06447,-0.8011 1.39009,-1.06402 0.28087,-0.22678 0.46564,-0.33311 0.61082,-0.33486 z m 30.061207,0.0165 c 0.0152,0.003 0.0232,0.0177 0.0222,0.0455 -0.004,0.11132 -0.14879,0.3905 -0.32246,0.62012 -0.17368,0.22957 -0.31303,0.3263 -0.30903,0.21497 0.004,-0.11132 0.14879,-0.3905 0.32246,-0.62011 0.13027,-0.17218 0.24119,-0.26943 0.28681,-0.26045 z m -28.48973,0.20154 c 0.0269,-0.004 0.0474,2.4e-4 0.0605,0.0134 0.0858,0.0858 -0.33504,0.64714 -0.935347,1.24747 -0.6003,0.60031 -1.14808,1.00032 -1.21698,0.88883 -0.14969,-0.24221 1.68906,-2.09188 2.091867,-2.14974 z m -3.402377,0.154 c 0.48346,0 0.22028,0.30382 -0.91415,1.05523 -0.92137,0.6103 -2.22157,0.90099 -2.22157,0.49661 0,-0.21673 2.69779,-1.55184 3.13572,-1.55184 z m 4.981087,0.0243 c 0.0888,0.002 0.18562,0.008 0.29353,0.0155 l 0.94568,0.0677 -1.46193,1.02164 c -1.33087,0.9299 -2.302187,1.28882 -2.302187,0.85111 0,-0.0937 0.42137,-0.58391 0.936377,-1.08934 0.74799,-0.73413 0.9672,-0.88236 1.58853,-0.86662 z m 47.45706,0.19068 c 0.1,0 0.13945,0.58403 0.0878,1.2976 -0.0892,1.23314 -0.15141,1.35554 -1.25522,2.47323 -1.54432,1.56354 -1.92857,1.56482 -1.92857,0.005 0,-0.80599 0.12869,-1.01169 1.45728,-2.33009 0.80142,-0.79528 1.53866,-1.4459 1.63866,-1.4459 z m -44.23761,0.73071 c 0.0198,0.001 0.0377,0.006 0.0527,0.0155 0.12398,0.0766 0.22531,0.54803 0.22531,1.04748 0,0.82127 -0.11965,1.02647 -1.24902,2.14405 -0.68681,0.67966 -1.318,1.16661 -1.4025,1.08211 -0.0845,-0.0845 -0.44784,0.17888 -0.80771,0.58549 l -0.65422,0.73949 0.13022,-0.61288 c 0.26874,-1.26147 3.09233,-5.03643 3.70521,-5.00125 z m 25.45942,0.12971 c 0.39459,0 0.17889,0.51445 -0.60978,1.4552 -0.44359,0.52912 -0.97333,1.16812 -1.1777,1.42007 -0.30508,0.37603 -0.37272,0.39482 -0.37673,0.10335 -0.005,-0.40478 1.86465,-2.97862 2.16421,-2.97862 z m -27.71975,1.06195 c 0.0112,0.001 0.0211,0.006 0.0289,0.0134 0.0586,0.059 -0.079,0.33569 -0.30541,0.61495 -0.22639,0.27924 -0.41135,0.41884 -0.41135,0.31006 0,-0.27003 0.51951,-0.9575 0.68782,-0.93845 z m 27.78538,0.44028 c 0.0537,-0.004 0.0852,0.0315 0.0992,0.10387 0.0484,0.25014 -0.39378,0.85887 -1.23661,1.7017 -0.72161,0.72159 -1.31207,1.23492 -1.31207,1.14102 0,-0.0938 0.55646,-0.85927 1.23662,-1.70119 0.69002,-0.85377 1.0516,-1.23193 1.21284,-1.2454 z m 10.39575,0.2682 c -2.06623,-0.009 -5.41706,3.7598 -8.2026,9.36429 -1.4941,3.0061 -3.13727,7.57081 -3.13727,8.71574 0,0.57086 -0.30209,0.57865 -1.41077,0.0351 -3.07307,-1.50652 -6.16276,-0.57346 -9.98389,3.01532 -1.80698,1.69711 -5.49955,4.17489 -7.96179,5.34231 -1.52654,0.72377 -2.0588,0.86924 -3.22616,0.88264 l -1.39784,0.016 -0.0641,-0.65526 c -0.0386,-0.39438 0.2396,-1.36608 0.69866,-2.4386 1.22416,-2.86008 0.97113,-4.62265 -0.7953,-5.5361 -1.26923,-0.65635 -3.32239,0.007 -6.076627,1.96319 -0.70973,0.50414 -1.48249,1.13059 -1.71772,1.39216 -0.23525,0.26157 -0.62251,0.57631 -0.86042,0.6997 -0.42315,0.21948 -0.42307,0.21362 0.0129,-0.28836 3.597177,-4.14095 3.737577,-4.38919 2.84014,-5.01778 -0.26288,-0.18414 -0.55549,-0.33486 -0.65009,-0.33486 -0.35518,0 -2.18561,1.87357 -2.99465,3.06493 -0.462,0.68033 -0.92991,1.23661 -1.04025,1.23661 -0.11034,0 -1.67965,0.92698 -3.48712,2.05983 -4.36689,2.73698 -6.833,3.94906 -8.35298,4.10569 -2.40791,0.24814 -2.49236,-0.96024 -0.37465,-5.3604 1.51472,-3.14729 1.74484,-4.46002 0.88418,-5.03948 -0.45264,-0.30471 -0.50941,-0.25821 -1.48725,1.21233 -0.55919,0.84094 -1.07336,1.50121 -1.14256,1.46761 -0.0691,-0.0336 -0.65786,-0.34702 -1.30845,-0.6966 -0.9612,-0.51647 -1.44969,-0.63689 -2.60656,-0.64389 -1.26736,-0.008 -1.63117,0.0965 -3.31091,0.94826 -3.52267,1.78616 -6.77168,5.487 -6.77168,7.71271 0,1.24916 0.17425,1.54885 1.16169,1.9973 1.11581,0.50652 1.71003,0.50814 3.31917,0.007 2.10353,-0.65469 4.79238,-2.32763 8.11424,-5.04827 l 0.65836,-0.53899 -0.20774,1.01183 c -0.41007,2.00186 0.38924,3.77786 1.94406,4.31963 0.84743,0.29525 0.99122,0.27602 3.08044,-0.40824 1.20517,-0.39472 3.59299,-1.41939 5.30665,-2.27738 2.6736,-1.33861 3.09697,-1.49444 2.98121,-1.09761 -0.0742,0.25435 -0.19121,0.94644 -0.25941,1.53789 -0.0989,0.8569 -0.0418,1.17642 0.27905,1.57252 0.51903,0.64067 0.89817,0.48212 1.63504,-0.68265 1.43532,-2.26875 6.711647,-6.64513 8.746757,-7.25485 1.01365,-0.30371 1.82269,-0.18641 1.91099,0.27698 0.0382,0.20041 -0.32403,1.3397 -0.8046,2.53163 -1.22673,3.04267 -1.14562,4.48518 0.30231,5.38003 1.90607,1.17799 4.88423,0.48553 8.87852,-2.06499 l 1.12913,-0.7214 v 1.2547 c 0,1.50387 0.33236,1.902 1.7477,2.096 2.4983,0.34243 6.81285,-1.79429 10.48102,-5.19038 l 1.26503,-1.17099 0.10129,1.55649 c 0.22821,3.49479 2.20403,5.15081 5.34231,4.47777 3.37244,-0.72326 10.74301,-5.14608 10.74301,-6.44664 0,-0.4706 -0.41329,-0.88367 -0.88418,-0.88367 -0.20225,0 -1.27176,0.68052 -2.3766,1.51206 -2.17843,1.63952 -5.82941,3.61618 -7.69359,4.16564 -1.40119,0.41293 -2.59493,0.44207 -3.0949,0.0754 -0.52501,-0.38498 -0.7962,-2.3765 -0.56637,-4.16047 0.10526,-0.81682 0.19444,-1.59718 0.19844,-1.73426 0.004,-0.1371 0.92518,-1.32533 2.04742,-2.64015 5.76621,-6.75572 9.98577,-13.26401 10.32701,-15.92926 0.14384,-1.12344 -0.39107,-2.20998 -1.28984,-2.61948 -0.18421,-0.0839 -0.38415,-0.12569 -0.5979,-0.1266 z m -35.81332,1.02526 c 0.52507,0 0.003,0.93132 -1.17977,2.10323 -1.30791,1.29629 -1.66088,1.54112 -1.66088,1.15187 0,-0.41018 2.48267,-3.2551 2.84065,-3.2551 z m 43.91257,0.0543 c 0.0238,-0.004 0.0426,-0.003 0.0553,0.005 0.10162,0.0625 0.15247,0.80054 0.11317,1.64021 -0.0393,0.83967 -0.13597,1.52274 -0.21497,1.51774 -0.079,-0.005 -0.52608,-0.34678 -0.99374,-0.75964 l -0.85059,-0.75086 0.88056,-0.88057 c 0.4238,-0.42379 0.84383,-0.74117 1.01028,-0.77205 z m -21.20078,0.37621 c 0.029,0 0.0346,0.0716 0.0346,0.21497 0,0.17744 -0.0941,0.46749 -0.20877,0.64492 -0.18528,0.28676 -0.20826,0.28676 -0.20826,0 0,-0.17743 0.0936,-0.46748 0.20826,-0.64492 0.0926,-0.14338 0.14518,-0.21497 0.17414,-0.21497 z m 13.34751,0.21497 c 0.3484,0 -0.15782,1.4721 -1.20871,3.51503 -1.26294,2.45518 -3.26072,5.4339 -5.6596,8.43876 -1.0517,1.3174 -2.07359,2.52931 -2.27067,2.69286 -0.32248,0.26764 -0.34167,0.24366 -0.19481,-0.23874 0.68132,-2.23808 3.25924,-7.61854 4.77748,-9.97149 1.50634,-2.3345 3.66495,-4.43642 4.55631,-4.43642 z m -35.89806,1.23869 c 0.0317,0.002 0.0576,0.0136 0.0775,0.0336 0.2752,0.27521 -0.31493,0.94851 -1.90944,2.17868 -1.00018,0.77208 -1.38494,0.9867 -1.38494,0.77411 0,-0.0419 0.68982,-0.77427 1.53324,-1.62781 0.94237,-0.95364 1.46166,-1.37509 1.68363,-1.35857 z m -3.78324,1.86138 c 0.0797,0.0139 0.13643,0.13461 0.13643,0.31574 0,0.23658 -0.0972,0.48966 -0.21549,0.56276 -0.11829,0.0731 -0.21498,-0.0606 -0.21498,-0.29714 0,-0.23658 0.0967,-0.48966 0.21498,-0.56276 0.0148,-0.009 0.0294,-0.0152 0.0434,-0.0181 0.0122,-0.003 0.0243,-0.002 0.0357,-5.3e-4 z m 24.36131,14.35982 c 0.97828,0.0102 2.02568,0.16828 2.52904,0.43202 l 0.59635,0.31264 -1.6552,1.54564 c -2.36489,2.20854 -4.77266,3.96536 -6.82129,4.97748 -1.06393,0.52562 -2.23517,0.93131 -2.92127,1.01131 l -1.14515,0.13332 0.33797,-0.80874 c 1.38303,-3.31005 4.82908,-6.72295 7.52564,-7.45277 0.40461,-0.10951 0.96693,-0.15702 1.55391,-0.1509 z m -48.144867,1.03612 c 0.99254,-1.8e-4 2.41226,0.49078 2.41226,0.83405 0,0.3263 -3.06761,3.01289 -4.90771,4.29793 -0.90834,0.63433 -2.36257,1.49651 -3.23133,1.91565 -1.55204,0.74875 -3.51709,1.1484 -3.75481,0.76378 -0.24496,-0.39636 0.69445,-1.97131 2.02107,-3.38946 2.25449,-2.41006 5.6479,-4.42142 7.46052,-4.42195 z m 40.432157,15.18253 c -1.49965,-0.004 -3.5,0.0159 -6.13089,0.0569 -1.97983,0.0308 -1.9857,0.0324 -2.12029,0.62218 -0.0742,0.3253 -0.46794,1.65625 -0.87488,2.95744 -0.40694,1.30118 -1.79597,6.33395 -3.08612,11.18382 -1.29012,4.84987 -2.68854,9.82873 -3.10782,11.06444 -0.48348,1.42492 -0.76223,2.65194 -0.76223,3.35432 0,1.00951 0.13185,1.30668 1.48932,3.36207 0.81905,1.24013 1.8541,2.5757 2.30064,2.96777 l 0.81235,0.71262 2.69906,-0.15968 c 1.48463,-0.0881 3.78791,-0.14316 5.11803,-0.12196 2.81448,0.0448 2.4981,0.33941 3.30678,-3.08405 0.3161,-1.33815 0.59125,-2.07274 0.77618,-2.07274 0.15757,0 0.33617,0.1692 0.39687,0.37621 0.51075,1.74294 3.35794,6.05248 4.42867,6.70346 0.2765,0.1681 1.27475,0.34563 2.22261,0.39533 0.94632,0.0496 1.76869,0.13959 1.82779,0.19999 0.0591,0.0604 1.41428,0.0695 3.01119,0.0202 3.17559,-0.0982 4.23988,-0.38849 5.1077,-1.39423 0.26615,-0.30844 0.48421,-0.62028 0.48421,-0.69298 0,-0.35188 -0.99015,-3.67309 -1.92857,-6.46834 -0.57584,-1.71519 -1.54447,-4.86055 -2.15232,-6.98976 -0.60784,-2.12922 -1.49503,-5.2262 -1.97146,-6.88226 -0.47643,-1.65605 -1.43859,-4.38213 -2.13837,-6.05803 -0.69978,-1.6759 -1.27279,-3.22133 -1.27279,-3.4339 0,-0.21257 -0.1983,-0.5835 -0.4408,-0.82424 -0.24249,-0.24074 -0.93012,-1.3089 -1.52807,-2.3735 -1.20098,-2.13823 -1.74399,-2.81935 -2.54765,-3.1967 -0.31241,-0.14672 -1.41975,-0.21794 -3.91914,-0.22428 z m 26.89965,0.23306 c -0.26923,-0.003 -0.61761,0.0807 -1.04283,0.25167 -0.41401,0.16642 -1.7208,0.43699 -2.9037,0.60151 -1.1829,0.16451 -2.75995,0.50074 -3.5047,0.74673 -0.74476,0.24599 -1.58106,0.38999 -1.85828,0.32039 -0.5542,-0.1391 -2.48719,0.80793 -2.48719,1.21853 0,0.13013 0.19813,0.44713 0.43977,0.70435 0.52412,0.5579 2.23019,4.41214 2.43396,5.49837 0.13575,0.72359 0.61377,1.51247 3.24269,5.35316 0.60728,0.88718 1.56753,2.67738 2.13424,3.97857 0.56671,1.30118 1.22077,2.69243 1.45314,3.0918 0.38537,0.66234 0.39244,0.75912 0.0842,1.09968 -0.50424,0.55717 -0.71148,1.48456 -1.07952,4.82503 -0.18349,1.66529 -0.41981,3.36612 -0.52504,3.78013 -0.43644,1.71709 -0.47488,2.91669 -0.12195,3.79873 0.19132,0.47807 0.31858,1.00222 0.28318,1.16479 -0.0366,0.16801 0.14498,0.32749 0.42065,0.36949 0.26674,0.0407 0.89571,0.55121 1.39785,1.13429 0.71395,0.82904 1.054,1.06099 1.55856,1.06299 0.35486,0.001 2.18763,0.19476 4.07313,0.42994 1.8855,0.23518 3.88836,0.42789 4.45038,0.42789 0.56203,0 1.08135,0.0967 1.15445,0.21497 0.18889,0.3056 0.96354,0.2669 1.07435,-0.0537 0.0511,-0.14786 0.0231,-0.80099 -0.062,-1.45159 -0.0851,-0.65059 -0.0811,-2.10241 0.008,-3.22616 0.22678,-2.84616 1.00137,-8.23924 1.20354,-8.37934 1.75709,-1.21763 7.62958,-7.51692 10.31927,-11.06909 0.90218,-1.19147 2.16162,-2.78041 2.79828,-3.53105 l 1.15755,-1.36477 -0.5395,-1.00098 c -0.71131,-1.32003 -1.92985,-5.32087 -1.77199,-5.81825 0.15843,-0.49917 -0.38233,-0.9584 -0.92552,-0.786 -0.56038,0.17787 -1.84656,-0.12166 -6.12108,-1.42575 -2.33931,-0.71369 -3.68608,-1.02836 -3.82147,-0.89297 -0.115,0.11499 -0.68999,1.55707 -1.27796,3.20498 -0.58797,1.6479 -1.40748,3.6735 -1.82107,4.50153 -0.87832,1.75834 -3.99282,6.13231 -4.30672,6.04821 -0.27996,-0.075 -1.55795,-4.52507 -1.85828,-6.47144 -0.12834,-0.83178 -0.39703,-1.75428 -0.59738,-2.05 -0.20035,-0.29572 -0.4963,-0.87635 -0.65784,-1.29037 -0.16155,-0.41401 -0.61597,-1.40333 -1.00976,-2.19883 -0.39378,-0.7955 -0.71624,-1.73245 -0.71624,-2.08204 0,-0.4841 -0.22877,-0.73024 -0.67748,-0.73536 z m -90.446157,0.0822 c -3.98588,0.003 -4.23904,0.21649 -8.66975,2.47892 -4.10693,2.0971 -4.92369,2.61125 -5.06946,3.19205 -0.0714,0.28444 0.11577,1.46909 0.41547,2.6324 0.29971,1.16332 0.65039,2.98631 0.77928,4.05092 0.12889,1.0646 0.56378,3.726 0.96636,5.91436 0.40256,2.18836 0.93498,5.28536 1.18338,6.88227 0.50931,3.27422 2.32945,13.83018 2.51251,14.5712 0.0658,0.26615 0.15417,0.48369 0.19637,0.48369 0.81155,0 5.20241,-0.78287 6.65128,-1.18597 1.06461,-0.2962 2.11514,-0.58254 2.33422,-0.63614 0.51332,-0.12547 0.99763,-0.5294 1.00562,-0.83871 0.01,-0.38608 2.84519,-2.50062 3.35277,-2.50062 0.67437,0 1.08953,-0.57549 0.7767,-1.07642 -0.1361,-0.21793 -0.40064,-1.34673 -0.58756,-2.50837 -0.18693,-1.16164 -0.53224,-2.86583 -0.7674,-3.78685 -0.83702,-3.27818 -1.32275,-7.85472 -0.89555,-8.43618 0.0869,-0.11828 0.71867,-0.59312 1.40405,-1.05471 1.32088,-0.88957 2.98601,-2.60358 3.50624,-3.6096 0.18779,-0.36316 0.48809,-0.60513 0.75138,-0.60513 0.54902,0 2.38032,-1.85748 3.42718,-3.47628 0.43326,-0.66996 0.95699,-1.82105 1.16375,-2.55798 0.66266,-2.36168 0.24348,-3.48419 -2.33629,-6.25388 l -1.27537,-1.36891 -1.8433,-0.14263 c -1.01399,-0.0784 -4.17418,-0.15093 -7.02231,-0.16123 -0.74484,-0.003 -1.39016,-0.007 -1.95957,-0.006 z m 26.15499,0.63252 c -0.10821,0 -0.56014,0.32503 -1.00407,0.72192 -1.03918,0.92909 -3.94338,2.61945 -5.24103,3.05046 -0.72866,0.24202 -1.04379,0.47392 -1.13429,0.83457 -0.1762,0.70205 0.17359,3.98466 0.81545,7.65225 0.30018,1.7152 0.64983,4.18323 0.7767,5.48442 0.33957,3.48265 1.45617,13.1008 1.72289,14.83992 0.127,0.82803 0.46667,2.00371 0.75448,2.61276 l 0.52296,1.10743 0.79789,-0.17984 c 1.0737,-0.24216 2.58666,0.0725 4.09639,0.85163 0.68385,0.35294 1.37215,0.64564 1.52962,0.65164 0.15748,0.006 1.07701,-0.56377 2.04329,-1.26556 2.18097,-1.58403 4.63275,-2.80774 7.14323,-3.56515 2.17158,-0.65517 3.36529,-1.14283 3.57084,-1.45883 0.0767,-0.11794 0.19945,-1.91828 0.27285,-4.00079 0.0734,-2.0825 0.18063,-4.22552 0.23823,-4.76198 l 0.1049,-0.97514 -1.16272,-0.70486 c -0.75132,-0.45535 -1.77366,-0.82491 -2.88768,-1.04438 -1.59678,-0.31458 -1.80667,-0.31286 -2.84065,0.0253 -0.61412,0.20091 -1.14647,0.33558 -1.18287,0.2992 -0.10505,-0.10505 -0.71307,-7.41795 -0.99219,-11.9326 -0.22032,-3.56372 -0.30473,-4.13708 -0.6196,-4.21938 -0.20042,-0.0524 -0.51066,-0.0135 -0.68988,0.0868 -0.21582,0.12078 -0.93433,-0.0793 -2.12752,-0.59324 -2.42274,-1.04344 -3.44564,-1.75181 -3.91656,-2.7125 -0.21675,-0.44217 -0.48245,-0.80408 -0.59066,-0.80408 z m 36.163167,0.20877 c 0.0651,-0.003 0.12034,-0.002 0.16537,5.3e-4 0.46306,0.0301 -0.14547,0.35287 -2.06345,0.86765 -0.97711,0.26225 -1.82955,0.5632 -1.89445,0.66817 -0.16418,0.26562 -0.89754,0.23898 -1.06919,-0.0387 -0.22486,-0.36384 0.0106,-0.47394 2.11357,-0.98858 1.35158,-0.33074 2.29268,-0.49008 2.74815,-0.50901 z m 3.34192,0.006 c 1.1201,0 1.27415,0.0629 2.04638,0.83509 0.90608,0.90608 1.04761,1.3143 0.45837,1.3193 -0.20701,0.002 -1.2428,0.38909 -2.30167,0.86041 -1.05886,0.47134 -2.07509,0.83934 -2.25826,0.81804 -0.18318,-0.0213 -1.05896,-0.0948 -1.94613,-0.16329 l -1.61282,-0.12454 1.29036,-0.60358 c 1.47115,-0.68818 4.34322,-1.43202 5.53816,-1.43403 0.46153,-7.9e-4 0.80667,-0.10712 0.80667,-0.24804 0,-0.39505 -2.73672,-0.0718 -4.54184,0.5364 -1.28716,0.43373 -3.075,1.16836 -3.8778,1.59318 -0.0765,0.0405 -0.3469,-0.21831 -0.601,-0.57515 l -0.46199,-0.64906 0.81598,-0.34107 c 0.44892,-0.18766 1.68716,-0.57907 2.75177,-0.86971 1.06459,-0.29063 2.10402,-0.62408 2.30942,-0.74104 0.20537,-0.11695 0.91829,-0.21291 1.5844,-0.21291 z m -7.86051,0.004 c 0.54112,7.9e-4 1.0635,0.0626 1.0635,0.18448 0,0.1035 -0.30265,0.24857 -0.67231,0.32246 -1.21051,0.24211 -1.8377,0.11189 -1.56734,-0.32556 0.0752,-0.1218 0.63503,-0.18212 1.17615,-0.18138 z m -54.016337,0.23099 c 0.93357,-0.0167 0.84357,0.28864 -0.26613,0.93896 -0.893,0.52333 -2.95264,0.79438 -2.92954,0.38551 0.0234,-0.41538 1.68735,-1.20529 2.73317,-1.29759 0.17515,-0.0155 0.32913,-0.0245 0.4625,-0.0269 z m 2.6169,0.14108 c 0.20539,0.009 0.45135,0.0447 0.78599,0.0971 1.17424,0.18414 1.52719,0.30513 1.33222,0.45682 -0.0493,0.0383 -0.59934,0.37725 -1.22214,0.75293 -1.2358,0.74542 -1.45971,0.77715 -2.73886,0.3886 l -0.86041,-0.26148 1.1312,-0.76429 c 0.68564,-0.46347 0.97047,-0.64401 1.37821,-0.6687 0.0612,-0.004 0.12532,-0.004 0.19379,-0.001 z m -6.5288,0.0543 c 0.5072,0 0.92242,0.044 0.92242,0.0982 0,0.0541 -0.42015,0.34472 -0.93328,0.64543 -0.52351,0.3068 -1.25477,0.54347 -1.66656,0.53847 l -0.73381,-0.009 0.74466,-0.63665 c 0.57387,-0.49052 0.95586,-0.63614 1.66657,-0.63614 z m -2.47117,0.0191 c 0.5971,-0.035 0.33094,0.28265 -0.76843,0.8971 -0.89415,0.49976 -3.92185,1.03956 -3.46387,0.61754 0.32746,-0.30174 3.09118,-1.34292 3.92327,-1.47795 0.12063,-0.0196 0.22373,-0.0317 0.30903,-0.0367 z m 91.953557,0.28577 c 0.0507,-0.006 0.0978,-0.006 0.14263,0 0.26882,0.0375 0.45919,0.32039 0.92862,1.18029 0.38444,0.70422 0.69867,1.3324 0.69867,1.3963 0,0.0639 -1.0913,0.82784 -2.42518,1.69757 -2.16851,1.41392 -4.13283,2.27422 -4.44985,1.94872 -0.20211,-0.20749 1.3298,-1.3454 3.57859,-2.65772 2.11257,-1.2328 2.73844,-1.71928 2.21072,-1.71928 -0.40685,0 -4.95384,2.84517 -5.67356,3.55017 -0.36325,0.35582 -0.76007,0.82716 -0.8816,1.04748 -0.19728,0.35765 -0.25039,0.3654 -0.49661,0.0687 -0.23406,-0.28201 -0.13554,-0.46129 0.65112,-1.18235 1.41844,-1.30016 2.08661,-1.81988 3.72277,-2.89543 1.97947,-1.30122 2.6066,-1.81742 2.42621,-1.99781 -0.0815,-0.0815 -0.51576,0.135 -0.9648,0.4811 -0.44904,0.34611 -1.33872,0.9577 -1.97714,1.3591 -0.63842,0.40138 -1.83274,1.29089 -2.6541,1.97713 -0.82136,0.68625 -1.57857,1.24799 -1.6831,1.24799 -0.17027,0 -0.84646,-1.103 -0.84646,-1.38079 0,-0.0614 0.55644,-0.4669 1.23661,-0.90124 0.68017,-0.43434 1.80753,-1.22817 2.50528,-1.76423 0.88374,-0.67894 1.56889,-1.02297 2.25826,-1.13327 0.54429,-0.0871 1.23184,-0.21762 1.52755,-0.29042 0.0602,-0.0148 0.11462,-0.0262 0.16537,-0.032 z m -79.683507,0.45165 c 0.17683,0.005 0.33502,0.0812 0.57464,0.20516 0.3615,0.18694 0.65733,0.3823 0.65733,0.4346 0,0.0523 -0.58777,0.48576 -1.30587,0.96273 -0.71807,0.47698 -1.37119,0.86663 -1.45159,0.8661 -0.0803,-5.3e-4 -0.43002,-0.22801 -0.7767,-0.5054 l -0.62993,-0.50436 1.42472,-0.79685 c 0.86571,-0.48414 1.21269,-0.67085 1.5074,-0.66198 z m 75.791757,0.13488 c 0.10311,1.1e-4 0.0698,0.0611 0.0698,0.14779 0,0.0984 -0.86263,0.77575 -1.9172,1.50534 -1.05458,0.72958 -1.97181,1.32653 -2.03811,1.32653 -0.0664,0 -0.30574,-0.36097 -0.53227,-0.80253 l -0.41186,-0.80305 2.39468,-0.70281 c 1.71284,-0.50253 2.26314,-0.67146 2.435,-0.67127 z m -29.41216,0.39894 c 0.23133,0 1.09244,0.95891 1.09244,1.21646 0,0.12151 -0.37417,0.33325 -0.83148,0.47026 -0.45731,0.13701 -0.88666,0.24908 -0.95446,0.24908 -0.0678,0 0.0248,-0.4356 0.20619,-0.9679 0.18137,-0.5323 0.40071,-0.9679 0.48731,-0.9679 z m 49.22283,0.21498 c 0.45663,0 3.05667,0.88621 3.05667,1.04179 0,0.0902 -0.50522,0.35202 -1.12293,0.58239 -0.61772,0.23039 -1.19752,0.45121 -1.28882,0.49042 -0.0913,0.0392 -0.26278,-0.18297 -0.38085,-0.49352 -0.38672,-1.01716 -0.48509,-1.62108 -0.26407,-1.62108 z m -79.284557,0.15606 c 0.12823,0.0124 0.18396,0.0966 0.18396,0.24701 0,0.0894 -0.31926,0.31465 -0.70951,0.50074 -0.39024,0.1861 -1.36323,0.83346 -2.16214,1.43816 -0.79892,0.60469 -1.52009,1.0858 -1.60249,1.0697 -0.0824,-0.0161 -0.36743,-0.0712 -0.63355,-0.12247 -0.68525,-0.13199 -0.6009,-0.36444 0.24339,-0.66973 0.40021,-0.14471 1.57163,-0.79327 2.60295,-1.44074 1.16241,-0.72979 1.79528,-1.05001 2.07739,-1.02267 z m -14.45545,0.3855 c 0.19983,0.0113 0.35518,0.13374 0.57257,0.33797 0.28456,0.26733 0.5124,0.59003 0.5054,0.71727 -0.007,0.12724 -0.55815,0.6671 -1.22577,1.19941 -0.66763,0.5323 -1.27648,0.99496 -1.35288,1.02836 -0.0764,0.0334 -0.39494,-0.32565 -0.70746,-0.79789 l -0.56792,-0.85886 0.91157,-0.62167 c 1.07481,-0.73339 1.53143,-1.02337 1.86449,-1.00459 z m 57.087467,0.009 c 0.0891,-0.003 0.1558,0.005 0.19172,0.0259 0.0896,0.0526 0.30975,0.38023 0.48938,0.7276 l 0.32659,0.63148 h -1.49861 c -0.82409,0 -1.55533,-0.0926 -1.62523,-0.20567 -0.0699,-0.1131 -0.29339,-0.1478 -0.49661,-0.077 -0.33041,0.11503 -0.3355,0.0919 -0.047,-0.21601 0.29221,-0.31192 2.03588,-0.86576 2.65979,-0.88625 z m 35.1994,0.30954 c 0.17478,0 0.53015,1.26306 0.39016,1.38648 -0.0408,0.036 -0.30662,0.13731 -0.59066,0.22479 -0.43026,0.13252 -0.49263,0.0978 -0.37517,-0.20826 0.0775,-0.20207 0.19928,-0.60048 0.27078,-0.88522 0.0715,-0.28473 0.20879,-0.51779 0.30489,-0.51779 z m -76.873857,0.007 c 0.64676,0.0108 1.19948,0.51516 0.89659,0.81804 -0.13783,0.13783 -0.32662,0.25063 -0.41962,0.25063 -0.093,0 -0.95641,0.4356 -1.91874,0.9679 -1.85999,1.02884 -2.05189,1.08433 -2.55799,0.74414 -0.27123,-0.18233 -0.21998,-0.3033 0.32247,-0.75913 0.93302,-0.78404 3.19889,-2.02958 3.67729,-2.02158 z m -26.35963,0.20825 c 3.7376,0 6.15833,0.86201 7.55509,2.69028 2.33891,3.06142 1.33378,6.8296 -2.72334,10.2092 -1.87505,1.56192 -4.83322,2.80086 -6.68642,2.80086 -0.37468,0 -0.77741,0.12086 -0.89503,0.26872 -0.27897,0.35072 0.25454,3.81965 1.75286,11.40188 0.63666,3.22179 1.11919,5.92207 1.07229,6.00067 -0.0469,0.0786 -1.12533,0.38906 -2.39624,0.68988 -2.74174,0.64897 -4.36524,0.86306 -4.71857,0.62218 -0.14141,-0.0964 -0.36533,-0.65694 -0.49765,-1.2454 -0.45156,-2.00805 -4.26795,-24.93809 -4.41988,-26.556 -0.0833,-0.88717 -0.32579,-2.09676 -0.53899,-2.68821 -0.68855,-1.91019 -0.65654,-2.08281 0.46819,-2.5032 2.31144,-0.86395 8.19369,-1.69086 12.02769,-1.69086 z m 108.973707,0.30335 c 0.14894,0.004 0.29292,0.026 0.44959,0.063 0.7914,0.18716 1.21051,0.709 0.56947,0.709 -0.20197,0 -1.11704,0.33892 -2.03398,0.75293 -1.85817,0.83898 -1.95742,0.85997 -2.32286,0.49454 -0.49804,-0.49804 -0.24402,-0.76339 1.38441,-1.44694 1.01495,-0.42605 1.50657,-0.58324 1.95337,-0.57257 z m -52.06452,0.2775 c 0.55838,-0.0205 0.5972,0.24868 0.0599,0.78031 -0.28604,0.28306 -0.83014,0.67326 -1.20871,0.86713 -0.75699,0.38766 -1.56993,0.46606 -1.56993,0.15141 0,-0.81262 0.45235,-1.25061 1.64021,-1.58853 0.46341,-0.13183 0.82468,-0.20099 1.07849,-0.21032 z m -29.164107,0.10283 c 0.53301,-0.006 2.34252,0.83375 2.35127,1.15859 0.006,0.23669 -2.43324,1.18104 -3.00498,1.16324 -0.17744,-0.006 0.18565,-0.25611 0.80667,-0.55656 0.62102,-0.30047 1.12913,-0.63542 1.12913,-0.74466 0,-0.10922 -0.0564,-0.19895 -0.12506,-0.19895 -0.20192,0 -3.18917,1.52127 -3.41271,1.73788 -0.28796,0.27901 -0.83115,0.24568 -1.27382,-0.078 -0.33506,-0.24499 -0.17239,-0.38101 1.45469,-1.2175 1.00761,-0.51802 1.87751,-1.0605 1.93321,-1.20561 0.0151,-0.0392 0.0654,-0.0576 0.1416,-0.0584 z m 84.160237,0.25529 c 0.0276,0.002 0.05,0.006 0.0677,0.0129 0.66878,0.25664 0.17168,0.75201 -1.59473,1.58956 -1.90466,0.90308 -2.8644,1.16664 -3.54863,0.9741 -0.69756,-0.19629 -0.3832,-0.60892 0.86042,-1.12913 2.28247,-0.95476 3.80165,-1.47537 4.21525,-1.44745 z m -21.14445,0.0765 c 0.0108,0.002 0.0185,0.005 0.0238,0.0103 0.0839,0.0864 0.21762,0.41935 0.29662,0.73949 0.15707,0.63615 0.27139,0.57498 -1.94148,1.03715 -0.59145,0.12353 -1.24458,0.27568 -1.45159,0.33848 -0.76244,0.23118 -0.33496,-0.17116 1.28364,-1.2082 0.8561,-0.54848 1.62693,-0.94147 1.78904,-0.91725 z m -78.379707,0.42581 c 0.10621,0.0237 0.26161,0.36211 0.34571,0.75241 0.20004,0.92855 -0.37685,3.05212 -0.78651,2.89491 -0.15856,-0.0608 -0.50898,0.12417 -0.77877,0.41135 -0.5171,0.55043 -0.94766,0.66453 -1.16737,0.30902 -0.20489,-0.33153 0.1183,-0.73864 1.36478,-1.72031 0.79129,-0.62318 1.08089,-0.9753 0.92811,-1.12809 -0.1528,-0.1528 -0.54332,0.0523 -1.25109,0.65732 -1.01528,0.86781 -1.3678,0.87765 -1.35341,0.0382 0.006,-0.34405 2.37369,-2.28735 2.69855,-2.21485 z m 91.278147,0.21084 c 0.18192,0.004 0.26858,0.12706 0.40255,0.42116 0.3307,0.7258 0.34922,0.69445 -0.67334,1.15859 -1.14162,0.51824 -1.45211,0.5275 -1.45211,0.0424 0,-0.58669 0.57097,-1.27066 1.26194,-1.51153 0.20837,-0.0726 0.3518,-0.11295 0.46096,-0.11059 z m -44.20867,0.0868 c 0.0455,-0.002 0.0959,-0.001 0.15244,0.002 0.15066,0.008 0.3439,0.032 0.59738,0.0656 0.57924,0.0768 3.01074,0.18908 5.40329,0.24908 2.39254,0.06 4.43256,0.16033 4.53357,0.22273 0.10103,0.0624 0.18345,0.30973 0.18345,0.54984 0,0.2401 0.61501,1.90403 1.36633,3.69744 0.9485,2.26412 2.03079,5.56829 3.54138,10.81123 1.19654,4.15294 2.62905,8.79895 3.18327,10.32392 0.55423,1.52496 1.04864,3.20803 1.09864,3.74034 0.0853,0.90744 0.0463,0.99415 -0.62425,1.39268 -0.61213,0.3638 -1.14863,0.42944 -3.72587,0.45734 -3.54389,0.0383 -4.73234,-0.0586 -5.00745,-0.4098 -0.43237,-0.552 -1.9823,-5.51166 -1.9823,-6.34276 0,-0.48358 -0.1111,-0.94777 -0.2465,-1.03147 -0.13539,-0.0838 -1.0791,-0.12271 -2.09703,-0.0868 -1.01793,0.0359 -2.33447,0.0746 -2.92592,0.0858 l -1.07539,0.0207 -0.0413,1.29037 c -0.0228,0.70974 -0.22037,1.87098 -0.43873,2.58072 l -0.39687,1.29036 -4.29328,0.15503 c -2.36118,0.0853 -4.42177,0.10986 -4.57905,0.0543 -0.36995,-0.13078 -0.36103,-0.16836 1.79265,-7.73648 1.04039,-3.65599 2.19091,-8.32869 2.7802,-11.2913 0.97609,-4.90717 1.77388,-8.27662 2.26032,-9.54412 0.14997,-0.39077 0.22249,-0.53274 0.54106,-0.54622 z m -1.72651,0.0408 c 0.0211,-0.004 0.0345,-0.004 0.0393,10e-4 0.0382,0.0383 -0.0358,0.41213 -0.16433,0.83096 -0.21543,0.7019 -0.35367,0.79993 -1.76733,1.25418 -0.84351,0.27104 -1.63565,0.53116 -1.76011,0.57826 -0.39425,0.14921 -0.49803,-0.1587 -0.27233,-0.80615 0.17124,-0.49127 0.34863,-0.62684 0.82062,-0.62684 0.33129,0 1.15847,-0.29256 1.83813,-0.65009 0.59471,-0.31283 1.11871,-0.55206 1.26608,-0.58136 z m 54.83954,0.39016 c 0.0472,0.0486 0.11888,0.26819 0.15968,0.48782 0.0595,0.31994 -0.24576,0.52311 -1.5353,1.02165 -0.88524,0.34224 -1.65921,0.62106 -1.72031,0.61908 -0.21691,-0.006 -0.74246,-0.40532 -0.64286,-0.48783 0.27924,-0.23117 3.66479,-1.71692 3.73879,-1.64072 z M 87.477043,167.504 c 0.0182,-0.003 0.0298,-0.002 0.0341,0.003 0.0342,0.0375 0.22194,2.24619 0.41755,4.90771 0.61408,8.35591 1.07754,11.53057 1.98541,13.60331 0.47751,1.09021 0.83183,1.05628 3.96823,-0.37879 1.42466,-0.65188 2.65522,-1.14538 2.73471,-1.09658 0.0795,0.0488 0.0964,1.74034 0.0372,3.75895 -0.0879,2.99948 -0.17111,3.73414 -0.4563,4.01888 -0.19194,0.1916 -1.18841,0.5844 -2.21433,0.87333 -1.02591,0.28892 -2.65976,0.89532 -3.63027,1.3472 -0.97051,0.45188 -2.42257,1.2665 -3.2272,1.81023 -0.8849,0.598 -1.49074,0.88679 -1.53324,0.73122 -0.0386,-0.14149 -0.4754,-3.06378 -0.97048,-6.49418 -0.49508,-3.4304 -1.18494,-7.69891 -1.53324,-9.48572 -1.15315,-5.9153 -1.59741,-10.96163 -1.00614,-11.42876 0.14786,-0.11683 0.93816,-0.4254 1.75597,-0.68575 0.81782,-0.26035 1.96431,-0.71545 2.54816,-1.01131 0.51087,-0.25888 0.96217,-0.45295 1.08986,-0.47232 z m 72.552677,0.71365 c 0.0211,-1.2e-4 0.0347,0.003 0.0403,0.008 0.0451,0.045 0.0188,0.33493 -0.0589,0.6444 -0.10763,0.42883 -0.45947,0.70817 -1.47795,1.17409 -0.73499,0.33623 -1.56855,0.67954 -1.8526,0.76274 -0.44368,0.12994 -0.49371,0.0945 -0.3545,-0.25011 0.0891,-0.22066 0.25844,-0.6674 0.3762,-0.9927 0.11776,-0.32529 0.37406,-0.59442 0.56948,-0.59842 0.19542,-0.004 0.88649,-0.19032 1.53582,-0.41444 0.56816,-0.19612 1.07438,-0.33288 1.22215,-0.33383 z m -85.312617,0.0723 0.91364,0.1509 c 1.14314,0.18884 1.23482,0.27587 0.69866,0.66146 -0.23639,0.16999 -0.60038,0.45215 -0.80873,0.62735 -0.60903,0.51205 -0.80357,0.37604 -0.80357,-0.56069 z m 93.590147,0.0667 0.30541,0.73122 c 0.1681,0.40232 0.30592,0.83134 0.30592,0.95343 0,0.27269 -0.048,0.2665 -1.46399,-0.19017 -0.62766,-0.20242 -1.12182,-0.45874 -1.09813,-0.56947 0.0237,-0.11075 0.47229,-0.36416 0.99684,-0.56328 z m -21.14496,0.18603 c 0.11599,0 0.27483,0.41143 0.35243,0.91416 0.25241,1.63428 1.65781,6.45442 2.51561,8.62686 2.11854,5.3654 2.5917,5.59568 4.36872,2.127 1.13706,-2.21948 1.54503,-2.85325 4.4664,-6.93601 0.71945,-1.00547 1.54146,-2.27584 1.82625,-2.82308 l 0.51727,-0.99529 0.89762,0.19637 c 1.96101,0.42942 5.67401,1.54502 6.44664,1.93684 l 0.81804,0.41495 -0.83458,1.01131 c -0.45899,0.55625 -1.59711,2.02753 -2.52956,3.26957 -1.75916,2.34327 -6.7086,7.83065 -8.46822,9.38858 -0.55491,0.4913 -1.36698,1.04294 -1.80454,1.22576 -0.80444,0.33612 -1.03617,0.88824 -0.56895,1.35547 0.15886,0.15885 0.0631,1.57117 -0.3204,4.72064 -0.30098,2.47178 -0.57236,4.92989 -0.60306,5.46221 l -0.0558,0.96738 -0.86042,0.0269 c -0.47315,0.0145 -1.15046,-0.0121 -1.50533,-0.0584 -0.35487,-0.0463 -1.85502,-0.23264 -3.33365,-0.41444 -1.47862,-0.18179 -2.77249,-0.41419 -2.87527,-0.51625 -0.10568,-0.10496 -0.0302,-1.03949 0.17415,-2.15129 0.19868,-1.08113 0.44955,-3.36053 0.55759,-5.06532 0.18045,-2.84707 0.31132,-3.47157 1.02577,-4.90151 0.0484,-0.0967 -0.062,-0.14509 -0.24546,-0.10749 -0.45841,0.094 -2.99265,-4.18662 -4.33979,-7.33082 -0.62992,-1.47022 -1.60349,-3.23298 -2.42931,-4.39973 -2.47952,-3.50316 -3.07858,-4.92897 -1.77973,-4.23385 0.29392,0.15741 0.60266,0.15629 1.02577,-0.005 0.59711,-0.22702 7.1524,-1.70584 7.56182,-1.70584 z m -34.73535,0.26769 c 0.033,-8e-4 0.055,0.003 0.0646,0.0129 0.0336,0.0336 0.002,0.28501 -0.0693,0.55862 -0.0929,0.35523 -0.53634,0.68093 -1.55081,1.13998 -2.42017,1.09512 -2.38848,1.08835 -2.38848,0.5302 0,-0.27018 0.12136,-0.64311 0.26923,-0.82889 0.22404,-0.2815 3.17974,-1.40047 3.67471,-1.41283 z m -59.007767,0.20515 c -1.295,0.0241 -2.52705,0.44219 -2.69492,1.11104 -0.10555,0.42053 0.99733,5.45053 1.30379,5.94641 0.39346,0.63662 3.04895,-0.24964 4.45968,-1.48828 1.8344,-1.61062 1.42162,-4.01364 -0.88574,-5.15627 -0.6061,-0.30015 -1.40581,-0.42738 -2.18281,-0.4129 z m 24.58558,0.0444 c 0.0834,0.004 0.16382,0.0154 0.2403,0.0346 0.67028,0.16823 0.72134,0.44303 0.11782,0.63458 -0.24226,0.0769 -1.0551,0.61038 -1.80609,1.18598 -1.27539,0.97753 -1.37306,1.01705 -1.48415,0.59221 -0.25307,-0.96774 1.68115,-2.51128 2.93212,-2.4474 z m 1.75752,0.64751 c 0.0554,0.005 0.099,0.0225 0.12815,0.0517 0.16977,0.16977 0.007,0.37521 -0.58652,0.74207 -0.45166,0.27915 -1.46401,1.06081 -2.24948,1.73684 -1.42296,1.22471 -1.6924,1.31611 -1.6924,0.57361 0,-0.73289 3.5693,-3.18531 4.40025,-3.1042 z m 0.62476,0.41186 c 0.016,-0.003 0.034,-0.002 0.0532,0.002 0.0257,0.005 0.0541,0.0169 0.0837,0.0351 0.32147,0.19868 0.27121,1.82779 -0.0563,1.82779 -0.14904,0 -1.20479,0.8712 -2.34662,1.9358 -1.14183,1.06461 -2.1227,1.9358 -2.1792,1.9358 -0.0565,0 -0.15392,-0.36308 -0.21652,-0.80667 -0.10815,-0.76661 -0.0435,-0.87392 1.3069,-2.16524 0.78135,-0.7472 1.83837,-1.60314 2.34869,-1.90221 0.51032,-0.29907 0.92759,-0.63683 0.92759,-0.75086 0,-0.0641 0.0306,-0.10259 0.0785,-0.1111 z m -26.63971,0.1111 -0.63149,0.66198 c -0.78041,0.81754 -1.03016,0.83614 -0.94206,0.0703 0.0579,-0.50313 0.18025,-0.60218 0.82062,-0.66198 z m 1.03146,0.32143 c 0.0435,0.004 0.0867,0.0136 0.13022,0.0274 0.24839,0.0788 0.45114,0.21923 0.45114,0.31212 0,0.0929 -0.57253,0.61866 -1.27227,1.16841 -0.69975,0.54976 -1.32875,0.99942 -1.39785,0.99942 -0.41555,0 0.018,-0.88621 0.82527,-1.68775 0.63565,-0.63116 0.9592,-0.84908 1.26349,-0.81959 z m 104.149707,0.0191 c 0.0292,-5.3e-4 0.0485,0.003 0.0563,0.0108 0.28558,0.28559 -1.31154,1.79992 -2.66237,2.52439 -0.82012,0.43985 -1.55799,0.80267 -1.63969,0.80667 -0.43437,0.0199 -0.33006,-0.50868 0.262,-1.32601 0.55691,-0.7688 0.93405,-1.01816 2.2965,-1.51929 0.78443,-0.28853 1.48284,-0.49221 1.68723,-0.49661 z m -46.96044,0.1049 c 0.0371,0.004 0.062,0.0146 0.0734,0.0331 0.27354,0.44261 -0.36961,0.94221 -1.95957,1.52187 -1.95816,0.71393 -2.08379,0.73083 -1.99109,0.262 0.0769,-0.38896 3.32159,-1.87605 3.87728,-1.81695 z m -45.597727,0.7922 c 0.1072,-1e-4 0.17363,0.0211 0.17363,0.0641 0,0.0859 -0.29839,0.44067 -0.66301,0.78807 l -0.66249,0.63148 0.0713,-0.63097 c 0.0542,-0.47872 0.2143,-0.66902 0.66301,-0.78806 0.16265,-0.0431 0.31035,-0.0645 0.41755,-0.0646 z m 14.34021,0.71676 0.0677,0.69401 c 0.0617,0.63007 -0.13655,0.89289 -2.15387,2.85667 -1.22206,1.18961 -2.3108,2.19509 -2.4195,2.23449 -0.10872,0.0394 -0.1974,-0.26946 -0.1974,-0.68678 0,-0.66524 0.20521,-0.95613 1.66657,-2.36058 0.91674,-0.88105 1.97515,-1.85753 2.35179,-2.16989 z m 30.729907,0.015 c 0.29235,-7.9e-4 0.35855,0.61689 0.10438,0.97462 -0.0869,0.12232 -0.96492,0.58209 -1.95078,1.02164 -0.98586,0.43956 -1.88258,0.79892 -1.99316,0.79892 -0.22274,0 -0.0247,-1.07091 0.25476,-1.37718 0.21341,-0.2339 3.20408,-1.417 3.5848,-1.418 z m -55.262777,0.43873 c 0.0245,-0.007 0.0429,0.11011 0.0429,0.28733 0,0.20252 -0.23727,0.60571 -0.52762,0.89606 -0.85009,0.85009 -1.13389,0.60559 -0.32091,-0.27647 0.40764,-0.44228 0.76518,-0.84546 0.79479,-0.89607 0.004,-0.006 0.007,-0.01 0.0109,-0.0108 z m -2.24844,0.44339 c 0.0142,0.001 0.0259,0.006 0.0341,0.0139 0.0661,0.0661 -0.14902,0.29044 -0.47801,0.49816 l -0.59841,0.37724 0.47801,-0.49764 c 0.23001,-0.23961 0.4649,-0.39972 0.5643,-0.39171 z M 157.0144,173.369 c 0.0178,5.3e-4 0.0304,0.004 0.0372,0.0109 0.13218,0.13218 -0.39341,0.75447 -0.63717,0.75447 -0.20705,0 -2.55127,1.51377 -2.55127,1.64745 0,0.0444 0.48394,-0.16486 1.07539,-0.46457 0.59144,-0.29971 1.07538,-0.49347 1.07538,-0.43047 0,0.063 -0.34585,0.63535 -0.76843,1.27176 -0.5448,0.82054 -1.08229,1.31998 -1.84794,1.71721 -1.23763,0.64212 -1.53186,0.68161 -1.88826,0.25218 -0.31102,-0.37476 0.22148,-1.32127 0.85679,-1.52291 0.22802,-0.0724 0.35087,-0.25472 0.28578,-0.42426 -0.0628,-0.16355 0.20845,-0.72819 0.60254,-1.2547 0.62235,-0.83143 0.80127,-0.94425 1.36168,-0.86145 0.3942,0.0583 0.97422,-0.0757 1.49086,-0.34417 0.40695,-0.21148 0.7832,-0.35528 0.90744,-0.35139 z m -45.79514,0.63407 c 0.0447,0.0448 0.0151,0.58183 -0.0661,1.19372 l -0.14779,1.1126 -1.52962,0.77101 c -0.84148,0.42396 -1.79654,0.84701 -2.12184,0.94051 -0.68308,0.19625 -0.72191,0.0481 -0.36225,-1.38028 0.22209,-0.88199 0.29029,-0.93777 2.18798,-1.81436 1.07711,-0.49754 1.99487,-0.868 2.03967,-0.8232 z m -30.402277,0.3576 c 0.0506,0.0531 0.20496,0.82229 0.34313,1.70945 l 0.25115,1.61283 -0.5979,0.43046 c -0.32875,0.23658 -1.12369,0.91389 -1.76681,1.50534 -0.64312,0.59144 -1.43117,1.4842 -1.75132,1.98385 -0.60933,0.95098 -0.85783,0.98407 -0.85783,0.11472 0,-1.01059 2.87868,-4.29623 4.10518,-4.6855 0.22617,-0.0718 0.41134,-0.27139 0.41134,-0.4439 0,-0.77503 -2.95753,1.55275 -3.8902,3.06183 -0.5813,0.94056 -0.84129,0.91336 -0.84129,-0.0884 0,-0.74257 0.18808,-0.99814 2.25103,-3.05407 1.23816,-1.23395 2.29292,-2.19984 2.34352,-2.14664 z m 40.037867,2.59002 c -0.40144,0.0204 -0.955,0.65922 -1.38855,1.81798 -0.23349,0.62404 -0.63062,2.21228 -0.88263,3.5295 -0.52752,2.75723 -0.44863,3.03383 0.82269,2.88096 0.43896,-0.0528 1.37904,-0.007 2.08876,0.10284 0.70974,0.10938 1.35104,0.21091 1.42524,0.2253 0.0742,0.0144 0.24368,-0.10534 0.37672,-0.26561 0.18495,-0.22285 0.0898,-0.58971 -0.40463,-1.55908 -0.75754,-1.48503 -1.50482,-4.27142 -1.50482,-5.61051 0,-0.77898 -0.22055,-1.13723 -0.53278,-1.12138 z m -10.10791,0.0207 c 0.0381,0.0381 5.3e-4,0.40436 -0.0832,0.8139 -0.14285,0.69855 -0.27485,0.79639 -2.13424,1.58182 -1.09009,0.46046 -1.98179,0.92977 -1.98179,1.04283 0,0.25337 0.49235,0.1024 2.2133,-0.67955 0.73436,-0.33367 1.39472,-0.57025 1.46761,-0.52555 0.0729,0.0447 0.0858,0.32453 0.0289,0.62219 -0.0812,0.4248 -0.29465,0.58865 -0.9927,0.76119 -0.48911,0.1209 -1.49604,0.50881 -2.23759,0.86196 -0.74155,0.35316 -1.38757,0.64182 -1.43557,0.64182 -0.048,0 0.13005,-0.79782 0.39532,-1.77301 0.4703,-1.72885 0.50031,-1.77618 1.22008,-1.8986 0.406,-0.069 1.35299,-0.43867 2.10427,-0.82165 0.75128,-0.38299 1.39747,-0.66545 1.43557,-0.62735 z m 42.90126,1.33325 c 0,0.0423 -0.2502,0.52508 -0.55604,1.07228 -0.30584,0.54721 -0.58438,0.99477 -0.61908,0.99477 -0.10863,0 -0.60749,-1.30143 -0.52039,-1.35753 0.28105,-0.18092 1.69551,-0.7729 1.69551,-0.70952 z m -72.322207,0.13126 c 0.12351,0 0.2661,0.28525 0.3173,0.63407 0.0827,0.56328 -0.17333,0.91222 -2.28772,3.11867 -1.30938,1.3664 -2.45326,2.48462 -2.54196,2.4846 -0.25206,-6e-5 -0.18916,-1.26647 0.0889,-1.78852 0.85827,-1.61154 3.67948,-4.44882 4.4235,-4.44882 z m 39.035867,1.60558 c 0.0642,0.01 0.12942,0.11898 0.20412,0.32091 0.11631,0.31455 0.0936,0.6021 -0.062,0.78962 h 5.3e-4 c -0.40023,0.48219 -0.64071,0.33649 -0.48938,-0.29662 0.13619,-0.5699 0.23981,-0.83019 0.34675,-0.81391 z m -38.584727,0.26872 0.23255,0.83716 c 0.21935,0.78874 0.19876,0.86189 -0.35761,1.26142 -1.97518,1.41835 -4.50461,4.5748 -4.02352,5.02088 0.0871,0.0807 0.2021,0.0238 0.2558,-0.1266 0.56971,-1.59701 4.01188,-5.1196 4.40231,-4.50515 0.47727,0.75109 0.15649,1.32498 -1.71979,3.07578 -1.04105,0.97142 -2.1303,2.11405 -2.42001,2.53937 -0.54282,0.79694 -0.84618,0.97729 -0.85318,0.50747 -0.002,-0.14786 -0.10134,-0.93817 -0.21962,-1.75648 -0.2041,-1.41211 -0.18776,-1.52705 0.32039,-2.25826 0.29446,-0.42374 1.40081,-1.63108 2.45877,-2.68304 z m 27.879947,0.6227 c 0.11259,0.003 0.19026,0.0288 0.22325,0.0822 0.26245,0.42467 -0.27333,0.91139 -2.23604,2.03243 -1.15093,0.65736 -2.20694,1.19528 -2.34715,1.19528 -0.43673,0 -0.27983,-0.85499 0.25529,-1.3901 0.81962,-0.81962 3.31653,-1.9389 4.10465,-1.91978 z m -52.361137,0.0837 c 0.11827,0 0.21497,0.49615 0.21497,1.10226 0,1.02976 -0.0606,1.15573 -0.92914,1.92029 -0.51124,0.45001 -1.16489,1.16323 -1.45211,1.58492 -0.28722,0.42169 -0.58466,0.76712 -0.66146,0.76791 -0.0768,7.9e-4 -0.17421,-0.42858 -0.216,-0.95446 -0.0747,-0.93885 -0.0494,-0.98013 1.37666,-2.27273 0.83845,-0.75996 1.4521,-1.49213 1.4521,-1.7322 0,-0.22872 0.0967,-0.41599 0.21498,-0.41599 z m -1.09193,0.28422 c 0.3352,-0.0227 0.16023,0.3085 -0.52503,1.01027 -1.07316,1.09901 -1.6092,1.13381 -1.6092,0.10387 0,-0.65415 0.0689,-0.75292 0.524,-0.75292 0.28802,0 0.78501,-0.0996 1.10484,-0.22118 0.22506,-0.0856 0.39366,-0.13248 0.50539,-0.14004 z m 64.328897,0.42995 c 0.18645,-0.01 0.36256,0.0422 0.44803,0.17725 0.10162,0.16052 0.15592,0.38261 0.12092,0.49351 -0.13888,0.4395 -1.22008,0.25952 -1.22008,-0.20309 0,-0.26273 0.34037,-0.45117 0.65113,-0.46767 z m -11.11457,0.82527 c 0.11583,0.009 0.12106,0.1282 0.0574,0.34261 -0.0615,0.207 -0.17196,0.62925 -0.24546,0.93845 -0.10038,0.42204 -0.34483,0.62558 -0.98031,0.81597 -0.46557,0.1395 -1.48825,0.58793 -2.27273,0.99684 -0.78449,0.4089 -1.46862,0.74362 -1.52032,0.74362 -0.0969,0 0.14292,-1.29076 0.28526,-1.53479 0.0439,-0.0753 0.40167,-0.1976 0.79478,-0.2713 0.39311,-0.0737 1.37625,-0.56857 2.18488,-1.09967 1.00278,-0.65863 1.50348,-0.94728 1.69654,-0.93173 z m -16.758667,0.0258 c 0.0266,7.9e-4 0.0471,0.007 0.0599,0.0202 0.0744,0.0744 0.0948,0.16504 0.0455,0.20154 -1.5294,1.13255 -2.34818,1.60469 -2.34818,1.35392 0,-0.32199 1.84344,-1.58761 2.24276,-1.57561 z m -1.50223,0.16226 c 0.12526,0.004 0.0395,0.14879 -0.19017,0.32246 -0.22961,0.17367 -0.51967,0.31303 -0.64492,0.30903 -0.12526,-0.004 -0.04,-0.14879 0.18965,-0.32246 0.22961,-0.17367 0.52019,-0.31303 0.64544,-0.30903 z m 2.95072,0.0786 c 0.0675,-0.002 0.12771,0.005 0.1788,0.0217 0.676,0.21455 0.52493,0.41802 -0.82682,1.11517 -0.69204,0.35691 -1.46604,0.85729 -1.72031,1.11156 -0.51299,0.51299 -0.79565,0.57744 -1.00976,0.231 -0.3347,-0.54157 2.36559,-2.45605 3.37809,-2.47944 z m 1.34669,0.45475 c 0.0756,-0.01 0.12402,0.008 0.12402,0.0631 0,0.10346 -0.24812,0.30108 -0.55139,0.43925 -0.31494,0.14352 -0.49416,0.15878 -0.41806,0.0356 0.14631,-0.23673 0.61847,-0.50928 0.84543,-0.53795 z m 24.245027,0.1602 c 0.13236,0.0189 0.28132,0.13547 0.34778,0.33486 0.0468,0.14047 -0.068,0.25528 -0.25528,0.25528 -0.18729,0 -0.34055,-0.15327 -0.34055,-0.34054 0,-0.18992 0.11569,-0.26851 0.24805,-0.2496 z m -62.173467,0.59014 c 0.29265,0 0.41242,1.32366 0.14418,1.5937 -0.1468,0.14781 -0.75111,0.91203 -1.34255,1.69809 -0.59145,0.78606 -1.19625,1.43154 -1.3441,1.43454 -0.53183,0.0106 -0.29232,-1.40197 0.40359,-2.38177 0.76432,-1.0761 1.92129,-2.34456 2.13888,-2.34456 z m 25.00623,0.53744 0.20826,1.05626 0.20773,1.05576 -1.57303,1.52497 c -2.19562,2.12882 -3.30019,3.34229 -3.16569,3.47679 0.0631,0.0631 1.11538,-0.91395 2.33836,-2.17093 2.09048,-2.14866 2.23352,-2.25493 2.39313,-1.77612 0.14964,0.44893 -0.14756,0.83583 -2.50786,3.26388 l -2.67787,2.75436 -0.11265,-0.72089 c -0.0619,-0.39662 -0.14976,-1.29584 -0.19586,-1.99833 l -0.0842,-1.27744 2.58486,-2.59415 z m 61.794677,0.31264 c 0.21569,0.0428 0.53863,0.62444 1.10277,1.77199 0.0402,0.0818 -0.21862,0.29932 -0.57515,0.48369 -1.05413,0.54508 -1.15749,0.46232 -0.98806,-0.79375 0.13606,-1.00868 0.24475,-1.50471 0.46044,-1.46193 z m -35.53737,0.0202 c 0.0872,0.001 0.12351,0.038 0.12351,0.10439 0,0.0629 -0.13426,0.43556 -0.29817,0.82785 -0.24614,0.5891 -0.67375,0.90604 -2.45515,1.82108 -2.29457,1.17865 -2.74959,1.31581 -2.53835,0.76533 0.0723,-0.18843 0.18825,-0.56761 0.25735,-0.84284 0.0947,-0.37745 0.67238,-0.76908 2.35128,-1.59319 1.57786,-0.77451 2.29808,-1.08689 2.55953,-1.08262 z m -50.842887,1.49552 c 0.0878,0 0.22404,0.51966 0.30334,1.15445 0.0793,0.63478 0.27544,1.65101 0.43563,2.25826 0.24719,0.9358 0.24614,1.10381 -0.005,1.10381 -0.16312,0 -0.78627,0.72616 -1.38492,1.61334 -0.59866,0.88717 -1.12644,1.61282 -1.17254,1.61282 -0.0461,0 -0.14536,-0.28055 -0.22066,-0.62322 -0.11229,-0.51123 0.0777,-0.96778 1.05833,-2.54558 0.65731,-1.05761 1.19476,-2.03551 1.19476,-2.17299 0,-0.59477 -0.46681,-0.14186 -1.40457,1.3627 -0.55295,0.88718 -1.0802,1.61334 -1.1715,1.61334 -0.17355,0 -0.4346,-1.05191 -0.4346,-1.7508 0,-0.40098 2.49205,-3.62613 2.8019,-3.62613 z m 50.188667,0.84232 c 0.01,0.001 0.0165,0.005 0.0196,0.01 0.21455,0.34715 -0.18603,1.06588 -0.71675,1.28571 -0.31547,0.13068 -0.86304,0.48177 -1.21646,0.7798 l -0.64234,0.54157 0.93482,-0.45424 c 0.5142,-0.24978 0.9829,-0.40565 1.0418,-0.34675 0.0589,0.0589 0.0472,0.38105 -0.0263,0.71624 -0.0908,0.41335 -0.44673,0.8072 -1.10588,1.22421 -1.07155,0.67791 -1.15684,1.00618 -0.12247,0.47129 0.36,-0.18616 0.70346,-0.33848 0.76326,-0.33848 0.23123,0 -0.54794,1.84262 -0.88677,2.09703 -0.19693,0.14786 -0.51709,0.26872 -0.71107,0.26872 -0.41488,0 -0.97135,-0.92879 -0.76067,-1.26969 0.0817,-0.1322 -0.001,-0.23565 -0.18914,-0.23565 -0.1842,0 -0.61795,-0.45539 -0.96428,-1.01182 -0.66772,-1.07282 -0.60787,-1.77711 0.15244,-1.79111 0.20285,-0.004 1.26657,-0.47426 2.36368,-1.04593 1.02855,-0.53594 1.91776,-0.9219 2.06654,-0.90072 z m 36.99206,0.27234 c 0.14844,0.0101 0.1328,0.1872 0.1328,0.58859 0,0.48066 -0.16979,0.73256 -0.7245,1.07539 -0.86791,0.5364 -1.30723,0.57833 -1.12654,0.10749 0.0718,-0.18711 0.13022,-0.52451 0.13022,-0.74983 0,-0.26753 0.27055,-0.52279 0.77928,-0.73535 0.37258,-0.15567 0.59792,-0.25557 0.73432,-0.2806 0.0284,-0.005 0.0532,-0.007 0.0744,-0.006 z m -62.213257,1.73736 c 0.0155,-0.002 0.0294,-0.001 0.0419,0.002 0.0664,0.0166 0.0923,0.0998 0.10749,0.22583 0.0507,0.41957 -0.14268,0.74285 -0.79789,1.3348 -0.47564,0.42971 -1.55632,1.59608 -2.40192,2.59209 -0.84559,0.99601 -1.6236,1.81126 -1.72909,1.81126 -0.1055,0 -0.19224,-0.24354 -0.19224,-0.54106 0,-0.3994 0.6617,-1.2227 2.5275,-3.14606 1.61722,-1.6671 2.2122,-2.2531 2.44429,-2.27893 z m 61.940407,0.37414 c 0.10479,0 0.18903,0.31474 0.18603,0.69918 -0.004,0.56486 -0.16546,0.8124 -0.84129,1.29036 -0.45994,0.3253 -0.89345,0.59118 -0.96325,0.59118 -0.17135,0 -0.13354,-1.0896 0.0543,-1.56476 0.14265,-0.36091 1.15139,-1.01596 1.56425,-1.01596 z m -39.70559,0.41238 -0.53744,0.14056 c -0.29572,0.0774 -0.62969,0.22625 -0.74207,0.33124 -0.32851,0.30694 0.14284,0.21326 0.74207,-0.14779 z m -21.990907,0.67076 c 0.49298,-0.0236 -0.0387,0.8918 -1.65209,2.8453 -0.99724,1.20744 -1.77206,2.23597 -1.72186,2.28617 0.15365,0.15365 0.87101,-0.59222 2.17868,-2.2655 l 1.24902,-1.59783 0.19068,0.64647 c 0.17352,0.58823 0.0775,0.78731 -1.06402,2.21175 -0.68993,0.86094 -1.30806,1.61367 -1.37356,1.67277 -0.27553,0.24871 -2.28206,-0.0348 -2.52697,-0.35709 -0.21574,-0.2839 0.042,-0.67336 1.59525,-2.41019 1.86291,-2.08304 2.82607,-3.01755 3.12487,-3.03185 z m 37.717597,0.63717 c 0.47696,0 0.52302,0.0502 0.29662,0.32298 -0.14726,0.17743 -0.40136,0.32246 -0.56431,0.32246 -0.16295,0 -0.2961,-0.14503 -0.2961,-0.32246 0,-0.20475 0.20582,-0.32298 0.56379,-0.32298 z m -61.860827,0.0439 c 0.0932,-0.0351 0.21035,0.35214 0.26045,0.86041 0.0865,0.87683 0.0247,0.99806 -1.21285,2.3735 -0.71735,0.79729 -1.36583,1.45111 -1.44073,1.45211 -0.0749,0.001 -0.18483,-0.18466 -0.24443,-0.41238 -0.071,-0.27147 0.3351,-1.06751 1.17977,-2.312 0.70852,-1.0439 1.36459,-1.92654 1.45779,-1.96164 z m 63.271077,0.13695 c 0.26848,0.0194 0.15959,0.40046 -0.47801,0.93276 -0.39993,0.33386 -0.79749,0.60719 -0.88367,0.60719 -0.17385,0 -0.4844,-0.43084 -0.36535,-0.50694 0.0414,-0.0265 0.43237,-0.31053 0.86868,-0.63149 0.40034,-0.29452 0.69726,-0.41319 0.85835,-0.40152 z m 22.59345,0.13901 c 0.0174,-0.002 0.0331,-0.002 0.047,5.2e-4 0.0929,0.0191 0.11136,0.1616 0.10336,0.47905 -0.0165,0.65235 -0.26469,1.42422 -0.42323,1.31568 -0.0545,-0.0373 -0.44712,0.19711 -0.8723,0.52141 -0.99441,0.75846 -1.13762,0.74269 -0.97565,-0.10903 0.12417,-0.65299 0.98637,-1.61022 1.90996,-2.11977 0.0898,-0.0495 0.15853,-0.0804 0.21084,-0.0879 z m -22.57123,0.97771 c 0.45257,-0.0193 0.3972,0.72367 -0.0811,1.09141 -0.63237,0.48618 -0.81686,0.50205 -0.9772,0.0842 -0.11514,-0.30002 0.65768,-1.15864 1.05834,-1.17564 z m -16.16026,1.09968 c 0.13817,-0.0182 0.19246,0.0878 0.1509,0.3023 -0.0409,0.21082 -0.20464,0.42708 -0.3638,0.48008 -0.18507,0.0616 -0.26248,-0.0421 -0.21498,-0.28732 0.0409,-0.21082 0.20465,-0.42656 0.3638,-0.47956 0.0231,-0.008 0.0443,-0.0129 0.0641,-0.0155 z m 38.66018,0.14262 c 0.0142,0.001 0.0217,0.007 0.0217,0.0181 0,0.66774 -0.52001,2.74263 -0.71933,2.86959 -0.37181,0.23682 -0.45523,0.208 -0.96377,-0.33331 -0.71905,-0.7654 -0.56989,-1.24802 0.62063,-2.0128 0.51149,-0.32857 0.94123,-0.55004 1.04077,-0.54157 z m -22.02657,0.12403 c 0.0471,0.001 0.0879,0.0102 0.11989,0.03 0.28732,0.17759 0.25791,0.82523 -0.0517,1.13482 -0.14194,0.14194 -0.31606,0.25786 -0.38706,0.25786 -0.21229,0 -0.64544,-0.49934 -0.64544,-0.74414 0,-0.27196 0.63449,-0.6852 0.96428,-0.67851 z m -39.255477,0.13229 c 0.45431,0 0.38186,1.22604 -0.12403,2.09703 -0.55038,0.94761 -0.71523,1.02129 -1.54357,0.68885 -0.39001,-0.15653 -0.45031,-0.27747 -0.2868,-0.57775 0.31421,-0.57707 1.75781,-2.20813 1.9544,-2.20813 z m -24.21041,0.18397 c 0.0196,-0.003 0.0382,-0.003 0.0553,5.3e-4 0.0456,0.008 0.083,0.0369 0.11369,0.0853 0.0937,0.14747 0.17153,0.32695 0.17363,0.39895 0.002,0.072 -0.55336,0.49741 -1.23352,0.94567 -1.29417,0.85299 -1.26205,0.73622 0.25012,-0.91467 0.30267,-0.33045 0.5035,-0.49585 0.64078,-0.51573 z m 63.853977,1.19941 c 0.30594,-0.0231 0.57456,0.27675 0.57981,0.69039 0.005,0.35832 -0.54931,0.51316 -0.83044,0.23203 -0.34777,-0.34777 -0.29693,-0.73278 0.11782,-0.89193 0.0446,-0.0171 0.0891,-0.0272 0.13281,-0.0305 z m -39.206907,0.55242 c 0.0886,0 0.28359,0.43788 0.43357,0.97358 0.31338,1.11926 0.26408,1.2578 -0.30127,0.84439 -0.22361,-0.16349 -0.50867,-0.3315 -0.63356,-0.3731 -0.25218,-0.0841 0.21994,-1.44487 0.50126,-1.44487 z m 39.918497,0.70228 c 0.085,-0.0175 0.14496,0.059 0.21394,0.23875 0.17971,0.4683 0.0537,0.59374 -0.34675,0.34623 -0.24597,-0.15201 -0.25752,-0.25096 -0.0543,-0.45424 0.0762,-0.0762 0.13609,-0.12027 0.18707,-0.13074 z" />
    <circle
       style="display:inline;opacity:1;fill:#c8102e;fill-opacity:1;stroke:none;stroke-width:0.22078404"
       id="path4574"
       cx="126.66927"
       cy="58.402527"
       r="5.8350072" />
    <circle
       style="display:inline;opacity:1;fill:#c8102e;fill-opacity:1;stroke:none;stroke-width:0.22078404"
       id="path4574-1"
       cx="164.81587"
       cy="79.260132"
       r="5.8350072" />
    <circle
       style="display:inline;opacity:1;fill:#c8102e;fill-opacity:1;stroke:none;stroke-width:0.22078404"
       id="path4574-5"
       cx="188.7365"
       cy="115.40834"
       r="5.8350072" />
    <circle
       style="display:inline;opacity:1;fill:#c8102e;fill-opacity:1;stroke:none;stroke-width:0.22078404"
       id="path4574-9"
       cx="193.04561"
       cy="158.59389"
       r="5.8350072" />
    <circle
       style="display:inline;opacity:1;fill:#c8102e;fill-opacity:1;stroke:none;stroke-width:0.22078404"
       id="path4574-7"
       cx="176.55975"
       cy="198.81497"
       r="5.8350072" />
    <circle
       style="display:inline;opacity:1;fill:#c8102e;fill-opacity:1;stroke:none;stroke-width:0.22078404"
       id="path4574-10"
       cx="143.39679"
       cy="226.71674"
       r="5.8350072" />
    <circle
       style="display:inline;opacity:1;fill:#c8102e;fill-opacity:1;stroke:none;stroke-width:0.22078404"
       id="path4574-52"
       cx="103.678"
       cy="235.84668"
       r="5.8350072" />
    <circle
       style="display:inline;opacity:1;fill:#c8102e;fill-opacity:1;stroke:none;stroke-width:0.22078404"
       id="path4574-95"
       cx="61.649845"
       cy="225.45659"
       r="5.8350072" />
    <circle
       style="display:inline;opacity:1;fill:#c8102e;fill-opacity:1;stroke:none;stroke-width:0.22078404"
       id="path4574-77"
       cx="29.29402"
       cy="196.54422"
       r="5.8350072" />
    <circle
       style="display:inline;opacity:1;fill:#c8102e;fill-opacity:1;stroke:none;stroke-width:0.22078404"
       id="path4574-56"
       cx="14.075864"
       cy="155.96651"
       r="5.8350072" />
    <circle
       style="display:inline;opacity:1;fill:#c8102e;fill-opacity:1;stroke:none;stroke-width:0.22078404"
       id="path4574-8"
       cx="19.688528"
       cy="112.9361"
       r="5.8350072" />
    <circle
       style="display:inline;opacity:1;fill:#c8102e;fill-opacity:1;stroke:none;stroke-width:0.22078404"
       id="path4574-13"
       cx="44.811863"
       cy="77.389244"
       r="5.8350072" />
    <circle
       style="display:inline;opacity:1;fill:#c8102e;fill-opacity:1;stroke:none;stroke-width:0.22078404"
       id="path4574-70"
       cx="83.298668"
       cy="57.611301"
       r="5.8350072" />
    <circle
       style="display:inline;opacity:1;fill:#012169;fill-opacity:1;stroke:none;stroke-width:0.22078404"
       id="path4574-72"
       cx="81.979027"
       cy="233.12776"
       r="5.8350072" />
    <circle
       style="display:inline;opacity:1;fill:#012169;fill-opacity:1;stroke:none;stroke-width:0.22078404"
       id="path4574-72-2"
       cx="122.70052"
       cy="233.80711"
       r="5.8350072" />
    <circle
       style="display:inline;opacity:1;fill:#012169;fill-opacity:1;stroke:none;stroke-width:0.22078404"
       id="path4574-72-7"
       cx="161.63737"
       cy="214.7621"
       r="5.8350072" />
    <circle
       style="display:inline;opacity:1;fill:#012169;fill-opacity:1;stroke:none;stroke-width:0.22078404"
       id="path4574-72-3"
       cx="187.23311"
       cy="179.72008"
       r="5.8350072" />
    <circle
       style="display:inline;opacity:1;fill:#012169;fill-opacity:1;stroke:none;stroke-width:0.22078404"
       id="path4574-72-5"
       cx="193.44475"
       cy="136.72308"
       r="5.8350072" />
    <circle
       style="display:inline;opacity:1;fill:#012169;fill-opacity:1;stroke:none;stroke-width:0.22078404"
       id="path4574-72-6"
       cx="178.90489"
       cy="95.838379"
       r="5.8350072" />
    <circle
       style="display:inline;opacity:1;fill:#012169;fill-opacity:1;stroke:none;stroke-width:0.22078404"
       id="path4574-72-53"
       cx="146.96187"
       cy="66.434525"
       r="5.8350072" />
    <circle
       style="display:inline;opacity:1;fill:#012169;fill-opacity:1;stroke:none;stroke-width:0.22078404"
       id="path4574-72-4"
       cx="105.08115"
       cy="55.506557"
       r="5.8350072" />
    <circle
       style="display:inline;opacity:1;fill:#012169;fill-opacity:1;stroke:none;stroke-width:0.22078404"
       id="path4574-72-63"
       cx="62.838535"
       cy="65.2061"
       r="5.8350072" />
    <circle
       style="display:inline;opacity:1;fill:#012169;fill-opacity:1;stroke:none;stroke-width:0.22078404"
       id="path4574-72-1"
       cx="29.954611"
       cy="93.648811"
       r="5.8350072" />
    <circle
       style="display:inline;opacity:1;fill:#012169;fill-opacity:1;stroke:none;stroke-width:0.22078404"
       id="path4574-72-69"
       cx="14.221349"
       cy="133.99776"
       r="5.8350072" />
    <circle
       style="display:inline;opacity:1;fill:#012169;fill-opacity:1;stroke:none;stroke-width:0.22078404"
       id="path4574-72-28"
       cx="19.18228"
       cy="177.13431"
       r="5.8350072" />
    <circle
       style="display:inline;opacity:1;fill:#012169;fill-opacity:1;stroke:none;stroke-width:0.22078404"
       id="path4574-72-34"
       cx="43.675976"
       cy="212.96173"
       r="5.8350072" />
  </g>
</svg>
